<svg width="900" height="420" viewBox="0 0 900 420" fill="none" xmlns="http://www.w3.org/2000/svg">
<g clip-path="url(#clip0_6_2214)">
<rect x="0.5" y="0.5" width="899" height="419" rx="3.5" fill="white" fill-opacity="0.9" stroke="#DADADA"/>
<path d="M450.5 233C462.926 233 473 222.926 473 210.5C473 198.074 462.926 188 450.5 188C438.074 188 428 198.074 428 210.5C428 222.926 438.074 233 450.5 233Z" fill="black"/>
<path d="M500.5 210C500.5 237.89 477.89 260.5 450 260.5C422.11 260.5 399.5 237.89 399.5 210C399.5 182.11 422.11 159.5 450 159.5C477.89 159.5 500.5 182.11 500.5 210Z" stroke="black"/>
<path d="M537.5 210C537.5 258.325 498.325 297.5 450 297.5C401.675 297.5 362.5 258.325 362.5 210C362.5 161.675 401.675 122.5 450 122.5C498.325 122.5 537.5 161.675 537.5 210Z" stroke="black"/>
<path d="M584.5 210C584.5 283.171 524.289 342.5 450 342.5C375.711 342.5 315.5 283.171 315.5 210C315.5 136.829 375.711 77.5 450 77.5C524.289 77.5 584.5 136.829 584.5 210Z" stroke="black"/>
<path d="M603.5 210C603.5 294.776 534.776 363.5 450 363.5C365.224 363.5 296.5 294.776 296.5 210C296.5 125.224 365.224 56.5 450 56.5C534.776 56.5 603.5 125.224 603.5 210Z" stroke="black"/>
<path d="M425.078 257.094C426.502 257.094 427.656 255.939 427.656 254.516C427.656 253.092 426.502 251.938 425.078 251.938C423.654 251.938 422.5 253.092 422.5 254.516C422.5 255.939 423.654 257.094 425.078 257.094Z" fill="#129A32"/>
<path d="M469.938 259.672C471.361 259.672 472.516 258.518 472.516 257.094C472.516 255.67 471.361 254.516 469.938 254.516C468.514 254.516 467.359 255.67 467.359 257.094C467.359 258.518 468.514 259.672 469.938 259.672Z" fill="#129A32"/>
<path d="M454.125 259.672C455.549 259.672 456.703 258.518 456.703 257.094C456.703 255.67 455.549 254.516 454.125 254.516C452.701 254.516 451.547 255.67 451.547 257.094C451.547 258.518 452.701 259.672 454.125 259.672Z" fill="#129A32"/>
<path d="M484.719 249.359C486.143 249.359 487.297 248.205 487.297 246.781C487.297 245.357 486.143 244.203 484.719 244.203C483.295 244.203 482.141 245.357 482.141 246.781C482.141 248.205 483.295 249.359 484.719 249.359Z" fill="#129A32"/>
<path d="M399.125 222.891C400.549 222.891 401.703 221.736 401.703 220.312C401.703 218.889 400.549 217.734 399.125 217.734C397.701 217.734 396.547 218.889 396.547 220.312C396.547 221.736 397.701 222.891 399.125 222.891Z" fill="#129A32"/>
<path d="M493.312 235.094C494.736 235.094 495.891 233.939 495.891 232.516C495.891 231.092 494.736 229.938 493.312 229.938C491.889 229.938 490.734 231.092 490.734 232.516C490.734 233.939 491.889 235.094 493.312 235.094Z" fill="#129A32"/>
<path d="M493.312 244.203C494.736 244.203 495.891 243.049 495.891 241.625C495.891 240.201 494.736 239.047 493.312 239.047C491.889 239.047 490.734 240.201 490.734 241.625C490.734 243.049 491.889 244.203 493.312 244.203Z" fill="#129A32"/>
<path d="M462.031 263.625C463.455 263.625 464.609 262.471 464.609 261.047C464.609 259.623 463.455 258.469 462.031 258.469C460.607 258.469 459.453 259.623 459.453 261.047C459.453 262.471 460.607 263.625 462.031 263.625Z" fill="#129A32"/>
<path d="M503.625 225.469C505.049 225.469 506.203 224.314 506.203 222.891C506.203 221.467 505.049 220.312 503.625 220.312C502.201 220.312 501.047 221.467 501.047 222.891C501.047 224.314 502.201 225.469 503.625 225.469Z" fill="#129A32"/>
<path d="M501.047 206.391C502.471 206.391 503.625 205.236 503.625 203.812C503.625 202.389 502.471 201.234 501.047 201.234C499.623 201.234 498.469 202.389 498.469 203.812C498.469 205.236 499.623 206.391 501.047 206.391Z" fill="#129A32"/>
<path d="M433.5 164.281C434.924 164.281 436.078 163.127 436.078 161.703C436.078 160.279 434.924 159.125 433.5 159.125C432.076 159.125 430.922 160.279 430.922 161.703C430.922 163.127 432.076 164.281 433.5 164.281Z" fill="#129A32"/>
<path d="M448.969 158.266C450.393 158.266 451.547 157.111 451.547 155.688C451.547 154.264 450.393 153.109 448.969 153.109C447.545 153.109 446.391 154.264 446.391 155.688C446.391 157.111 447.545 158.266 448.969 158.266Z" fill="#129A32"/>
<path d="M462.031 163.422C463.455 163.422 464.609 162.268 464.609 160.844C464.609 159.42 463.455 158.266 462.031 158.266C460.607 158.266 459.453 159.42 459.453 160.844C459.453 162.268 460.607 163.422 462.031 163.422Z" fill="#129A32"/>
<path d="M495.891 181.641C497.314 181.641 498.469 180.486 498.469 179.062C498.469 177.639 497.314 176.484 495.891 176.484C494.467 176.484 493.312 177.639 493.312 179.062C493.312 180.486 494.467 181.641 495.891 181.641Z" fill="#129A32"/>
<path d="M503.625 196.078C505.049 196.078 506.203 194.924 506.203 193.5C506.203 192.076 505.049 190.922 503.625 190.922C502.201 190.922 501.047 192.076 501.047 193.5C501.047 194.924 502.201 196.078 503.625 196.078Z" fill="#129A32"/>
<path d="M501.047 235.781C502.471 235.781 503.625 234.627 503.625 233.203C503.625 231.779 502.471 230.625 501.047 230.625C499.623 230.625 498.469 231.779 498.469 233.203C498.469 234.627 499.623 235.781 501.047 235.781Z" fill="#129A32"/>
<path d="M475.094 251.938C476.518 251.938 477.672 250.783 477.672 249.359C477.672 247.936 476.518 246.781 475.094 246.781C473.67 246.781 472.516 247.936 472.516 249.359C472.516 250.783 473.67 251.938 475.094 251.938Z" fill="#129A32"/>
<path d="M480.766 257.094C482.189 257.094 483.344 255.939 483.344 254.516C483.344 253.092 482.189 251.938 480.766 251.938C479.342 251.938 478.188 253.092 478.188 254.516C478.188 255.939 479.342 257.094 480.766 257.094Z" fill="#129A32"/>
<path d="M450.172 266.203C451.596 266.203 452.75 265.049 452.75 263.625C452.75 262.201 451.596 261.047 450.172 261.047C448.748 261.047 447.594 262.201 447.594 263.625C447.594 265.049 448.748 266.203 450.172 266.203Z" fill="#129A32"/>
<path d="M430.234 264.828C431.658 264.828 432.812 263.674 432.812 262.25C432.812 260.826 431.658 259.672 430.234 259.672C428.811 259.672 427.656 260.826 427.656 262.25C427.656 263.674 428.811 264.828 430.234 264.828Z" fill="#129A32"/>
<path d="M431.953 257.094C433.377 257.094 434.531 255.939 434.531 254.516C434.531 253.092 433.377 251.938 431.953 251.938C430.529 251.938 429.375 253.092 429.375 254.516C429.375 255.939 430.529 257.094 431.953 257.094Z" fill="#129A32"/>
<path d="M441.234 267.406C442.658 267.406 443.812 266.252 443.812 264.828C443.812 263.404 442.658 262.25 441.234 262.25C439.811 262.25 438.656 263.404 438.656 264.828C438.656 266.252 439.811 267.406 441.234 267.406Z" fill="#129A32"/>
<path d="M396.547 213.266C397.971 213.266 399.125 212.111 399.125 210.688C399.125 209.264 397.971 208.109 396.547 208.109C395.123 208.109 393.969 209.264 393.969 210.688C393.969 212.111 395.123 213.266 396.547 213.266Z" fill="#129A32"/>
<path d="M406.172 196.078C407.596 196.078 408.75 194.924 408.75 193.5C408.75 192.076 407.596 190.922 406.172 190.922C404.748 190.922 403.594 192.076 403.594 193.5C403.594 194.924 404.748 196.078 406.172 196.078Z" fill="#129A32"/>
<path d="M399.125 196.078C400.549 196.078 401.703 194.924 401.703 193.5C401.703 192.076 400.549 190.922 399.125 190.922C397.701 190.922 396.547 192.076 396.547 193.5C396.547 194.924 397.701 196.078 399.125 196.078Z" fill="#129A32"/>
<path d="M410.812 180.609C412.236 180.609 413.391 179.455 413.391 178.031C413.391 176.607 412.236 175.453 410.812 175.453C409.389 175.453 408.234 176.607 408.234 178.031C408.234 179.455 409.389 180.609 410.812 180.609Z" fill="#129A32"/>
<path d="M404.281 228.047C405.705 228.047 406.859 226.893 406.859 225.469C406.859 224.045 405.705 222.891 404.281 222.891C402.857 222.891 401.703 224.045 401.703 225.469C401.703 226.893 402.857 228.047 404.281 228.047Z" fill="#129A32"/>
<path d="M498.469 215.156C499.893 215.156 501.047 214.002 501.047 212.578C501.047 211.154 499.893 210 498.469 210C497.045 210 495.891 211.154 495.891 212.578C495.891 214.002 497.045 215.156 498.469 215.156Z" fill="#129A32"/>
<path d="M495.891 198.656C497.314 198.656 498.469 197.502 498.469 196.078C498.469 194.654 497.314 193.5 495.891 193.5C494.467 193.5 493.312 194.654 493.312 196.078C493.312 197.502 494.467 198.656 495.891 198.656Z" fill="#129A32"/>
<path d="M495.891 187.656C497.314 187.656 498.469 186.502 498.469 185.078C498.469 183.654 497.314 182.5 495.891 182.5C494.467 182.5 493.312 183.654 493.312 185.078C493.312 186.502 494.467 187.656 495.891 187.656Z" fill="#129A32"/>
<path d="M488.156 176.484C489.58 176.484 490.734 175.33 490.734 173.906C490.734 172.482 489.58 171.328 488.156 171.328C486.732 171.328 485.578 172.482 485.578 173.906C485.578 175.33 486.732 176.484 488.156 176.484Z" fill="#129A32"/>
<path d="M480.766 166C482.189 166 483.344 164.846 483.344 163.422C483.344 161.998 482.189 160.844 480.766 160.844C479.342 160.844 478.188 161.998 478.188 163.422C478.188 164.846 479.342 166 480.766 166Z" fill="#129A32"/>
<path d="M469.938 168.578C471.361 168.578 472.516 167.424 472.516 166C472.516 164.576 471.361 163.422 469.938 163.422C468.514 163.422 467.359 164.576 467.359 166C467.359 167.424 468.514 168.578 469.938 168.578Z" fill="#129A32"/>
<path d="M441.234 163.422C442.658 163.422 443.812 162.268 443.812 160.844C443.812 159.42 442.658 158.266 441.234 158.266C439.811 158.266 438.656 159.42 438.656 160.844C438.656 162.268 439.811 163.422 441.234 163.422Z" fill="#129A32"/>
<path d="M426.281 168.578C427.705 168.578 428.859 167.424 428.859 166C428.859 164.576 427.705 163.422 426.281 163.422C424.857 163.422 423.703 164.576 423.703 166C423.703 167.424 424.857 168.578 426.281 168.578Z" fill="#129A32"/>
<path d="M421.125 176.484C422.549 176.484 423.703 175.33 423.703 173.906C423.703 172.482 422.549 171.328 421.125 171.328C419.701 171.328 418.547 172.482 418.547 173.906C418.547 175.33 419.701 176.484 421.125 176.484Z" fill="#129A32"/>
<path d="M456.703 158.266C458.127 158.266 459.281 157.111 459.281 155.688C459.281 154.264 458.127 153.109 456.703 153.109C455.279 153.109 454.125 154.264 454.125 155.688C454.125 157.111 455.279 158.266 456.703 158.266Z" fill="#129A32"/>
<path d="M413.906 187.656C415.33 187.656 416.484 186.502 416.484 185.078C416.484 183.654 415.33 182.5 413.906 182.5C412.482 182.5 411.328 183.654 411.328 185.078C411.328 186.502 412.482 187.656 413.906 187.656Z" fill="#129A32"/>
<path d="M404.281 187.656C405.705 187.656 406.859 186.502 406.859 185.078C406.859 183.654 405.705 182.5 404.281 182.5C402.857 182.5 401.703 183.654 401.703 185.078C401.703 186.502 402.857 187.656 404.281 187.656Z" fill="#129A32"/>
<path d="M413.391 173.734C414.814 173.734 415.969 172.58 415.969 171.156C415.969 169.732 414.814 168.578 413.391 168.578C411.967 168.578 410.812 169.732 410.812 171.156C410.812 172.58 411.967 173.734 413.391 173.734Z" fill="#129A32"/>
<path d="M404.281 212.578C405.705 212.578 406.859 211.424 406.859 210C406.859 208.576 405.705 207.422 404.281 207.422C402.857 207.422 401.703 208.576 401.703 210C401.703 211.424 402.857 212.578 404.281 212.578Z" fill="#129A32"/>
<path d="M399.125 232.516C400.549 232.516 401.703 231.361 401.703 229.938C401.703 228.514 400.549 227.359 399.125 227.359C397.701 227.359 396.547 228.514 396.547 229.938C396.547 231.361 397.701 232.516 399.125 232.516Z" fill="#129A32"/>
<path d="M408.75 235.094C410.174 235.094 411.328 233.939 411.328 232.516C411.328 231.092 410.174 229.938 408.75 229.938C407.326 229.938 406.172 231.092 406.172 232.516C406.172 233.939 407.326 235.094 408.75 235.094Z" fill="#129A32"/>
<path d="M408.75 244.203C410.174 244.203 411.328 243.049 411.328 241.625C411.328 240.201 410.174 239.047 408.75 239.047C407.326 239.047 406.172 240.201 406.172 241.625C406.172 243.049 407.326 244.203 408.75 244.203Z" fill="#129A32"/>
<path d="M411.328 244.203C412.752 244.203 413.906 243.049 413.906 241.625C413.906 240.201 412.752 239.047 411.328 239.047C409.904 239.047 408.75 240.201 408.75 241.625C408.75 243.049 409.904 244.203 411.328 244.203Z" fill="#129A32"/>
<path d="M438.656 261.047C440.08 261.047 441.234 259.893 441.234 258.469C441.234 257.045 440.08 255.891 438.656 255.891C437.232 255.891 436.078 257.045 436.078 258.469C436.078 259.893 437.232 261.047 438.656 261.047Z" fill="#129A32"/>
<path d="M399.125 203.812C400.549 203.812 401.703 202.658 401.703 201.234C401.703 199.811 400.549 198.656 399.125 198.656C397.701 198.656 396.547 199.811 396.547 201.234C396.547 202.658 397.701 203.812 399.125 203.812Z" fill="#129A32"/>
<path d="M418.547 251.938C419.971 251.938 421.125 250.783 421.125 249.359C421.125 247.936 419.971 246.781 418.547 246.781C417.123 246.781 415.969 247.936 415.969 249.359C415.969 250.783 417.123 251.938 418.547 251.938Z" fill="#129A32"/>
<path d="M325.047 303.5C326.471 303.5 327.625 302.346 327.625 300.922C327.625 299.498 326.471 298.344 325.047 298.344C323.623 298.344 322.469 299.498 322.469 300.922C322.469 302.346 323.623 303.5 325.047 303.5Z" fill="#DD2714"/>
<path d="M314.734 291.125C316.158 291.125 317.312 289.971 317.312 288.547C317.312 287.123 316.158 285.969 314.734 285.969C313.311 285.969 312.156 287.123 312.156 288.547C312.156 289.971 313.311 291.125 314.734 291.125Z" fill="#DD2714"/>
<path d="M303.391 261.047C304.814 261.047 305.969 259.893 305.969 258.469C305.969 257.045 304.814 255.891 303.391 255.891C301.967 255.891 300.812 257.045 300.812 258.469C300.812 259.893 301.967 261.047 303.391 261.047Z" fill="#DD2714"/>
<path d="M300.812 229.938C302.236 229.938 303.391 228.783 303.391 227.359C303.391 225.936 302.236 224.781 300.812 224.781C299.389 224.781 298.234 225.936 298.234 227.359C298.234 228.783 299.389 229.938 300.812 229.938Z" fill="#DD2714"/>
<path d="M296.344 198.656C297.768 198.656 298.922 197.502 298.922 196.078C298.922 194.654 297.768 193.5 296.344 193.5C294.92 193.5 293.766 194.654 293.766 196.078C293.766 197.502 294.92 198.656 296.344 198.656Z" fill="#DD2714"/>
<path d="M296.344 210.688C297.768 210.688 298.922 209.533 298.922 208.109C298.922 206.686 297.768 205.531 296.344 205.531C294.92 205.531 293.766 206.686 293.766 208.109C293.766 209.533 294.92 210.688 296.344 210.688Z" fill="#DD2714"/>
<path d="M293.766 220.312C295.189 220.312 296.344 219.158 296.344 217.734C296.344 216.311 295.189 215.156 293.766 215.156C292.342 215.156 291.188 216.311 291.188 217.734C291.188 219.158 292.342 220.312 293.766 220.312Z" fill="#DD2714"/>
<path d="M293.766 230.625C295.189 230.625 296.344 229.471 296.344 228.047C296.344 226.623 295.189 225.469 293.766 225.469C292.342 225.469 291.188 226.623 291.188 228.047C291.188 229.471 292.342 230.625 293.766 230.625Z" fill="#DD2714"/>
<path d="M301.5 238.359C302.924 238.359 304.078 237.205 304.078 235.781C304.078 234.357 302.924 233.203 301.5 233.203C300.076 233.203 298.922 234.357 298.922 235.781C298.922 237.205 300.076 238.359 301.5 238.359Z" fill="#DD2714"/>
<path d="M298.234 253.141C299.658 253.141 300.812 251.986 300.812 250.562C300.812 249.139 299.658 247.984 298.234 247.984C296.811 247.984 295.656 249.139 295.656 250.562C295.656 251.986 296.811 253.141 298.234 253.141Z" fill="#DD2714"/>
<path d="M312.156 264.828C313.58 264.828 314.734 263.674 314.734 262.25C314.734 260.826 313.58 259.672 312.156 259.672C310.732 259.672 309.578 260.826 309.578 262.25C309.578 263.674 310.732 264.828 312.156 264.828Z" fill="#DD2714"/>
<path d="M293.766 190.234C295.189 190.234 296.344 189.08 296.344 187.656C296.344 186.232 295.189 185.078 293.766 185.078C292.342 185.078 291.188 186.232 291.188 187.656C291.188 189.08 292.342 190.234 293.766 190.234Z" fill="#DD2714"/>
<path d="M301.5 185.766C302.924 185.766 304.078 184.611 304.078 183.188C304.078 181.764 302.924 180.609 301.5 180.609C300.076 180.609 298.922 181.764 298.922 183.188C298.922 184.611 300.076 185.766 301.5 185.766Z" fill="#DD2714"/>
<path d="M300.812 166C302.236 166 303.391 164.846 303.391 163.422C303.391 161.998 302.236 160.844 300.812 160.844C299.389 160.844 298.234 161.998 298.234 163.422C298.234 164.846 299.389 166 300.812 166Z" fill="#DD2714"/>
<path d="M327.625 116.328C329.049 116.328 330.203 115.174 330.203 113.75C330.203 112.326 329.049 111.172 327.625 111.172C326.201 111.172 325.047 112.326 325.047 113.75C325.047 115.174 326.201 116.328 327.625 116.328Z" fill="#DD2714"/>
<path d="M309.578 147.438C311.002 147.438 312.156 146.283 312.156 144.859C312.156 143.436 311.002 142.281 309.578 142.281C308.154 142.281 307 143.436 307 144.859C307 146.283 308.154 147.438 309.578 147.438Z" fill="#DD2714"/>
<path d="M314.734 136.953C316.158 136.953 317.312 135.799 317.312 134.375C317.312 132.951 316.158 131.797 314.734 131.797C313.311 131.797 312.156 132.951 312.156 134.375C312.156 135.799 313.311 136.953 314.734 136.953Z" fill="#DD2714"/>
<path d="M325.047 129.562C326.471 129.562 327.625 128.408 327.625 126.984C327.625 125.561 326.471 124.406 325.047 124.406C323.623 124.406 322.469 125.561 322.469 126.984C322.469 128.408 323.623 129.562 325.047 129.562Z" fill="#DD2714"/>
<path d="M336.734 107.562C338.158 107.562 339.312 106.408 339.312 104.984C339.312 103.561 338.158 102.406 336.734 102.406C335.311 102.406 334.156 103.561 334.156 104.984C334.156 106.408 335.311 107.562 336.734 107.562Z" fill="#DD2714"/>
<path d="M305.969 155.688C307.393 155.688 308.547 154.533 308.547 153.109C308.547 151.686 307.393 150.531 305.969 150.531C304.545 150.531 303.391 151.686 303.391 153.109C303.391 154.533 304.545 155.688 305.969 155.688Z" fill="#DD2714"/>
<path d="M317.312 144.859C318.736 144.859 319.891 143.705 319.891 142.281C319.891 140.857 318.736 139.703 317.312 139.703C315.889 139.703 314.734 140.857 314.734 142.281C314.734 143.705 315.889 144.859 317.312 144.859Z" fill="#DD2714"/>
<path d="M296.344 178.891C297.768 178.891 298.922 177.736 298.922 176.312C298.922 174.889 297.768 173.734 296.344 173.734C294.92 173.734 293.766 174.889 293.766 176.312C293.766 177.736 294.92 178.891 296.344 178.891Z" fill="#DD2714"/>
<path d="M304.422 175.453C305.846 175.453 307 174.299 307 172.875C307 171.451 305.846 170.297 304.422 170.297C302.998 170.297 301.844 171.451 301.844 172.875C301.844 174.299 302.998 175.453 304.422 175.453Z" fill="#DD2714"/>
<path d="M308.547 163.422C309.971 163.422 311.125 162.268 311.125 160.844C311.125 159.42 309.971 158.266 308.547 158.266C307.123 158.266 305.969 159.42 305.969 160.844C305.969 162.268 307.123 163.422 308.547 163.422Z" fill="#DD2714"/>
<path d="M313.703 124.406C315.127 124.406 316.281 123.252 316.281 121.828C316.281 120.404 315.127 119.25 313.703 119.25C312.279 119.25 311.125 120.404 311.125 121.828C311.125 123.252 312.279 124.406 313.703 124.406Z" fill="#DD2714"/>
<path d="M349.453 104.984C350.877 104.984 352.031 103.83 352.031 102.406C352.031 100.982 350.877 99.8281 349.453 99.8281C348.029 99.8281 346.875 100.982 346.875 102.406C346.875 103.83 348.029 104.984 349.453 104.984Z" fill="#DD2714"/>
<path d="M357.703 88.3125C359.127 88.3125 360.281 87.1582 360.281 85.7344C360.281 84.3105 359.127 83.1562 357.703 83.1562C356.279 83.1562 355.125 84.3105 355.125 85.7344C355.125 87.1582 356.279 88.3125 357.703 88.3125Z" fill="#DD2714"/>
<path d="M381.422 79.7188C382.846 79.7188 384 78.5645 384 77.1406C384 75.7168 382.846 74.5625 381.422 74.5625C379.998 74.5625 378.844 75.7168 378.844 77.1406C378.844 78.5645 379.998 79.7188 381.422 79.7188Z" fill="#DD2714"/>
<path d="M396.547 69.4062C397.971 69.4062 399.125 68.252 399.125 66.8281C399.125 65.4043 397.971 64.25 396.547 64.25C395.123 64.25 393.969 65.4043 393.969 66.8281C393.969 68.252 395.123 69.4062 396.547 69.4062Z" fill="#DD2714"/>
<path d="M401.016 61.6719C402.439 61.6719 403.594 60.5176 403.594 59.0938C403.594 57.6699 402.439 56.5156 401.016 56.5156C399.592 56.5156 398.438 57.6699 398.438 59.0938C398.438 60.5176 399.592 61.6719 401.016 61.6719Z" fill="#DD2714"/>
<path d="M419.062 61.5C420.486 61.5 421.641 60.3457 421.641 58.9219C421.641 57.498 420.486 56.3438 419.062 56.3438C417.639 56.3438 416.484 57.498 416.484 58.9219C416.484 60.3457 417.639 61.5 419.062 61.5Z" fill="#DD2714"/>
<path d="M448.969 61.5C450.393 61.5 451.547 60.3457 451.547 58.9219C451.547 57.498 450.393 56.3438 448.969 56.3438C447.545 56.3438 446.391 57.498 446.391 58.9219C446.391 60.3457 447.545 61.5 448.969 61.5Z" fill="#DD2714"/>
<path d="M479.562 61.5C480.986 61.5 482.141 60.3457 482.141 58.9219C482.141 57.498 480.986 56.3438 479.562 56.3438C478.139 56.3438 476.984 57.498 476.984 58.9219C476.984 60.3457 478.139 61.5 479.562 61.5Z" fill="#DD2714"/>
<path d="M464.609 56.3438C466.033 56.3438 467.188 55.1895 467.188 53.7656C467.188 52.3418 466.033 51.1875 464.609 51.1875C463.186 51.1875 462.031 52.3418 462.031 53.7656C462.031 55.1895 463.186 56.3438 464.609 56.3438Z" fill="#DD2714"/>
<path d="M436.078 56.3438C437.502 56.3438 438.656 55.1895 438.656 53.7656C438.656 52.3418 437.502 51.1875 436.078 51.1875C434.654 51.1875 433.5 52.3418 433.5 53.7656C433.5 55.1895 434.654 56.3438 436.078 56.3438Z" fill="#DD2714"/>
<path d="M430.234 61.5C431.658 61.5 432.812 60.3457 432.812 58.9219C432.812 57.498 431.658 56.3438 430.234 56.3438C428.811 56.3438 427.656 57.498 427.656 58.9219C427.656 60.3457 428.811 61.5 430.234 61.5Z" fill="#DD2714"/>
<path d="M409.438 61.5C410.861 61.5 412.016 60.3457 412.016 58.9219C412.016 57.498 410.861 56.3438 409.438 56.3438C408.014 56.3438 406.859 57.498 406.859 58.9219C406.859 60.3457 408.014 61.5 409.438 61.5Z" fill="#DD2714"/>
<path d="M406.859 66.8281C408.283 66.8281 409.438 65.6739 409.438 64.25C409.438 62.8261 408.283 61.6719 406.859 61.6719C405.436 61.6719 404.281 62.8261 404.281 64.25C404.281 65.6739 405.436 66.8281 406.859 66.8281Z" fill="#DD2714"/>
<path d="M384 71.9844C385.424 71.9844 386.578 70.8301 386.578 69.4062C386.578 67.9824 385.424 66.8281 384 66.8281C382.576 66.8281 381.422 67.9824 381.422 69.4062C381.422 70.8301 382.576 71.9844 384 71.9844Z" fill="#DD2714"/>
<path d="M391.391 74.5625C392.814 74.5625 393.969 73.4082 393.969 71.9844C393.969 70.5605 392.814 69.4062 391.391 69.4062C389.967 69.4062 388.812 70.5605 388.812 71.9844C388.812 73.4082 389.967 74.5625 391.391 74.5625Z" fill="#DD2714"/>
<path d="M370.594 79.7188C372.018 79.7188 373.172 78.5645 373.172 77.1406C373.172 75.7168 372.018 74.5625 370.594 74.5625C369.17 74.5625 368.016 75.7168 368.016 77.1406C368.016 78.5645 369.17 79.7188 370.594 79.7188Z" fill="#DD2714"/>
<path d="M365.438 90.8906C366.861 90.8906 368.016 89.7364 368.016 88.3125C368.016 86.8886 366.861 85.7344 365.438 85.7344C364.014 85.7344 362.859 86.8886 362.859 88.3125C362.859 89.7364 364.014 90.8906 365.438 90.8906Z" fill="#DD2714"/>
<path d="M362.859 79.7188C364.283 79.7188 365.438 78.5645 365.438 77.1406C365.438 75.7168 364.283 74.5625 362.859 74.5625C361.436 74.5625 360.281 75.7168 360.281 77.1406C360.281 78.5645 361.436 79.7188 362.859 79.7188Z" fill="#DD2714"/>
<path d="M346.875 96.0469C348.299 96.0469 349.453 94.8926 349.453 93.4688C349.453 92.0449 348.299 90.8906 346.875 90.8906C345.451 90.8906 344.297 92.0449 344.297 93.4688C344.297 94.8926 345.451 96.0469 346.875 96.0469Z" fill="#DD2714"/>
<path d="M355.125 98.625C356.549 98.625 357.703 97.4707 357.703 96.0469C357.703 94.623 356.549 93.4688 355.125 93.4688C353.701 93.4688 352.547 94.623 352.547 96.0469C352.547 97.4707 353.701 98.625 355.125 98.625Z" fill="#DD2714"/>
<path d="M341.891 113.75C343.314 113.75 344.469 112.596 344.469 111.172C344.469 109.748 343.314 108.594 341.891 108.594C340.467 108.594 339.312 109.748 339.312 111.172C339.312 112.596 340.467 113.75 341.891 113.75Z" fill="#DD2714"/>
<path d="M334.156 119.25C335.58 119.25 336.734 118.096 336.734 116.672C336.734 115.248 335.58 114.094 334.156 114.094C332.732 114.094 331.578 115.248 331.578 116.672C331.578 118.096 332.732 119.25 334.156 119.25Z" fill="#DD2714"/>
<path d="M475.609 51.1875C477.033 51.1875 478.188 50.0332 478.188 48.6094C478.188 47.1855 477.033 46.0312 475.609 46.0312C474.186 46.0312 473.031 47.1855 473.031 48.6094C473.031 50.0332 474.186 51.1875 475.609 51.1875Z" fill="#DD2714"/>
<path d="M450 53.7656C451.424 53.7656 452.578 52.6114 452.578 51.1875C452.578 49.7636 451.424 48.6094 450 48.6094C448.576 48.6094 447.422 49.7636 447.422 51.1875C447.422 52.6114 448.576 53.7656 450 53.7656Z" fill="#DD2714"/>
<path d="M493.312 69.4062C494.736 69.4062 495.891 68.252 495.891 66.8281C495.891 65.4043 494.736 64.25 493.312 64.25C491.889 64.25 490.734 65.4043 490.734 66.8281C490.734 68.252 491.889 69.4062 493.312 69.4062Z" fill="#DD2714"/>
<path d="M506.203 64.0781C507.627 64.0781 508.781 62.9239 508.781 61.5C508.781 60.0761 507.627 58.9219 506.203 58.9219C504.779 58.9219 503.625 60.0761 503.625 61.5C503.625 62.9239 504.779 64.0781 506.203 64.0781Z" fill="#DD2714"/>
<path d="M506.203 74.5625C507.627 74.5625 508.781 73.4082 508.781 71.9844C508.781 70.5605 507.627 69.4062 506.203 69.4062C504.779 69.4062 503.625 70.5605 503.625 71.9844C503.625 73.4082 504.779 74.5625 506.203 74.5625Z" fill="#DD2714"/>
<path d="M492.969 61.5C494.393 61.5 495.547 60.3457 495.547 58.9219C495.547 57.498 494.393 56.3438 492.969 56.3438C491.545 56.3438 490.391 57.498 490.391 58.9219C490.391 60.3457 491.545 61.5 492.969 61.5Z" fill="#DD2714"/>
<path d="M527.172 74.5625C528.596 74.5625 529.75 73.4082 529.75 71.9844C529.75 70.5605 528.596 69.4062 527.172 69.4062C525.748 69.4062 524.594 70.5605 524.594 71.9844C524.594 73.4082 525.748 74.5625 527.172 74.5625Z" fill="#DD2714"/>
<path d="M516.688 71.9844C518.111 71.9844 519.266 70.8301 519.266 69.4062C519.266 67.9824 518.111 66.8281 516.688 66.8281C515.264 66.8281 514.109 67.9824 514.109 69.4062C514.109 70.8301 515.264 71.9844 516.688 71.9844Z" fill="#DD2714"/>
<path d="M525.797 82.2969C527.221 82.2969 528.375 81.1426 528.375 79.7188C528.375 78.2949 527.221 77.1406 525.797 77.1406C524.373 77.1406 523.219 78.2949 523.219 79.7188C523.219 81.1426 524.373 82.2969 525.797 82.2969Z" fill="#DD2714"/>
<path d="M545.562 84.875C546.986 84.875 548.141 83.7207 548.141 82.2969C548.141 80.873 546.986 79.7188 545.562 79.7188C544.139 79.7188 542.984 80.873 542.984 82.2969C542.984 83.7207 544.139 84.875 545.562 84.875Z" fill="#DD2714"/>
<path d="M533.875 84.875C535.299 84.875 536.453 83.7207 536.453 82.2969C536.453 80.873 535.299 79.7188 533.875 79.7188C532.451 79.7188 531.297 80.873 531.297 82.2969C531.297 83.7207 532.451 84.875 533.875 84.875Z" fill="#DD2714"/>
<path d="M564.125 107.219C565.549 107.219 566.703 106.064 566.703 104.641C566.703 103.217 565.549 102.062 564.125 102.062C562.701 102.062 561.547 103.217 561.547 104.641C561.547 106.064 562.701 107.219 564.125 107.219Z" fill="#DD2714"/>
<path d="M550.719 96.9062C552.143 96.9062 553.297 95.752 553.297 94.3281C553.297 92.9043 552.143 91.75 550.719 91.75C549.295 91.75 548.141 92.9043 548.141 94.3281C548.141 95.752 549.295 96.9062 550.719 96.9062Z" fill="#DD2714"/>
<path d="M560.172 99.4844C561.596 99.4844 562.75 98.3301 562.75 96.9062C562.75 95.4824 561.596 94.3281 560.172 94.3281C558.748 94.3281 557.594 95.4824 557.594 96.9062C557.594 98.3301 558.748 99.4844 560.172 99.4844Z" fill="#DD2714"/>
<path d="M566.703 118.562C568.127 118.562 569.281 117.408 569.281 115.984C569.281 114.561 568.127 113.406 566.703 113.406C565.279 113.406 564.125 114.561 564.125 115.984C564.125 117.408 565.279 118.562 566.703 118.562Z" fill="#DD2714"/>
<path d="M576.672 121.141C578.096 121.141 579.25 119.986 579.25 118.562C579.25 117.139 578.096 115.984 576.672 115.984C575.248 115.984 574.094 117.139 574.094 118.562C574.094 119.986 575.248 121.141 576.672 121.141Z" fill="#DD2714"/>
<path d="M579.25 131.281C580.674 131.281 581.828 130.127 581.828 128.703C581.828 127.279 580.674 126.125 579.25 126.125C577.826 126.125 576.672 127.279 576.672 128.703C576.672 130.127 577.826 131.281 579.25 131.281Z" fill="#DD2714"/>
<path d="M588.016 142.109C589.439 142.109 590.594 140.955 590.594 139.531C590.594 138.107 589.439 136.953 588.016 136.953C586.592 136.953 585.438 138.107 585.438 139.531C585.438 140.955 586.592 142.109 588.016 142.109Z" fill="#DD2714"/>
<path d="M595.75 173.906C597.174 173.906 598.328 172.752 598.328 171.328C598.328 169.904 597.174 168.75 595.75 168.75C594.326 168.75 593.172 169.904 593.172 171.328C593.172 172.752 594.326 173.906 595.75 173.906Z" fill="#DD2714"/>
<path d="M593.172 153.109C594.596 153.109 595.75 151.955 595.75 150.531C595.75 149.107 594.596 147.953 593.172 147.953C591.748 147.953 590.594 149.107 590.594 150.531C590.594 151.955 591.748 153.109 593.172 153.109Z" fill="#DD2714"/>
<path d="M606.406 196.078C607.83 196.078 608.984 194.924 608.984 193.5C608.984 192.076 607.83 190.922 606.406 190.922C604.982 190.922 603.828 192.076 603.828 193.5C603.828 194.924 604.982 196.078 606.406 196.078Z" fill="#DD2714"/>
<path d="M601.25 185.766C602.674 185.766 603.828 184.611 603.828 183.188C603.828 181.764 602.674 180.609 601.25 180.609C599.826 180.609 598.672 181.764 598.672 183.188C598.672 184.611 599.826 185.766 601.25 185.766Z" fill="#DD2714"/>
<path d="M601.25 208.109C602.674 208.109 603.828 206.955 603.828 205.531C603.828 204.107 602.674 202.953 601.25 202.953C599.826 202.953 598.672 204.107 598.672 205.531C598.672 206.955 599.826 208.109 601.25 208.109Z" fill="#DD2714"/>
<path d="M603.828 220.312C605.252 220.312 606.406 219.158 606.406 217.734C606.406 216.311 605.252 215.156 603.828 215.156C602.404 215.156 601.25 216.311 601.25 217.734C601.25 219.158 602.404 220.312 603.828 220.312Z" fill="#DD2714"/>
<path d="M601.25 249.359C602.674 249.359 603.828 248.205 603.828 246.781C603.828 245.357 602.674 244.203 601.25 244.203C599.826 244.203 598.672 245.357 598.672 246.781C598.672 248.205 599.826 249.359 601.25 249.359Z" fill="#DD2714"/>
<path d="M601.25 234.922C602.674 234.922 603.828 233.768 603.828 232.344C603.828 230.92 602.674 229.766 601.25 229.766C599.826 229.766 598.672 230.92 598.672 232.344C598.672 233.768 599.826 234.922 601.25 234.922Z" fill="#DD2714"/>
<path d="M590.594 280.297C592.018 280.297 593.172 279.143 593.172 277.719C593.172 276.295 592.018 275.141 590.594 275.141C589.17 275.141 588.016 276.295 588.016 277.719C588.016 279.143 589.17 280.297 590.594 280.297Z" fill="#DD2714"/>
<path d="M593.172 266.203C594.596 266.203 595.75 265.049 595.75 263.625C595.75 262.201 594.596 261.047 593.172 261.047C591.748 261.047 590.594 262.201 590.594 263.625C590.594 265.049 591.748 266.203 593.172 266.203Z" fill="#DD2714"/>
<path d="M576.672 300.922C578.096 300.922 579.25 299.768 579.25 298.344C579.25 296.92 578.096 295.766 576.672 295.766C575.248 295.766 574.094 296.92 574.094 298.344C574.094 299.768 575.248 300.922 576.672 300.922Z" fill="#DD2714"/>
<path d="M581.828 285.969C583.252 285.969 584.406 284.814 584.406 283.391C584.406 281.967 583.252 280.812 581.828 280.812C580.404 280.812 579.25 281.967 579.25 283.391C579.25 284.814 580.404 285.969 581.828 285.969Z" fill="#DD2714"/>
<path d="M574.094 313.984C575.518 313.984 576.672 312.83 576.672 311.406C576.672 309.982 575.518 308.828 574.094 308.828C572.67 308.828 571.516 309.982 571.516 311.406C571.516 312.83 572.67 313.984 574.094 313.984Z" fill="#DD2714"/>
<path d="M564.812 313.125C566.236 313.125 567.391 311.971 567.391 310.547C567.391 309.123 566.236 307.969 564.812 307.969C563.389 307.969 562.234 309.123 562.234 310.547C562.234 311.971 563.389 313.125 564.812 313.125Z" fill="#DD2714"/>
<path d="M546.078 331.688C547.502 331.688 548.656 330.533 548.656 329.109C548.656 327.686 547.502 326.531 546.078 326.531C544.654 326.531 543.5 327.686 543.5 329.109C543.5 330.533 544.654 331.688 546.078 331.688Z" fill="#DD2714"/>
<path d="M564.812 329.109C566.236 329.109 567.391 327.955 567.391 326.531C567.391 325.107 566.236 323.953 564.812 323.953C563.389 323.953 562.234 325.107 562.234 326.531C562.234 327.955 563.389 329.109 564.812 329.109Z" fill="#DD2714"/>
<path d="M555.359 323.953C556.783 323.953 557.938 322.799 557.938 321.375C557.938 319.951 556.783 318.797 555.359 318.797C553.936 318.797 552.781 319.951 552.781 321.375C552.781 322.799 553.936 323.953 555.359 323.953Z" fill="#DD2714"/>
<path d="M531.125 350.078C532.549 350.078 533.703 348.924 533.703 347.5C533.703 346.076 532.549 344.922 531.125 344.922C529.701 344.922 528.547 346.076 528.547 347.5C528.547 348.924 529.701 350.078 531.125 350.078Z" fill="#DD2714"/>
<path d="M523.734 350.078C525.158 350.078 526.312 348.924 526.312 347.5C526.312 346.076 525.158 344.922 523.734 344.922C522.311 344.922 521.156 346.076 521.156 347.5C521.156 348.924 522.311 350.078 523.734 350.078Z" fill="#DD2714"/>
<path d="M506.203 352.656C507.627 352.656 508.781 351.502 508.781 350.078C508.781 348.654 507.627 347.5 506.203 347.5C504.779 347.5 503.625 348.654 503.625 350.078C503.625 351.502 504.779 352.656 506.203 352.656Z" fill="#DD2714"/>
<path d="M480.25 363.828C481.674 363.828 482.828 362.674 482.828 361.25C482.828 359.826 481.674 358.672 480.25 358.672C478.826 358.672 477.672 359.826 477.672 361.25C477.672 362.674 478.826 363.828 480.25 363.828Z" fill="#DD2714"/>
<path d="M451.547 363.828C452.971 363.828 454.125 362.674 454.125 361.25C454.125 359.826 452.971 358.672 451.547 358.672C450.123 358.672 448.969 359.826 448.969 361.25C448.969 362.674 450.123 363.828 451.547 363.828Z" fill="#DD2714"/>
<path d="M423.703 363.828C425.127 363.828 426.281 362.674 426.281 361.25C426.281 359.826 425.127 358.672 423.703 358.672C422.279 358.672 421.125 359.826 421.125 361.25C421.125 362.674 422.279 363.828 423.703 363.828Z" fill="#DD2714"/>
<path d="M403.594 363.828C405.018 363.828 406.172 362.674 406.172 361.25C406.172 359.826 405.018 358.672 403.594 358.672C402.17 358.672 401.016 359.826 401.016 361.25C401.016 362.674 402.17 363.828 403.594 363.828Z" fill="#DD2714"/>
<path d="M382.109 348.188C383.533 348.188 384.688 347.033 384.688 345.609C384.688 344.186 383.533 343.031 382.109 343.031C380.686 343.031 379.531 344.186 379.531 345.609C379.531 347.033 380.686 348.188 382.109 348.188Z" fill="#DD2714"/>
<path d="M359.25 336.844C360.674 336.844 361.828 335.689 361.828 334.266C361.828 332.842 360.674 331.688 359.25 331.688C357.826 331.688 356.672 332.842 356.672 334.266C356.672 335.689 357.826 336.844 359.25 336.844Z" fill="#DD2714"/>
<path d="M344.469 326.531C345.893 326.531 347.047 325.377 347.047 323.953C347.047 322.529 345.893 321.375 344.469 321.375C343.045 321.375 341.891 322.529 341.891 323.953C341.891 325.377 343.045 326.531 344.469 326.531Z" fill="#DD2714"/>
<path d="M333.984 319.141C335.408 319.141 336.562 317.986 336.562 316.562C336.562 315.139 335.408 313.984 333.984 313.984C332.561 313.984 331.406 315.139 331.406 316.562C331.406 317.986 332.561 319.141 333.984 319.141Z" fill="#DD2714"/>
<path d="M333.984 306.078C335.408 306.078 336.562 304.924 336.562 303.5C336.562 302.076 335.408 300.922 333.984 300.922C332.561 300.922 331.406 302.076 331.406 303.5C331.406 304.924 332.561 306.078 333.984 306.078Z" fill="#DD2714"/>
<path d="M325.047 295.766C326.471 295.766 327.625 294.611 327.625 293.188C327.625 291.764 326.471 290.609 325.047 290.609C323.623 290.609 322.469 291.764 322.469 293.188C322.469 294.611 323.623 295.766 325.047 295.766Z" fill="#DD2714"/>
<path d="M317.312 280.297C318.736 280.297 319.891 279.143 319.891 277.719C319.891 276.295 318.736 275.141 317.312 275.141C315.889 275.141 314.734 276.295 314.734 277.719C314.734 279.143 315.889 280.297 317.312 280.297Z" fill="#DD2714"/>
<path d="M305.969 272.562C307.393 272.562 308.547 271.408 308.547 269.984C308.547 268.561 307.393 267.406 305.969 267.406C304.545 267.406 303.391 268.561 303.391 269.984C303.391 271.408 304.545 272.562 305.969 272.562Z" fill="#DD2714"/>
<path d="M303.391 246.781C304.814 246.781 305.969 245.627 305.969 244.203C305.969 242.779 304.814 241.625 303.391 241.625C301.967 241.625 300.812 242.779 300.812 244.203C300.812 245.627 301.967 246.781 303.391 246.781Z" fill="#DD2714"/>
<path d="M309.578 280.297C311.002 280.297 312.156 279.143 312.156 277.719C312.156 276.295 311.002 275.141 309.578 275.141C308.154 275.141 307 276.295 307 277.719C307 279.143 308.154 280.297 309.578 280.297Z" fill="#DD2714"/>
<path d="M339.312 313.984C340.736 313.984 341.891 312.83 341.891 311.406C341.891 309.982 340.736 308.828 339.312 308.828C337.889 308.828 336.734 309.982 336.734 311.406C336.734 312.83 337.889 313.984 339.312 313.984Z" fill="#DD2714"/>
<path d="M351.688 326.531C353.111 326.531 354.266 325.377 354.266 323.953C354.266 322.529 353.111 321.375 351.688 321.375C350.264 321.375 349.109 322.529 349.109 323.953C349.109 325.377 350.264 326.531 351.688 326.531Z" fill="#DD2714"/>
<path d="M371.797 347.5C373.221 347.5 374.375 346.346 374.375 344.922C374.375 343.498 373.221 342.344 371.797 342.344C370.373 342.344 369.219 343.498 369.219 344.922C369.219 346.346 370.373 347.5 371.797 347.5Z" fill="#DD2714"/>
<path d="M369.219 336.844C370.643 336.844 371.797 335.689 371.797 334.266C371.797 332.842 370.643 331.688 369.219 331.688C367.795 331.688 366.641 332.842 366.641 334.266C366.641 335.689 367.795 336.844 369.219 336.844Z" fill="#DD2714"/>
<path d="M388.984 358.672C390.408 358.672 391.562 357.518 391.562 356.094C391.562 354.67 390.408 353.516 388.984 353.516C387.561 353.516 386.406 354.67 386.406 356.094C386.406 357.518 387.561 358.672 388.984 358.672Z" fill="#DD2714"/>
<path d="M388.984 350.078C390.408 350.078 391.562 348.924 391.562 347.5C391.562 346.076 390.408 344.922 388.984 344.922C387.561 344.922 386.406 346.076 386.406 347.5C386.406 348.924 387.561 350.078 388.984 350.078Z" fill="#DD2714"/>
<path d="M399.125 353.344C400.549 353.344 401.703 352.189 401.703 350.766C401.703 349.342 400.549 348.188 399.125 348.188C397.701 348.188 396.547 349.342 396.547 350.766C396.547 352.189 397.701 353.344 399.125 353.344Z" fill="#DD2714"/>
<path d="M413.906 361.25C415.33 361.25 416.484 360.096 416.484 358.672C416.484 357.248 415.33 356.094 413.906 356.094C412.482 356.094 411.328 357.248 411.328 358.672C411.328 360.096 412.482 361.25 413.906 361.25Z" fill="#DD2714"/>
<path d="M413.906 368.984C415.33 368.984 416.484 367.83 416.484 366.406C416.484 364.982 415.33 363.828 413.906 363.828C412.482 363.828 411.328 364.982 411.328 366.406C411.328 367.83 412.482 368.984 413.906 368.984Z" fill="#DD2714"/>
<path d="M437.109 366.406C438.533 366.406 439.688 365.252 439.688 363.828C439.688 362.404 438.533 361.25 437.109 361.25C435.686 361.25 434.531 362.404 434.531 363.828C434.531 365.252 435.686 366.406 437.109 366.406Z" fill="#DD2714"/>
<path d="M451.547 371.562C452.971 371.562 454.125 370.408 454.125 368.984C454.125 367.561 452.971 366.406 451.547 366.406C450.123 366.406 448.969 367.561 448.969 368.984C448.969 370.408 450.123 371.562 451.547 371.562Z" fill="#DD2714"/>
<path d="M464.953 363.828C466.377 363.828 467.531 362.674 467.531 361.25C467.531 359.826 466.377 358.672 464.953 358.672C463.529 358.672 462.375 359.826 462.375 361.25C462.375 362.674 463.529 363.828 464.953 363.828Z" fill="#DD2714"/>
<path d="M428.859 368.984C430.283 368.984 431.438 367.83 431.438 366.406C431.438 364.982 430.283 363.828 428.859 363.828C427.436 363.828 426.281 364.982 426.281 366.406C426.281 367.83 427.436 368.984 428.859 368.984Z" fill="#DD2714"/>
<path d="M472.516 371.562C473.939 371.562 475.094 370.408 475.094 368.984C475.094 367.561 473.939 366.406 472.516 366.406C471.092 366.406 469.938 367.561 469.938 368.984C469.938 370.408 471.092 371.562 472.516 371.562Z" fill="#DD2714"/>
<path d="M493.312 357.812C494.736 357.812 495.891 356.658 495.891 355.234C495.891 353.811 494.736 352.656 493.312 352.656C491.889 352.656 490.734 353.811 490.734 355.234C490.734 356.658 491.889 357.812 493.312 357.812Z" fill="#DD2714"/>
<path d="M487.469 368.984C488.893 368.984 490.047 367.83 490.047 366.406C490.047 364.982 488.893 363.828 487.469 363.828C486.045 363.828 484.891 364.982 484.891 366.406C484.891 367.83 486.045 368.984 487.469 368.984Z" fill="#DD2714"/>
<path d="M500.359 363.828C501.783 363.828 502.938 362.674 502.938 361.25C502.938 359.826 501.783 358.672 500.359 358.672C498.936 358.672 497.781 359.826 497.781 361.25C497.781 362.674 498.936 363.828 500.359 363.828Z" fill="#DD2714"/>
<path d="M515.656 361.25C517.08 361.25 518.234 360.096 518.234 358.672C518.234 357.248 517.08 356.094 515.656 356.094C514.232 356.094 513.078 357.248 513.078 358.672C513.078 360.096 514.232 361.25 515.656 361.25Z" fill="#DD2714"/>
<path d="M516.344 350.766C517.768 350.766 518.922 349.611 518.922 348.188C518.922 346.764 517.768 345.609 516.344 345.609C514.92 345.609 513.766 346.764 513.766 348.188C513.766 349.611 514.92 350.766 516.344 350.766Z" fill="#DD2714"/>
<path d="M533.703 339.422C535.127 339.422 536.281 338.268 536.281 336.844C536.281 335.42 535.127 334.266 533.703 334.266C532.279 334.266 531.125 335.42 531.125 336.844C531.125 338.268 532.279 339.422 533.703 339.422Z" fill="#DD2714"/>
<path d="M548.656 344.578C550.08 344.578 551.234 343.424 551.234 342C551.234 340.576 550.08 339.422 548.656 339.422C547.232 339.422 546.078 340.576 546.078 342C546.078 343.424 547.232 344.578 548.656 344.578Z" fill="#DD2714"/>
<path d="M541.266 343.031C542.689 343.031 543.844 341.877 543.844 340.453C543.844 339.029 542.689 337.875 541.266 337.875C539.842 337.875 538.688 339.029 538.688 340.453C538.688 341.877 539.842 343.031 541.266 343.031Z" fill="#DD2714"/>
<path d="M555.359 334.266C556.783 334.266 557.938 333.111 557.938 331.688C557.938 330.264 556.783 329.109 555.359 329.109C553.936 329.109 552.781 330.264 552.781 331.688C552.781 333.111 553.936 334.266 555.359 334.266Z" fill="#DD2714"/>
<path d="M567.391 321.203C568.814 321.203 569.969 320.049 569.969 318.625C569.969 317.201 568.814 316.047 567.391 316.047C565.967 316.047 564.812 317.201 564.812 318.625C564.812 320.049 565.967 321.203 567.391 321.203Z" fill="#DD2714"/>
<path d="M568.938 305.219C570.361 305.219 571.516 304.064 571.516 302.641C571.516 301.217 570.361 300.062 568.938 300.062C567.514 300.062 566.359 301.217 566.359 302.641C566.359 304.064 567.514 305.219 568.938 305.219Z" fill="#DD2714"/>
<path d="M588.016 295.766C589.439 295.766 590.594 294.611 590.594 293.188C590.594 291.764 589.439 290.609 588.016 290.609C586.592 290.609 585.438 291.764 585.438 293.188C585.438 294.611 586.592 295.766 588.016 295.766Z" fill="#DD2714"/>
<path d="M596.094 275.141C597.518 275.141 598.672 273.986 598.672 272.562C598.672 271.139 597.518 269.984 596.094 269.984C594.67 269.984 593.516 271.139 593.516 272.562C593.516 273.986 594.67 275.141 596.094 275.141Z" fill="#DD2714"/>
<path d="M595.75 257.266C597.174 257.266 598.328 256.111 598.328 254.688C598.328 253.264 597.174 252.109 595.75 252.109C594.326 252.109 593.172 253.264 593.172 254.688C593.172 256.111 594.326 257.266 595.75 257.266Z" fill="#DD2714"/>
<path d="M601.25 261.047C602.674 261.047 603.828 259.893 603.828 258.469C603.828 257.045 602.674 255.891 601.25 255.891C599.826 255.891 598.672 257.045 598.672 258.469C598.672 259.893 599.826 261.047 601.25 261.047Z" fill="#DD2714"/>
<path d="M607.609 241.625C609.033 241.625 610.188 240.471 610.188 239.047C610.188 237.623 609.033 236.469 607.609 236.469C606.186 236.469 605.031 237.623 605.031 239.047C605.031 240.471 606.186 241.625 607.609 241.625Z" fill="#DD2714"/>
<path d="M610.188 228.047C611.611 228.047 612.766 226.893 612.766 225.469C612.766 224.045 611.611 222.891 610.188 222.891C608.764 222.891 607.609 224.045 607.609 225.469C607.609 226.893 608.764 228.047 610.188 228.047Z" fill="#DD2714"/>
<path d="M614.312 210.688C615.736 210.688 616.891 209.533 616.891 208.109C616.891 206.686 615.736 205.531 614.312 205.531C612.889 205.531 611.734 206.686 611.734 208.109C611.734 209.533 612.889 210.688 614.312 210.688Z" fill="#DD2714"/>
<path d="M598.328 198.656C599.752 198.656 600.906 197.502 600.906 196.078C600.906 194.654 599.752 193.5 598.328 193.5C596.904 193.5 595.75 194.654 595.75 196.078C595.75 197.502 596.904 198.656 598.328 198.656Z" fill="#DD2714"/>
<path d="M605.031 173.562C606.455 173.562 607.609 172.408 607.609 170.984C607.609 169.561 606.455 168.406 605.031 168.406C603.607 168.406 602.453 169.561 602.453 170.984C602.453 172.408 603.607 173.562 605.031 173.562Z" fill="#DD2714"/>
<path d="M601.25 161.875C602.674 161.875 603.828 160.721 603.828 159.297C603.828 157.873 602.674 156.719 601.25 156.719C599.826 156.719 598.672 157.873 598.672 159.297C598.672 160.721 599.826 161.875 601.25 161.875Z" fill="#DD2714"/>
<path d="M590.938 161.703C592.361 161.703 593.516 160.549 593.516 159.125C593.516 157.701 592.361 156.547 590.938 156.547C589.514 156.547 588.359 157.701 588.359 159.125C588.359 160.549 589.514 161.703 590.938 161.703Z" fill="#DD2714"/>
<path d="M586.984 133.859C588.408 133.859 589.562 132.705 589.562 131.281C589.562 129.857 588.408 128.703 586.984 128.703C585.561 128.703 584.406 129.857 584.406 131.281C584.406 132.705 585.561 133.859 586.984 133.859Z" fill="#DD2714"/>
<path d="M542.984 91.75C544.408 91.75 545.562 90.5957 545.562 89.1719C545.562 87.748 544.408 86.5938 542.984 86.5938C541.561 86.5938 540.406 87.748 540.406 89.1719C540.406 90.5957 541.561 91.75 542.984 91.75Z" fill="#DD2714"/>
<path d="M553.297 91.75C554.721 91.75 555.875 90.5957 555.875 89.1719C555.875 87.748 554.721 86.5938 553.297 86.5938C551.873 86.5938 550.719 87.748 550.719 89.1719C550.719 90.5957 551.873 91.75 553.297 91.75Z" fill="#DD2714"/>
<path d="M340.118 300.141C341.479 299.723 342.243 298.281 341.825 296.92C341.407 295.558 339.965 294.794 338.604 295.212C337.242 295.63 336.478 297.073 336.896 298.434C337.314 299.795 338.756 300.559 340.118 300.141Z" fill="#FFB500"/>
<path d="M333.838 284.608C335.199 284.19 335.963 282.747 335.545 281.386C335.127 280.025 333.685 279.261 332.324 279.679C330.963 280.097 330.198 281.539 330.616 282.9C331.034 284.261 332.477 285.026 333.838 284.608Z" fill="#FFB500"/>
<path d="M322.641 262.422C324.064 262.422 325.219 261.268 325.219 259.844C325.219 258.42 324.064 257.266 322.641 257.266C321.217 257.266 320.062 258.42 320.062 259.844C320.062 261.268 321.217 262.422 322.641 262.422Z" fill="#FFB500"/>
<path d="M320.062 231.312C321.486 231.312 322.641 230.158 322.641 228.734C322.641 227.311 321.486 226.156 320.062 226.156C318.639 226.156 317.484 227.311 317.484 228.734C317.484 230.158 318.639 231.312 320.062 231.312Z" fill="#FFB500"/>
<path d="M315.594 200.031C317.018 200.031 318.172 198.877 318.172 197.453C318.172 196.029 317.018 194.875 315.594 194.875C314.17 194.875 313.016 196.029 313.016 197.453C313.016 198.877 314.17 200.031 315.594 200.031Z" fill="#FFB500"/>
<path d="M315.594 212.062C317.018 212.062 318.172 210.908 318.172 209.484C318.172 208.061 317.018 206.906 315.594 206.906C314.17 206.906 313.016 208.061 313.016 209.484C313.016 210.908 314.17 212.062 315.594 212.062Z" fill="#FFB500"/>
<path d="M313.016 221.688C314.439 221.688 315.594 220.533 315.594 219.109C315.594 217.686 314.439 216.531 313.016 216.531C311.592 216.531 310.438 217.686 310.438 219.109C310.438 220.533 311.592 221.688 313.016 221.688Z" fill="#FFB500"/>
<path d="M313.016 232C314.439 232 315.594 230.846 315.594 229.422C315.594 227.998 314.439 226.844 313.016 226.844C311.592 226.844 310.438 227.998 310.438 229.422C310.438 230.846 311.592 232 313.016 232Z" fill="#FFB500"/>
<path d="M320.75 239.734C322.174 239.734 323.328 238.58 323.328 237.156C323.328 235.732 322.174 234.578 320.75 234.578C319.326 234.578 318.172 235.732 318.172 237.156C318.172 238.58 319.326 239.734 320.75 239.734Z" fill="#FFB500"/>
<path d="M317.484 254.516C318.908 254.516 320.062 253.361 320.062 251.938C320.062 250.514 318.908 249.359 317.484 249.359C316.061 249.359 314.906 250.514 314.906 251.938C314.906 253.361 316.061 254.516 317.484 254.516Z" fill="#FFB500"/>
<path d="M335.245 262.621C336.606 262.203 337.371 260.761 336.952 259.399C336.534 258.038 335.092 257.274 333.731 257.692C332.37 258.11 331.605 259.552 332.024 260.913C332.442 262.275 333.884 263.039 335.245 262.621Z" fill="#FFB500"/>
<path d="M313.016 191.609C314.439 191.609 315.594 190.455 315.594 189.031C315.594 187.607 314.439 186.453 313.016 186.453C311.592 186.453 310.438 187.607 310.438 189.031C310.438 190.455 311.592 191.609 313.016 191.609Z" fill="#FFB500"/>
<path d="M320.75 187.141C322.174 187.141 323.328 185.986 323.328 184.562C323.328 183.139 322.174 181.984 320.75 181.984C319.326 181.984 318.172 183.139 318.172 184.562C318.172 185.986 319.326 187.141 320.75 187.141Z" fill="#FFB500"/>
<path d="M320.062 167.375C321.486 167.375 322.641 166.221 322.641 164.797C322.641 163.373 321.486 162.219 320.062 162.219C318.639 162.219 317.484 163.373 317.484 164.797C317.484 166.221 318.639 167.375 320.062 167.375Z" fill="#FFB500"/>
<path d="M339.484 125.609C340.908 125.609 342.062 124.455 342.062 123.031C342.062 121.607 340.908 120.453 339.484 120.453C338.061 120.453 336.906 121.607 336.906 123.031C336.906 124.455 338.061 125.609 339.484 125.609Z" fill="#FFB500"/>
<path d="M334.5 148.984C335.924 148.984 337.078 147.83 337.078 146.406C337.078 144.982 335.924 143.828 334.5 143.828C333.076 143.828 331.922 144.982 331.922 146.406C331.922 147.83 333.076 148.984 334.5 148.984Z" fill="#FFB500"/>
<path d="M326.594 146.234C328.018 146.234 329.172 145.08 329.172 143.656C329.172 142.232 328.018 141.078 326.594 141.078C325.17 141.078 324.016 142.232 324.016 143.656C324.016 145.08 325.17 146.234 326.594 146.234Z" fill="#FFB500"/>
<path d="M336.906 138.844C338.33 138.844 339.484 137.689 339.484 136.266C339.484 134.842 338.33 133.688 336.906 133.688C335.482 133.688 334.328 134.842 334.328 136.266C334.328 137.689 335.482 138.844 336.906 138.844Z" fill="#FFB500"/>
<path d="M348.594 116.844C350.018 116.844 351.172 115.689 351.172 114.266C351.172 112.842 350.018 111.688 348.594 111.688C347.17 111.688 346.016 112.842 346.016 114.266C346.016 115.689 347.17 116.844 348.594 116.844Z" fill="#FFB500"/>
<path d="M322.641 159.641C324.064 159.641 325.219 158.486 325.219 157.062C325.219 155.639 324.064 154.484 322.641 154.484C321.217 154.484 320.062 155.639 320.062 157.062C320.062 158.486 321.217 159.641 322.641 159.641Z" fill="#FFB500"/>
<path d="M329.172 154.141C330.596 154.141 331.75 152.986 331.75 151.562C331.75 150.139 330.596 148.984 329.172 148.984C327.748 148.984 326.594 150.139 326.594 151.562C326.594 152.986 327.748 154.141 329.172 154.141Z" fill="#FFB500"/>
<path d="M315.594 180.266C317.018 180.266 318.172 179.111 318.172 177.688C318.172 176.264 317.018 175.109 315.594 175.109C314.17 175.109 313.016 176.264 313.016 177.688C313.016 179.111 314.17 180.266 315.594 180.266Z" fill="#FFB500"/>
<path d="M323.672 176.828C325.096 176.828 326.25 175.674 326.25 174.25C326.25 172.826 325.096 171.672 323.672 171.672C322.248 171.672 321.094 172.826 321.094 174.25C321.094 175.674 322.248 176.828 323.672 176.828Z" fill="#FFB500"/>
<path d="M327.797 164.797C329.221 164.797 330.375 163.643 330.375 162.219C330.375 160.795 329.221 159.641 327.797 159.641C326.373 159.641 325.219 160.795 325.219 162.219C325.219 163.643 326.373 164.797 327.797 164.797Z" fill="#FFB500"/>
<path d="M339.484 133.688C340.908 133.688 342.062 132.533 342.062 131.109C342.062 129.686 340.908 128.531 339.484 128.531C338.061 128.531 336.906 129.686 336.906 131.109C336.906 132.533 338.061 133.688 339.484 133.688Z" fill="#FFB500"/>
<path d="M361.312 114.266C362.736 114.266 363.891 113.111 363.891 111.688C363.891 110.264 362.736 109.109 361.312 109.109C359.889 109.109 358.734 110.264 358.734 111.688C358.734 113.111 359.889 114.266 361.312 114.266Z" fill="#FFB500"/>
<path d="M369.562 97.5938C370.986 97.5938 372.141 96.4395 372.141 95.0156C372.141 93.5918 370.986 92.4375 369.562 92.4375C368.139 92.4375 366.984 93.5918 366.984 95.0156C366.984 96.4395 368.139 97.5938 369.562 97.5938Z" fill="#FFB500"/>
<path d="M393.281 89C394.705 89 395.859 87.8457 395.859 86.4219C395.859 84.998 394.705 83.8438 393.281 83.8438C391.857 83.8438 390.703 84.998 390.703 86.4219C390.703 87.8457 391.857 89 393.281 89Z" fill="#FFB500"/>
<path d="M403.25 85.9062C404.674 85.9062 405.828 84.752 405.828 83.3281C405.828 81.9043 404.674 80.75 403.25 80.75C401.826 80.75 400.672 81.9043 400.672 83.3281C400.672 84.752 401.826 85.9062 403.25 85.9062Z" fill="#FFB500"/>
<path d="M407.719 78.1719C409.143 78.1719 410.297 77.0176 410.297 75.5938C410.297 74.1699 409.143 73.0156 407.719 73.0156C406.295 73.0156 405.141 74.1699 405.141 75.5938C405.141 77.0176 406.295 78.1719 407.719 78.1719Z" fill="#FFB500"/>
<path d="M423.875 81.0938C425.299 81.0938 426.453 79.9395 426.453 78.5156C426.453 77.0918 425.299 75.9375 423.875 75.9375C422.451 75.9375 421.297 77.0918 421.297 78.5156C421.297 79.9395 422.451 81.0938 423.875 81.0938Z" fill="#FFB500"/>
<path d="M453.781 81.0938C455.205 81.0938 456.359 79.9395 456.359 78.5156C456.359 77.0918 455.205 75.9375 453.781 75.9375C452.357 75.9375 451.203 77.0918 451.203 78.5156C451.203 79.9395 452.357 81.0938 453.781 81.0938Z" fill="#FFB500"/>
<path d="M480.25 83.8438C481.674 83.8438 482.828 82.6895 482.828 81.2656C482.828 79.8418 481.674 78.6875 480.25 78.6875C478.826 78.6875 477.672 79.8418 477.672 81.2656C477.672 82.6895 478.826 83.8438 480.25 83.8438Z" fill="#FFB500"/>
<path d="M469.422 75.9375C470.846 75.9375 472 74.7832 472 73.3594C472 71.9355 470.846 70.7812 469.422 70.7812C467.998 70.7812 466.844 71.9355 466.844 73.3594C466.844 74.7832 467.998 75.9375 469.422 75.9375Z" fill="#FFB500"/>
<path d="M440.891 75.9375C442.314 75.9375 443.469 74.7832 443.469 73.3594C443.469 71.9355 442.314 70.7812 440.891 70.7812C439.467 70.7812 438.312 71.9355 438.312 73.3594C438.312 74.7832 439.467 75.9375 440.891 75.9375Z" fill="#FFB500"/>
<path d="M435.047 81.0938C436.471 81.0938 437.625 79.9395 437.625 78.5156C437.625 77.0918 436.471 75.9375 435.047 75.9375C433.623 75.9375 432.469 77.0918 432.469 78.5156C432.469 79.9395 433.623 81.0938 435.047 81.0938Z" fill="#FFB500"/>
<path d="M414.25 81.0938C415.674 81.0938 416.828 79.9395 416.828 78.5156C416.828 77.0918 415.674 75.9375 414.25 75.9375C412.826 75.9375 411.672 77.0918 411.672 78.5156C411.672 79.9395 412.826 81.0938 414.25 81.0938Z" fill="#FFB500"/>
<path d="M411.672 86.4219C413.096 86.4219 414.25 85.2676 414.25 83.8438C414.25 82.4199 413.096 81.2656 411.672 81.2656C410.248 81.2656 409.094 82.4199 409.094 83.8438C409.094 85.2676 410.248 86.4219 411.672 86.4219Z" fill="#FFB500"/>
<path d="M395.859 81.2656C397.283 81.2656 398.438 80.1114 398.438 78.6875C398.438 77.2636 397.283 76.1094 395.859 76.1094C394.436 76.1094 393.281 77.2636 393.281 78.6875C393.281 80.1114 394.436 81.2656 395.859 81.2656Z" fill="#FFB500"/>
<path d="M387.953 83.1562C389.377 83.1562 390.531 82.002 390.531 80.5781C390.531 79.1543 389.377 78 387.953 78C386.529 78 385.375 79.1543 385.375 80.5781C385.375 82.002 386.529 83.1562 387.953 83.1562Z" fill="#FFB500"/>
<path d="M382.453 89C383.877 89 385.031 87.8457 385.031 86.4219C385.031 84.998 383.877 83.8438 382.453 83.8438C381.029 83.8438 379.875 84.998 379.875 86.4219C379.875 87.8457 381.029 89 382.453 89Z" fill="#FFB500"/>
<path d="M377.297 100.172C378.721 100.172 379.875 99.0176 379.875 97.5938C379.875 96.1699 378.721 95.0156 377.297 95.0156C375.873 95.0156 374.719 96.1699 374.719 97.5938C374.719 99.0176 375.873 100.172 377.297 100.172Z" fill="#FFB500"/>
<path d="M385.375 96.9062C386.799 96.9062 387.953 95.752 387.953 94.3281C387.953 92.9043 386.799 91.75 385.375 91.75C383.951 91.75 382.797 92.9043 382.797 94.3281C382.797 95.752 383.951 96.9062 385.375 96.9062Z" fill="#FFB500"/>
<path d="M358.734 105.328C360.158 105.328 361.312 104.174 361.312 102.75C361.312 101.326 360.158 100.172 358.734 100.172C357.311 100.172 356.156 101.326 356.156 102.75C356.156 104.174 357.311 105.328 358.734 105.328Z" fill="#FFB500"/>
<path d="M366.984 107.906C368.408 107.906 369.562 106.752 369.562 105.328C369.562 103.904 368.408 102.75 366.984 102.75C365.561 102.75 364.406 103.904 364.406 105.328C364.406 106.752 365.561 107.906 366.984 107.906Z" fill="#FFB500"/>
<path d="M353.75 123.031C355.174 123.031 356.328 121.877 356.328 120.453C356.328 119.029 355.174 117.875 353.75 117.875C352.326 117.875 351.172 119.029 351.172 120.453C351.172 121.877 352.326 123.031 353.75 123.031Z" fill="#FFB500"/>
<path d="M346.016 128.531C347.439 128.531 348.594 127.377 348.594 125.953C348.594 124.529 347.439 123.375 346.016 123.375C344.592 123.375 343.438 124.529 343.438 125.953C343.438 127.377 344.592 128.531 346.016 128.531Z" fill="#FFB500"/>
<path d="M478.188 77.1406C479.611 77.1406 480.766 75.9864 480.766 74.5625C480.766 73.1386 479.611 71.9844 478.188 71.9844C476.764 71.9844 475.609 73.1386 475.609 74.5625C475.609 75.9864 476.764 77.1406 478.188 77.1406Z" fill="#FFB500"/>
<path d="M454.812 73.3594C456.236 73.3594 457.391 72.2051 457.391 70.7812C457.391 69.3574 456.236 68.2031 454.812 68.2031C453.389 68.2031 452.234 69.3574 452.234 70.7812C452.234 72.2051 453.389 73.3594 454.812 73.3594Z" fill="#FFB500"/>
<path d="M500.359 91.0625C501.783 91.0625 502.938 89.9082 502.938 88.4844C502.938 87.0605 501.783 85.9062 500.359 85.9062C498.936 85.9062 497.781 87.0605 497.781 88.4844C497.781 89.9082 498.936 91.0625 500.359 91.0625Z" fill="#FFB500"/>
<path d="M506.891 86.4219C508.314 86.4219 509.469 85.2676 509.469 83.8438C509.469 82.4199 508.314 81.2656 506.891 81.2656C505.467 81.2656 504.312 82.4199 504.312 83.8438C504.312 85.2676 505.467 86.4219 506.891 86.4219Z" fill="#FFB500"/>
<path d="M506.891 96.9062C508.314 96.9062 509.469 95.752 509.469 94.3281C509.469 92.9043 508.314 91.75 506.891 91.75C505.467 91.75 504.312 92.9043 504.312 94.3281C504.312 95.752 505.467 96.9062 506.891 96.9062Z" fill="#FFB500"/>
<path d="M493.656 83.8438C495.08 83.8438 496.234 82.6895 496.234 81.2656C496.234 79.8418 495.08 78.6875 493.656 78.6875C492.232 78.6875 491.078 79.8418 491.078 81.2656C491.078 82.6895 492.232 83.8438 493.656 83.8438Z" fill="#FFB500"/>
<path d="M527.859 96.9062C529.283 96.9062 530.438 95.752 530.438 94.3281C530.438 92.9043 529.283 91.75 527.859 91.75C526.436 91.75 525.281 92.9043 525.281 94.3281C525.281 95.752 526.436 96.9062 527.859 96.9062Z" fill="#FFB500"/>
<path d="M517.375 94.3281C518.799 94.3281 519.953 93.1739 519.953 91.75C519.953 90.3261 518.799 89.1719 517.375 89.1719C515.951 89.1719 514.797 90.3261 514.797 91.75C514.797 93.1739 515.951 94.3281 517.375 94.3281Z" fill="#FFB500"/>
<path d="M526.484 104.641C527.908 104.641 529.062 103.486 529.062 102.062C529.062 100.639 527.908 99.4844 526.484 99.4844C525.061 99.4844 523.906 100.639 523.906 102.062C523.906 103.486 525.061 104.641 526.484 104.641Z" fill="#FFB500"/>
<path d="M546.25 107.219C547.674 107.219 548.828 106.064 548.828 104.641C548.828 103.217 547.674 102.062 546.25 102.062C544.826 102.062 543.672 103.217 543.672 104.641C543.672 106.064 544.826 107.219 546.25 107.219Z" fill="#FFB500"/>
<path d="M534.562 107.219C535.986 107.219 537.141 106.064 537.141 104.641C537.141 103.217 535.986 102.062 534.562 102.062C533.139 102.062 531.984 103.217 531.984 104.641C531.984 106.064 533.139 107.219 534.562 107.219Z" fill="#FFB500"/>
<path d="M556.219 134.719C557.643 134.719 558.797 133.564 558.797 132.141C558.797 130.717 557.643 129.562 556.219 129.562C554.795 129.562 553.641 130.717 553.641 132.141C553.641 133.564 554.795 134.719 556.219 134.719Z" fill="#FFB500"/>
<path d="M551.406 119.25C552.83 119.25 553.984 118.096 553.984 116.672C553.984 115.248 552.83 114.094 551.406 114.094C549.982 114.094 548.828 115.248 548.828 116.672C548.828 118.096 549.982 119.25 551.406 119.25Z" fill="#FFB500"/>
<path d="M552.266 126.984C553.689 126.984 554.844 125.83 554.844 124.406C554.844 122.982 553.689 121.828 552.266 121.828C550.842 121.828 549.688 122.982 549.688 124.406C549.688 125.83 550.842 126.984 552.266 126.984Z" fill="#FFB500"/>
<path d="M558.109 123.719C559.533 123.719 560.688 122.564 560.688 121.141C560.688 119.717 559.533 118.562 558.109 118.562C556.686 118.562 555.531 119.717 555.531 121.141C555.531 122.564 556.686 123.719 558.109 123.719Z" fill="#FFB500"/>
<path d="M562.922 133.172C564.346 133.172 565.5 132.018 565.5 130.594C565.5 129.17 564.346 128.016 562.922 128.016C561.498 128.016 560.344 129.17 560.344 130.594C560.344 132.018 561.498 133.172 562.922 133.172Z" fill="#FFB500"/>
<path d="M565.5 143.312C566.924 143.312 568.078 142.158 568.078 140.734C568.078 139.311 566.924 138.156 565.5 138.156C564.076 138.156 562.922 139.311 562.922 140.734C562.922 142.158 564.076 143.312 565.5 143.312Z" fill="#FFB500"/>
<path d="M574.266 154.141C575.689 154.141 576.844 152.986 576.844 151.562C576.844 150.139 575.689 148.984 574.266 148.984C572.842 148.984 571.688 150.139 571.688 151.562C571.688 152.986 572.842 154.141 574.266 154.141Z" fill="#FFB500"/>
<path d="M570.312 138.844C571.736 138.844 572.891 137.689 572.891 136.266C572.891 134.842 571.736 133.688 570.312 133.688C568.889 133.688 567.734 134.842 567.734 136.266C567.734 137.689 568.889 138.844 570.312 138.844Z" fill="#FFB500"/>
<path d="M580.625 162.906C582.049 162.906 583.203 161.752 583.203 160.328C583.203 158.904 582.049 157.75 580.625 157.75C579.201 157.75 578.047 158.904 578.047 160.328C578.047 161.752 579.201 162.906 580.625 162.906Z" fill="#FFB500"/>
<path d="M588.703 188.688C590.127 188.688 591.281 187.533 591.281 186.109C591.281 184.686 590.127 183.531 588.703 183.531C587.279 183.531 586.125 184.686 586.125 186.109C586.125 187.533 587.279 188.688 588.703 188.688Z" fill="#FFB500"/>
<path d="M583.547 178.375C584.971 178.375 586.125 177.221 586.125 175.797C586.125 174.373 584.971 173.219 583.547 173.219C582.123 173.219 580.969 174.373 580.969 175.797C580.969 177.221 582.123 178.375 583.547 178.375Z" fill="#FFB500"/>
<path d="M583.547 200.719C584.971 200.719 586.125 199.564 586.125 198.141C586.125 196.717 584.971 195.562 583.547 195.562C582.123 195.562 580.969 196.717 580.969 198.141C580.969 199.564 582.123 200.719 583.547 200.719Z" fill="#FFB500"/>
<path d="M586.125 212.922C587.549 212.922 588.703 211.768 588.703 210.344C588.703 208.92 587.549 207.766 586.125 207.766C584.701 207.766 583.547 208.92 583.547 210.344C583.547 211.768 584.701 212.922 586.125 212.922Z" fill="#FFB500"/>
<path d="M583.547 241.969C584.971 241.969 586.125 240.814 586.125 239.391C586.125 237.967 584.971 236.812 583.547 236.812C582.123 236.812 580.969 237.967 580.969 239.391C580.969 240.814 582.123 241.969 583.547 241.969Z" fill="#FFB500"/>
<path d="M583.547 227.531C584.971 227.531 586.125 226.377 586.125 224.953C586.125 223.529 584.971 222.375 583.547 222.375C582.123 222.375 580.969 223.529 580.969 224.953C580.969 226.377 582.123 227.531 583.547 227.531Z" fill="#FFB500"/>
<path d="M572.891 272.906C574.314 272.906 575.469 271.752 575.469 270.328C575.469 268.904 574.314 267.75 572.891 267.75C571.467 267.75 570.312 268.904 570.312 270.328C570.312 271.752 571.467 272.906 572.891 272.906Z" fill="#FFB500"/>
<path d="M575.469 258.812C576.893 258.812 578.047 257.658 578.047 256.234C578.047 254.811 576.893 253.656 575.469 253.656C574.045 253.656 572.891 254.811 572.891 256.234C572.891 257.658 574.045 258.812 575.469 258.812Z" fill="#FFB500"/>
<path d="M560.926 290.094C562.35 290.094 563.504 288.939 563.504 287.516C563.504 286.092 562.35 284.938 560.926 284.938C559.502 284.938 558.348 286.092 558.348 287.516C558.348 288.939 559.502 290.094 560.926 290.094Z" fill="#FFB500"/>
<path d="M564.125 278.578C565.549 278.578 566.703 277.424 566.703 276C566.703 274.576 565.549 273.422 564.125 273.422C562.701 273.422 561.547 274.576 561.547 276C561.547 277.424 562.701 278.578 564.125 278.578Z" fill="#FFB500"/>
<path d="M569.281 267.75C570.705 267.75 571.859 266.596 571.859 265.172C571.859 263.748 570.705 262.594 569.281 262.594C567.857 262.594 566.703 263.748 566.703 265.172C566.703 266.596 567.857 267.75 569.281 267.75Z" fill="#FFB500"/>
<path d="M549.066 302.297C550.49 302.297 551.645 301.143 551.645 299.719C551.645 298.295 550.49 297.141 549.066 297.141C547.643 297.141 546.488 298.295 546.488 299.719C546.488 301.143 547.643 302.297 549.066 302.297Z" fill="#FFB500"/>
<path d="M530.332 320.859C531.756 320.859 532.91 319.705 532.91 318.281C532.91 316.857 531.756 315.703 530.332 315.703C528.908 315.703 527.754 316.857 527.754 318.281C527.754 319.705 528.908 320.859 530.332 320.859Z" fill="#FFB500"/>
<path d="M542.125 305.734C543.549 305.734 544.703 304.58 544.703 303.156C544.703 301.732 543.549 300.578 542.125 300.578C540.701 300.578 539.547 301.732 539.547 303.156C539.547 304.58 540.701 305.734 542.125 305.734Z" fill="#FFB500"/>
<path d="M539.613 313.125C541.037 313.125 542.191 311.971 542.191 310.547C542.191 309.123 541.037 307.969 539.613 307.969C538.189 307.969 537.035 309.123 537.035 310.547C537.035 311.971 538.189 313.125 539.613 313.125Z" fill="#FFB500"/>
<path d="M500.359 332.375C501.783 332.375 502.938 331.221 502.938 329.797C502.938 328.373 501.783 327.219 500.359 327.219C498.936 327.219 497.781 328.373 497.781 329.797C497.781 331.221 498.936 332.375 500.359 332.375Z" fill="#FFB500"/>
<path d="M507.988 339.25C509.412 339.25 510.566 338.096 510.566 336.672C510.566 335.248 509.412 334.094 507.988 334.094C506.564 334.094 505.41 335.248 505.41 336.672C505.41 338.096 506.564 339.25 507.988 339.25Z" fill="#FFB500"/>
<path d="M490.457 341.828C491.881 341.828 493.035 340.674 493.035 339.25C493.035 337.826 491.881 336.672 490.457 336.672C489.033 336.672 487.879 337.826 487.879 339.25C487.879 340.674 489.033 341.828 490.457 341.828Z" fill="#FFB500"/>
<path d="M424.634 340.732C426.021 340.409 426.883 339.023 426.56 337.636C426.237 336.249 424.851 335.387 423.464 335.71C422.077 336.033 421.215 337.419 421.538 338.806C421.861 340.193 423.247 341.055 424.634 340.732Z" fill="#FFB500"/>
<path d="M467.898 344.845C469.317 344.726 470.371 343.479 470.252 342.06C470.133 340.642 468.886 339.588 467.467 339.707C466.048 339.826 464.994 341.073 465.113 342.492C465.233 343.911 466.479 344.964 467.898 344.845Z" fill="#FFB500"/>
<path d="M440.152 347.174C441.571 347.055 442.625 345.808 442.505 344.39C442.386 342.971 441.14 341.917 439.721 342.036C438.302 342.155 437.248 343.402 437.367 344.821C437.486 346.24 438.733 347.293 440.152 347.174Z" fill="#FFB500"/>
<path d="M393.532 327.073C394.951 326.953 396.004 325.707 395.885 324.288C395.766 322.869 394.519 321.815 393.1 321.934C391.681 322.054 390.628 323.3 390.747 324.719C390.866 326.138 392.113 327.192 393.532 327.073Z" fill="#FFB500"/>
<path d="M397.396 335.068C398.815 334.949 399.868 333.702 399.749 332.283C399.63 330.864 398.383 329.81 396.964 329.93C395.545 330.049 394.492 331.295 394.611 332.714C394.73 334.133 395.977 335.187 397.396 335.068Z" fill="#FFB500"/>
<path d="M373.668 325.676C375.086 325.557 376.14 324.31 376.021 322.891C375.902 321.472 374.655 320.419 373.236 320.538C371.817 320.657 370.764 321.904 370.883 323.322C371.002 324.741 372.249 325.795 373.668 325.676Z" fill="#FFB500"/>
<path d="M365.446 316.454C366.807 316.036 367.572 314.594 367.154 313.233C366.735 311.872 365.293 311.107 363.932 311.525C362.571 311.943 361.806 313.386 362.225 314.747C362.643 316.108 364.085 316.872 365.446 316.454Z" fill="#FFB500"/>
<path d="M353.254 312.468C354.615 312.05 355.379 310.607 354.961 309.246C354.543 307.885 353.101 307.121 351.74 307.539C350.379 307.957 349.614 309.399 350.032 310.76C350.45 312.121 351.893 312.886 353.254 312.468Z" fill="#FFB500"/>
<path d="M349.418 299.981C350.779 299.563 351.544 298.121 351.126 296.76C350.708 295.399 349.265 294.634 347.904 295.052C346.543 295.47 345.779 296.913 346.197 298.274C346.615 299.635 348.057 300.399 349.418 299.981Z" fill="#FFB500"/>
<path d="M337.846 292.748C339.208 292.33 339.972 290.887 339.554 289.526C339.136 288.165 337.693 287.401 336.332 287.819C334.971 288.237 334.207 289.679 334.625 291.04C335.043 292.401 336.485 293.166 337.846 292.748Z" fill="#FFB500"/>
<path d="M329.197 258.655C330.558 258.237 331.323 256.794 330.905 255.433C330.487 254.072 329.044 253.308 327.683 253.726C326.322 254.144 325.558 255.586 325.976 256.947C326.394 258.308 327.836 259.073 329.197 258.655Z" fill="#FFB500"/>
<path d="M331.601 271.831C332.962 271.413 333.727 269.971 333.309 268.61C332.891 267.249 331.448 266.484 330.087 266.902C328.726 267.32 327.962 268.763 328.38 270.124C328.798 271.485 330.24 272.249 331.601 271.831Z" fill="#FFB500"/>
<path d="M322.641 248.156C324.064 248.156 325.219 247.002 325.219 245.578C325.219 244.154 324.064 243 322.641 243C321.217 243 320.062 244.154 320.062 245.578C320.062 247.002 321.217 248.156 322.641 248.156Z" fill="#FFB500"/>
<path d="M337.323 278.165C338.684 277.747 339.448 276.304 339.03 274.943C338.612 273.582 337.17 272.818 335.809 273.236C334.448 273.654 333.683 275.096 334.101 276.457C334.519 277.818 335.962 278.583 337.323 278.165Z" fill="#FFB500"/>
<path d="M356.833 305.974C358.194 305.556 358.958 304.114 358.54 302.753C358.122 301.392 356.68 300.627 355.319 301.045C353.958 301.464 353.193 302.906 353.611 304.267C354.029 305.628 355.472 306.392 356.833 305.974Z" fill="#FFB500"/>
<path d="M372.347 314.334C373.708 313.916 374.472 312.474 374.054 311.113C373.636 309.752 372.194 308.987 370.833 309.406C369.471 309.824 368.707 311.266 369.125 312.627C369.543 313.988 370.985 314.753 372.347 314.334Z" fill="#FFB500"/>
<path d="M387.062 335.245C388.481 335.126 389.534 333.879 389.415 332.461C389.296 331.042 388.049 329.988 386.63 330.107C385.212 330.226 384.158 331.473 384.277 332.892C384.396 334.311 385.643 335.364 387.062 335.245Z" fill="#FFB500"/>
<path d="M383.601 324.842C385.02 324.723 386.074 323.476 385.955 322.057C385.836 320.638 384.589 319.585 383.17 319.704C381.751 319.823 380.698 321.07 380.817 322.489C380.936 323.907 382.182 324.961 383.601 324.842Z" fill="#FFB500"/>
<path d="M415.188 345.807C416.607 345.688 417.66 344.441 417.541 343.022C417.422 341.603 416.175 340.55 414.757 340.669C413.338 340.788 412.284 342.035 412.403 343.454C412.522 344.872 413.769 345.926 415.188 345.807Z" fill="#FFB500"/>
<path d="M404.405 336.377C405.824 336.258 406.877 335.011 406.758 333.592C406.639 332.173 405.392 331.119 403.974 331.238C402.555 331.358 401.501 332.604 401.62 334.023C401.739 335.442 402.986 336.496 404.405 336.377Z" fill="#FFB500"/>
<path d="M414.783 338.783C416.202 338.663 417.256 337.417 417.136 335.998C417.017 334.579 415.771 333.525 414.352 333.644C412.933 333.763 411.879 335.01 411.998 336.429C412.117 337.848 413.364 338.902 414.783 338.783Z" fill="#FFB500"/>
<path d="M430.174 345.425C431.593 345.306 432.646 344.059 432.527 342.64C432.408 341.221 431.161 340.167 429.742 340.287C428.324 340.406 427.27 341.652 427.389 343.071C427.508 344.49 428.755 345.544 430.174 345.425Z" fill="#FFB500"/>
<path d="M460.219 341.51C461.638 341.391 462.692 340.144 462.573 338.725C462.453 337.306 461.207 336.253 459.788 336.372C458.369 336.491 457.315 337.738 457.434 339.157C457.554 340.576 458.8 341.629 460.219 341.51Z" fill="#FFB500"/>
<path d="M453.727 348.622C455.146 348.503 456.199 347.256 456.08 345.837C455.961 344.418 454.714 343.365 453.296 343.484C451.877 343.603 450.823 344.85 450.942 346.268C451.061 347.687 452.308 348.741 453.727 348.622Z" fill="#FFB500"/>
<path d="M461.938 350.448C463.357 350.328 464.41 349.082 464.291 347.663C464.172 346.244 462.925 345.19 461.507 345.309C460.088 345.429 459.034 346.675 459.153 348.094C459.272 349.513 460.519 350.567 461.938 350.448Z" fill="#FFB500"/>
<path d="M481.257 343.724C482.676 343.605 483.73 342.358 483.611 340.939C483.492 339.52 482.245 338.466 480.826 338.586C479.407 338.705 478.354 339.951 478.473 341.37C478.592 342.789 479.838 343.843 481.257 343.724Z" fill="#FFB500"/>
<path d="M445.721 351.881C447.14 351.762 448.194 350.515 448.075 349.096C447.956 347.677 446.709 346.624 445.29 346.743C443.871 346.862 442.818 348.109 442.937 349.528C443.056 350.947 444.303 352 445.721 351.881Z" fill="#FFB500"/>
<path d="M474.134 340.732C475.521 340.409 476.383 339.023 476.06 337.636C475.737 336.249 474.351 335.387 472.964 335.71C471.577 336.033 470.715 337.419 471.038 338.806C471.361 340.193 472.747 341.055 474.134 340.732Z" fill="#FFB500"/>
<path d="M435.991 338.501C437.377 338.178 438.24 336.792 437.917 335.405C437.593 334.019 436.207 333.156 434.821 333.479C433.434 333.803 432.572 335.189 432.895 336.575C433.218 337.962 434.604 338.824 435.991 338.501Z" fill="#FFB500"/>
<path d="M482.678 335.239C484.065 334.916 484.927 333.53 484.604 332.143C484.281 330.756 482.895 329.894 481.508 330.217C480.122 330.54 479.259 331.926 479.582 333.313C479.906 334.7 481.292 335.562 482.678 335.239Z" fill="#FFB500"/>
<path d="M444.219 342.761C445.605 342.438 446.468 341.052 446.145 339.665C445.822 338.278 444.435 337.416 443.049 337.739C441.662 338.062 440.8 339.448 441.123 340.835C441.446 342.222 442.832 343.084 444.219 342.761Z" fill="#FFB500"/>
<path d="M510.4 329.732C511.786 329.409 512.649 328.023 512.326 326.636C512.002 325.249 510.616 324.387 509.23 324.71C507.843 325.033 506.981 326.419 507.304 327.806C507.627 329.193 509.013 330.055 510.4 329.732Z" fill="#FFB500"/>
<path d="M500.598 339.938C502.021 339.938 503.176 338.783 503.176 337.359C503.176 335.936 502.021 334.781 500.598 334.781C499.174 334.781 498.019 335.936 498.019 337.359C498.019 338.783 499.174 339.938 500.598 339.938Z" fill="#FFB500"/>
<path d="M517.957 328.594C519.381 328.594 520.535 327.439 520.535 326.016C520.535 324.592 519.381 323.438 517.957 323.438C516.533 323.438 515.379 324.592 515.379 326.016C515.379 327.439 516.533 328.594 517.957 328.594Z" fill="#FFB500"/>
<path d="M520.297 319.484C521.721 319.484 522.875 318.33 522.875 316.906C522.875 315.482 521.721 314.328 520.297 314.328C518.873 314.328 517.719 315.482 517.719 316.906C517.719 318.33 518.873 319.484 520.297 319.484Z" fill="#FFB500"/>
<path d="M525.453 325.672C526.877 325.672 528.031 324.518 528.031 323.094C528.031 321.67 526.877 320.516 525.453 320.516C524.029 320.516 522.875 321.67 522.875 323.094C522.875 324.518 524.029 325.672 525.453 325.672Z" fill="#FFB500"/>
<path d="M570.312 281.156C571.736 281.156 572.891 280.002 572.891 278.578C572.891 277.154 571.736 276 570.312 276C568.889 276 567.734 277.154 567.734 278.578C567.734 280.002 568.889 281.156 570.312 281.156Z" fill="#FFB500"/>
<path d="M551.645 310.375C553.068 310.375 554.223 309.221 554.223 307.797C554.223 306.373 553.068 305.219 551.645 305.219C550.221 305.219 549.066 306.373 549.066 307.797C549.066 309.221 550.221 310.375 551.645 310.375Z" fill="#FFB500"/>
<path d="M553.191 294.391C554.615 294.391 555.77 293.236 555.77 291.812C555.77 290.389 554.615 289.234 553.191 289.234C551.768 289.234 550.613 290.389 550.613 291.812C550.613 293.236 551.768 294.391 553.191 294.391Z" fill="#FFB500"/>
<path d="M566.016 287.516C567.439 287.516 568.594 286.361 568.594 284.938C568.594 283.514 567.439 282.359 566.016 282.359C564.592 282.359 563.438 283.514 563.438 284.938C563.438 286.361 564.592 287.516 566.016 287.516Z" fill="#FFB500"/>
<path d="M578.391 267.75C579.814 267.75 580.969 266.596 580.969 265.172C580.969 263.748 579.814 262.594 578.391 262.594C576.967 262.594 575.812 263.748 575.812 265.172C575.812 266.596 576.967 267.75 578.391 267.75Z" fill="#FFB500"/>
<path d="M578.047 249.875C579.471 249.875 580.625 248.721 580.625 247.297C580.625 245.873 579.471 244.719 578.047 244.719C576.623 244.719 575.469 245.873 575.469 247.297C575.469 248.721 576.623 249.875 578.047 249.875Z" fill="#FFB500"/>
<path d="M583.547 253.656C584.971 253.656 586.125 252.502 586.125 251.078C586.125 249.654 584.971 248.5 583.547 248.5C582.123 248.5 580.969 249.654 580.969 251.078C580.969 252.502 582.123 253.656 583.547 253.656Z" fill="#FFB500"/>
<path d="M589.906 234.234C591.33 234.234 592.484 233.08 592.484 231.656C592.484 230.232 591.33 229.078 589.906 229.078C588.482 229.078 587.328 230.232 587.328 231.656C587.328 233.08 588.482 234.234 589.906 234.234Z" fill="#FFB500"/>
<path d="M592.484 220.656C593.908 220.656 595.062 219.502 595.062 218.078C595.062 216.654 593.908 215.5 592.484 215.5C591.061 215.5 589.906 216.654 589.906 218.078C589.906 219.502 591.061 220.656 592.484 220.656Z" fill="#FFB500"/>
<path d="M589.734 199.859C591.158 199.859 592.312 198.705 592.312 197.281C592.312 195.857 591.158 194.703 589.734 194.703C588.311 194.703 587.156 195.857 587.156 197.281C587.156 198.705 588.311 199.859 589.734 199.859Z" fill="#FFB500"/>
<path d="M580.625 191.266C582.049 191.266 583.203 190.111 583.203 188.688C583.203 187.264 582.049 186.109 580.625 186.109C579.201 186.109 578.047 187.264 578.047 188.688C578.047 190.111 579.201 191.266 580.625 191.266Z" fill="#FFB500"/>
<path d="M578.734 171.328C580.158 171.328 581.312 170.174 581.312 168.75C581.312 167.326 580.158 166.172 578.734 166.172C577.311 166.172 576.156 167.326 576.156 168.75C576.156 170.174 577.311 171.328 578.734 171.328Z" fill="#FFB500"/>
<path d="M574.953 159.641C576.377 159.641 577.531 158.486 577.531 157.062C577.531 155.639 576.377 154.484 574.953 154.484C573.529 154.484 572.375 155.639 572.375 157.062C572.375 158.486 573.529 159.641 574.953 159.641Z" fill="#FFB500"/>
<path d="M568.078 152.594C569.502 152.594 570.656 151.439 570.656 150.016C570.656 148.592 569.502 147.438 568.078 147.438C566.654 147.438 565.5 148.592 565.5 150.016C565.5 151.439 566.654 152.594 568.078 152.594Z" fill="#FFB500"/>
<path d="M573.234 145.891C574.658 145.891 575.812 144.736 575.812 143.312C575.812 141.889 574.658 140.734 573.234 140.734C571.811 140.734 570.656 141.889 570.656 143.312C570.656 144.736 571.811 145.891 573.234 145.891Z" fill="#FFB500"/>
<path d="M543.672 114.094C545.096 114.094 546.25 112.939 546.25 111.516C546.25 110.092 545.096 108.938 543.672 108.938C542.248 108.938 541.094 110.092 541.094 111.516C541.094 112.939 542.248 114.094 543.672 114.094Z" fill="#FFB500"/>
<path d="M553.984 114.094C555.408 114.094 556.562 112.939 556.562 111.516C556.562 110.092 555.408 108.938 553.984 108.938C552.561 108.938 551.406 110.092 551.406 111.516C551.406 112.939 552.561 114.094 553.984 114.094Z" fill="#FFB500"/>
<path d="M376.872 259.051C378.044 259.86 379.65 259.567 380.459 258.395C381.268 257.224 380.975 255.618 379.803 254.809C378.632 253.999 377.026 254.293 376.217 255.464C375.407 256.636 375.701 258.241 376.872 259.051Z" fill="#005CC5"/>
<path d="M518.893 270.667C519.372 269.326 518.673 267.851 517.332 267.372C515.991 266.893 514.516 267.592 514.037 268.933C513.558 270.274 514.257 271.749 515.598 272.228C516.939 272.707 518.414 272.008 518.893 270.667Z" fill="#005CC5"/>
<path d="M412.315 286.67C413.486 287.48 415.092 287.186 415.901 286.015C416.711 284.843 416.417 283.238 415.246 282.428C414.074 281.619 412.468 281.912 411.659 283.084C410.85 284.255 411.143 285.861 412.315 286.67Z" fill="#005CC5"/>
<path d="M536.406 229.287C536.885 227.946 536.186 226.471 534.845 225.992C533.504 225.513 532.029 226.212 531.55 227.553C531.072 228.894 531.77 230.369 533.111 230.848C534.452 231.327 535.927 230.628 536.406 229.287Z" fill="#005CC5"/>
<path d="M399.305 277.683C400.477 278.492 402.082 278.198 402.892 277.027C403.701 275.855 403.407 274.25 402.236 273.44C401.065 272.631 399.459 272.924 398.649 274.096C397.84 275.267 398.134 276.873 399.305 277.683Z" fill="#005CC5"/>
<path d="M531.089 244.178C531.567 242.837 530.869 241.362 529.528 240.883C528.187 240.405 526.712 241.104 526.233 242.444C525.754 243.785 526.453 245.261 527.794 245.739C529.135 246.218 530.61 245.519 531.089 244.178Z" fill="#005CC5"/>
<path d="M464.676 290.63C465.242 291.936 466.76 292.537 468.066 291.972C469.373 291.406 469.974 289.889 469.409 288.582C468.843 287.275 467.325 286.674 466.019 287.24C464.712 287.805 464.111 289.323 464.676 290.63Z" fill="#005CC5"/>
<path d="M443.118 119.883C443.683 121.189 445.201 121.79 446.508 121.225C447.814 120.659 448.415 119.142 447.85 117.835C447.284 116.528 445.767 115.927 444.46 116.493C443.153 117.058 442.552 118.576 443.118 119.883Z" fill="#005CC5"/>
<path d="M504.49 133.563C503.913 134.865 504.5 136.388 505.802 136.966C507.103 137.543 508.626 136.956 509.204 135.654C509.781 134.353 509.194 132.83 507.892 132.252C506.591 131.675 505.068 132.262 504.49 133.563Z" fill="#005CC5"/>
<path d="M536.356 170.78C535.05 171.348 534.452 172.866 535.02 174.172C535.588 175.478 537.106 176.076 538.412 175.508C539.718 174.94 540.316 173.421 539.748 172.116C539.18 170.81 537.661 170.212 536.356 170.78Z" fill="#005CC5"/>
<path d="M541.604 211.671C540.242 211.258 538.802 212.028 538.389 213.39C537.977 214.753 538.747 216.192 540.109 216.605C541.472 217.018 542.911 216.248 543.324 214.885C543.737 213.523 542.967 212.083 541.604 211.671Z" fill="#005CC5"/>
<path d="M430.571 121.429C431.136 122.736 432.654 123.337 433.961 122.772C435.267 122.206 435.868 120.688 435.303 119.382C434.737 118.075 433.22 117.474 431.913 118.039C430.606 118.605 430.005 120.123 430.571 121.429Z" fill="#005CC5"/>
<path d="M494.848 125.388C494.27 126.689 494.858 128.213 496.159 128.79C497.461 129.367 498.984 128.78 499.561 127.479C500.139 126.177 499.551 124.654 498.25 124.077C496.948 123.499 495.425 124.086 494.848 125.388Z" fill="#005CC5"/>
<path d="M534.786 158.236C533.48 158.804 532.882 160.322 533.45 161.628C534.018 162.934 535.537 163.532 536.842 162.964C538.148 162.396 538.746 160.877 538.178 159.572C537.61 158.266 536.092 157.668 534.786 158.236Z" fill="#005CC5"/>
<path d="M548.532 201.095C547.169 200.683 545.73 201.453 545.317 202.815C544.904 204.178 545.674 205.617 547.037 206.03C548.399 206.443 549.839 205.673 550.251 204.31C550.664 202.948 549.894 201.508 548.532 201.095Z" fill="#005CC5"/>
<path d="M361.821 175.398C362.386 176.705 363.904 177.306 365.211 176.74C366.517 176.175 367.118 174.657 366.553 173.35C365.987 172.044 364.47 171.443 363.163 172.008C361.856 172.574 361.255 174.091 361.821 175.398Z" fill="#005CC5"/>
<path d="M371.618 171.961C372.183 173.268 373.701 173.868 375.008 173.303C376.314 172.738 376.915 171.22 376.35 169.913C375.784 168.606 374.267 168.005 372.96 168.571C371.653 169.136 371.052 170.654 371.618 171.961Z" fill="#005CC5"/>
<path d="M369.727 161.648C370.292 162.955 371.81 163.556 373.117 162.99C374.424 162.425 375.025 160.907 374.459 159.6C373.894 158.294 372.376 157.693 371.069 158.258C369.762 158.824 369.162 160.341 369.727 161.648Z" fill="#005CC5"/>
<path d="M473.368 124.867C473.933 126.174 475.451 126.775 476.758 126.209C478.064 125.644 478.665 124.126 478.1 122.819C477.534 121.512 476.017 120.912 474.71 121.477C473.403 122.042 472.802 123.56 473.368 124.867Z" fill="#005CC5"/>
<path d="M359.594 220.656C361.018 220.656 362.172 219.502 362.172 218.078C362.172 216.654 361.018 215.5 359.594 215.5C358.17 215.5 357.016 216.654 357.016 218.078C357.016 219.502 358.17 220.656 359.594 220.656Z" fill="#005CC5"/>
<path d="M481.182 292.851C481.747 294.158 483.265 294.759 484.572 294.193C485.879 293.628 486.479 292.11 485.914 290.803C485.349 289.497 483.831 288.896 482.524 289.461C481.217 290.027 480.616 291.544 481.182 292.851Z" fill="#005CC5"/>
<path d="M459.623 122.104C460.188 123.411 461.706 124.012 463.013 123.446C464.32 122.881 464.921 121.363 464.355 120.056C463.79 118.75 462.272 118.149 460.965 118.714C459.658 119.28 459.058 120.797 459.623 122.104Z" fill="#005CC5"/>
<path d="M514.046 147.204C513.468 148.505 514.055 150.028 515.357 150.606C516.658 151.183 518.182 150.596 518.759 149.295C519.336 147.993 518.749 146.47 517.448 145.892C516.146 145.315 514.623 145.902 514.046 147.204Z" fill="#005CC5"/>
<path d="M534.165 187.289C532.859 187.857 532.261 189.376 532.829 190.681C533.396 191.987 534.915 192.585 536.221 192.017C537.527 191.45 538.125 189.931 537.557 188.625C536.989 187.319 535.47 186.721 534.165 187.289Z" fill="#005CC5"/>
<path d="M529.244 222.832C527.881 222.419 526.441 223.189 526.029 224.552C525.616 225.914 526.386 227.354 527.748 227.766C529.111 228.179 530.55 227.409 530.963 226.047C531.376 224.684 530.606 223.245 529.244 222.832Z" fill="#005CC5"/>
<path d="M472.822 296.469C473.387 297.776 474.905 298.376 476.212 297.811C477.518 297.246 478.119 295.728 477.554 294.421C476.988 293.114 475.471 292.513 474.164 293.079C472.857 293.644 472.256 295.162 472.822 296.469Z" fill="#005CC5"/>
<path d="M451.263 125.722C451.828 127.029 453.346 127.63 454.653 127.064C455.959 126.499 456.56 124.981 455.995 123.674C455.429 122.367 453.912 121.767 452.605 122.332C451.298 122.897 450.697 124.415 451.263 125.722Z" fill="#005CC5"/>
<path d="M505.719 143.51C505.141 144.811 505.728 146.335 507.03 146.912C508.331 147.489 509.855 146.902 510.432 145.601C511.009 144.299 510.422 142.776 509.121 142.199C507.819 141.621 506.296 142.208 505.719 143.51Z" fill="#005CC5"/>
<path d="M530.532 178.935C529.226 179.503 528.628 181.022 529.196 182.328C529.763 183.634 531.282 184.232 532.588 183.664C533.894 183.096 534.492 181.577 533.924 180.271C533.356 178.966 531.837 178.368 530.532 178.935Z" fill="#005CC5"/>
<path d="M531.885 214.114C530.522 213.701 529.083 214.471 528.67 215.833C528.257 217.196 529.027 218.635 530.39 219.048C531.752 219.461 533.192 218.691 533.605 217.328C534.018 215.966 533.248 214.526 531.885 214.114Z" fill="#005CC5"/>
<path d="M403.563 285.429C404.734 286.238 406.34 285.945 407.149 284.773C407.959 283.602 407.665 281.996 406.494 281.187C405.322 280.377 403.716 280.671 402.907 281.842C402.098 283.014 402.391 284.62 403.563 285.429Z" fill="#005CC5"/>
<path d="M537.47 238.062C537.949 236.721 537.25 235.246 535.909 234.767C534.569 234.288 533.093 234.987 532.615 236.328C532.136 237.669 532.835 239.144 534.176 239.623C535.516 240.102 536.992 239.403 537.47 238.062Z" fill="#005CC5"/>
<path d="M494.111 298.493C494.676 299.8 496.194 300.401 497.501 299.835C498.807 299.27 499.408 297.752 498.843 296.445C498.277 295.139 496.76 294.538 495.453 295.103C494.146 295.669 493.545 297.186 494.111 298.493Z" fill="#005CC5"/>
<path d="M448.908 298.427C449.552 297.157 449.045 295.606 447.775 294.961C446.506 294.317 444.954 294.824 444.31 296.093C443.665 297.363 444.172 298.915 445.442 299.559C446.711 300.203 448.263 299.697 448.908 298.427Z" fill="#005CC5"/>
<path d="M398.764 139.41C400.155 139.108 401.039 137.736 400.737 136.344C400.436 134.953 399.063 134.069 397.672 134.371C396.28 134.672 395.397 136.045 395.698 137.436C396 138.828 397.372 139.711 398.764 139.41Z" fill="#005CC5"/>
<path d="M412.608 130.255C413.999 129.953 414.883 128.581 414.581 127.189C414.28 125.797 412.907 124.914 411.516 125.215C410.124 125.517 409.24 126.889 409.542 128.281C409.844 129.673 411.216 130.556 412.608 130.255Z" fill="#005CC5"/>
<path d="M426.466 132.527C427.857 132.226 428.741 130.853 428.44 129.462C428.138 128.07 426.765 127.187 425.374 127.488C423.982 127.79 423.099 129.162 423.4 130.554C423.702 131.945 425.074 132.829 426.466 132.527Z" fill="#005CC5"/>
<path d="M483.906 129.893C485.071 130.712 486.679 130.431 487.498 129.266C488.317 128.101 488.036 126.493 486.871 125.674C485.706 124.856 484.098 125.137 483.279 126.302C482.461 127.467 482.741 129.075 483.906 129.893Z" fill="#005CC5"/>
<path d="M523.68 154.151C523.984 155.542 525.359 156.423 526.75 156.119C528.141 155.815 529.022 154.441 528.718 153.05C528.414 151.659 527.039 150.778 525.648 151.082C524.257 151.386 523.376 152.76 523.68 154.151Z" fill="#005CC5"/>
<path d="M542.714 190.791C542.045 192.048 542.522 193.61 543.779 194.279C545.036 194.948 546.597 194.471 547.266 193.214C547.935 191.957 547.458 190.396 546.202 189.727C544.945 189.058 543.383 189.535 542.714 190.791Z" fill="#005CC5"/>
<path d="M424.504 291.823C425.148 290.554 424.641 289.002 423.372 288.358C422.102 287.713 420.55 288.22 419.906 289.49C419.261 290.759 419.768 292.311 421.038 292.956C422.308 293.6 423.859 293.093 424.504 291.823Z" fill="#005CC5"/>
<path d="M440.878 291.461C441.523 290.191 441.016 288.639 439.746 287.995C438.477 287.35 436.925 287.857 436.28 289.127C435.636 290.397 436.143 291.948 437.413 292.593C438.682 293.237 440.234 292.73 440.878 291.461Z" fill="#005CC5"/>
<path d="M483.622 300.222C484.188 301.529 485.706 302.13 487.012 301.565C488.319 300.999 488.92 299.482 488.355 298.175C487.789 296.868 486.271 296.267 484.965 296.833C483.658 297.398 483.057 298.916 483.622 300.222Z" fill="#005CC5"/>
<path d="M462.064 129.476C462.629 130.782 464.147 131.383 465.453 130.818C466.76 130.252 467.361 128.735 466.796 127.428C466.23 126.121 464.713 125.52 463.406 126.086C462.099 126.651 461.498 128.169 462.064 129.476Z" fill="#005CC5"/>
<path d="M458.488 282.82C459.053 284.127 460.571 284.728 461.878 284.162C463.185 283.597 463.786 282.079 463.22 280.772C462.655 279.465 461.137 278.865 459.83 279.43C458.523 279.995 457.922 281.513 458.488 282.82Z" fill="#005CC5"/>
<path d="M456.008 290.073C456.574 291.38 458.091 291.981 459.398 291.415C460.705 290.85 461.306 289.332 460.74 288.025C460.175 286.719 458.657 286.118 457.35 286.683C456.044 287.249 455.443 288.766 456.008 290.073Z" fill="#005CC5"/>
<path d="M392.34 280.809C393.512 281.618 395.118 281.325 395.927 280.153C396.736 278.982 396.443 277.376 395.271 276.567C394.1 275.757 392.494 276.051 391.685 277.222C390.875 278.394 391.169 280 392.34 280.809Z" fill="#005CC5"/>
<path d="M535.91 250.098C536.389 248.757 535.69 247.282 534.349 246.803C533.008 246.324 531.533 247.023 531.054 248.364C530.576 249.705 531.275 251.18 532.615 251.659C533.956 252.137 535.432 251.439 535.91 250.098Z" fill="#005CC5"/>
<path d="M376.718 268.345C377.89 269.154 379.496 268.861 380.305 267.689C381.114 266.518 380.821 264.912 379.649 264.103C378.478 263.293 376.872 263.587 376.063 264.759C375.253 265.93 375.547 267.536 376.718 268.345Z" fill="#005CC5"/>
<path d="M527.911 268.412C528.39 267.071 527.691 265.595 526.35 265.117C525.009 264.638 523.534 265.337 523.055 266.678C522.576 268.019 523.275 269.494 524.616 269.973C525.957 270.451 527.432 269.753 527.911 268.412Z" fill="#005CC5"/>
<path d="M382.529 262.959C383.7 263.768 385.306 263.474 386.115 262.303C386.925 261.131 386.631 259.526 385.46 258.716C384.288 257.907 382.682 258.201 381.873 259.372C381.064 260.544 381.357 262.149 382.529 262.959Z" fill="#005CC5"/>
<path d="M521.205 264.192C521.684 262.851 520.985 261.376 519.644 260.897C518.303 260.418 516.828 261.117 516.349 262.458C515.87 263.799 516.569 265.274 517.91 265.753C519.251 266.232 520.726 265.533 521.205 264.192Z" fill="#005CC5"/>
<path d="M384.303 276.719C385.475 277.528 387.08 277.235 387.89 276.063C388.699 274.892 388.405 273.286 387.234 272.477C386.062 271.667 384.457 271.961 383.647 273.132C382.838 274.304 383.132 275.909 384.303 276.719Z" fill="#005CC5"/>
<path d="M534.038 258.919C534.517 257.578 533.818 256.103 532.477 255.624C531.136 255.146 529.661 255.844 529.182 257.185C528.703 258.526 529.402 260.001 530.743 260.48C532.084 260.959 533.559 260.26 534.038 258.919Z" fill="#005CC5"/>
<path d="M357.016 211.031C358.439 211.031 359.594 209.877 359.594 208.453C359.594 207.029 358.439 205.875 357.016 205.875C355.592 205.875 354.438 207.029 354.438 208.453C354.438 209.877 355.592 211.031 357.016 211.031Z" fill="#005CC5"/>
<path d="M366.641 193.844C368.064 193.844 369.219 192.69 369.219 191.266C369.219 189.842 368.064 188.688 366.641 188.688C365.217 188.688 364.062 189.842 364.062 191.266C364.062 192.69 365.217 193.844 366.641 193.844Z" fill="#005CC5"/>
<path d="M359.594 193.844C361.018 193.844 362.172 192.69 362.172 191.266C362.172 189.842 361.018 188.688 359.594 188.688C358.17 188.688 357.016 189.842 357.016 191.266C357.016 192.69 358.17 193.844 359.594 193.844Z" fill="#005CC5"/>
<path d="M380.049 160.173C381.441 159.871 382.324 158.499 382.023 157.107C381.721 155.715 380.349 154.832 378.957 155.133C377.566 155.435 376.682 156.807 376.984 158.199C377.285 159.591 378.658 160.474 380.049 160.173Z" fill="#005CC5"/>
<path d="M364.75 225.812C366.174 225.812 367.328 224.658 367.328 223.234C367.328 221.81 366.174 220.656 364.75 220.656C363.326 220.656 362.172 221.81 362.172 223.234C362.172 224.658 363.326 225.812 364.75 225.812Z" fill="#005CC5"/>
<path d="M501.527 289.665C502.093 290.972 503.61 291.573 504.917 291.008C506.224 290.442 506.825 288.924 506.259 287.618C505.694 286.311 504.176 285.71 502.869 286.275C501.563 286.841 500.962 288.359 501.527 289.665Z" fill="#005CC5"/>
<path d="M439.677 299.524C440.321 298.255 439.815 296.703 438.545 296.059C437.275 295.414 435.723 295.921 435.079 297.191C434.435 298.46 434.942 300.012 436.211 300.657C437.481 301.301 439.033 300.794 439.677 299.524Z" fill="#005CC5"/>
<path d="M429.868 294.546C430.512 293.276 430.006 291.725 428.736 291.08C427.466 290.436 425.915 290.943 425.27 292.212C424.626 293.482 425.133 295.034 426.402 295.678C427.672 296.323 429.224 295.816 429.868 294.546Z" fill="#005CC5"/>
<path d="M416.405 296.387C417.05 295.117 416.543 293.565 415.273 292.921C414.004 292.276 412.452 292.783 411.807 294.053C411.163 295.323 411.67 296.874 412.94 297.519C414.209 298.163 415.761 297.656 416.405 296.387Z" fill="#005CC5"/>
<path d="M445.321 131.079C446.713 130.778 447.596 129.405 447.295 128.014C446.993 126.622 445.621 125.738 444.229 126.04C442.838 126.342 441.954 127.714 442.256 129.106C442.557 130.497 443.93 131.381 445.321 131.079Z" fill="#005CC5"/>
<path d="M497.753 142.774C498.918 143.592 500.526 143.311 501.344 142.146C502.163 140.981 501.882 139.373 500.717 138.555C499.552 137.736 497.944 138.017 497.125 139.182C496.307 140.347 496.588 141.955 497.753 142.774Z" fill="#005CC5"/>
<path d="M525.163 173.004C525.467 174.395 526.842 175.276 528.233 174.972C529.624 174.668 530.505 173.294 530.201 171.903C529.896 170.512 528.522 169.631 527.131 169.935C525.74 170.239 524.859 171.613 525.163 173.004Z" fill="#005CC5"/>
<path d="M531.635 206.117C530.966 207.374 531.443 208.935 532.7 209.605C533.957 210.274 535.518 209.797 536.187 208.54C536.856 207.283 536.38 205.722 535.123 205.053C533.866 204.384 532.305 204.86 531.635 206.117Z" fill="#005CC5"/>
<path d="M435.285 135.892C436.676 135.591 437.56 134.218 437.258 132.827C436.957 131.435 435.584 130.551 434.193 130.853C432.801 131.154 431.918 132.527 432.219 133.919C432.521 135.31 433.893 136.194 435.285 135.892Z" fill="#005CC5"/>
<path d="M487.411 138.658C488.576 139.476 490.184 139.195 491.003 138.03C491.821 136.865 491.54 135.257 490.375 134.439C489.21 133.62 487.602 133.901 486.784 135.066C485.965 136.231 486.246 137.839 487.411 138.658Z" fill="#005CC5"/>
<path d="M520.332 162.976C520.636 164.367 522.01 165.248 523.401 164.944C524.792 164.64 525.673 163.266 525.369 161.875C525.065 160.484 523.691 159.603 522.3 159.907C520.909 160.211 520.028 161.585 520.332 162.976Z" fill="#005CC5"/>
<path d="M534.448 195.348C533.779 196.604 534.255 198.166 535.512 198.835C536.769 199.504 538.33 199.027 538.999 197.77C539.668 196.514 539.192 194.952 537.935 194.283C536.678 193.614 535.117 194.091 534.448 195.348Z" fill="#005CC5"/>
<path d="M406.141 136.932C407.532 136.63 408.416 135.258 408.114 133.866C407.813 132.475 406.44 131.591 405.049 131.893C403.657 132.194 402.774 133.567 403.075 134.958C403.377 136.35 404.749 137.234 406.141 136.932Z" fill="#005CC5"/>
<path d="M392.619 145.138C394.01 144.837 394.894 143.464 394.593 142.072C394.291 140.681 392.918 139.797 391.527 140.099C390.135 140.4 389.252 141.773 389.553 143.165C389.855 144.556 391.227 145.44 392.619 145.138Z" fill="#005CC5"/>
<path d="M389.254 153.957C390.646 153.656 391.529 152.283 391.228 150.891C390.926 149.5 389.554 148.616 388.162 148.918C386.771 149.219 385.887 150.592 386.188 151.984C386.49 153.375 387.863 154.259 389.254 153.957Z" fill="#005CC5"/>
<path d="M420.166 128.617C421.558 128.315 422.442 126.942 422.14 125.551C421.839 124.159 420.466 123.276 419.074 123.577C417.683 123.879 416.799 125.251 417.101 126.643C417.402 128.034 418.775 128.918 420.166 128.617Z" fill="#005CC5"/>
<path d="M384.565 166.404C385.957 166.103 386.84 164.73 386.539 163.339C386.237 161.947 384.865 161.064 383.473 161.365C382.082 161.667 381.198 163.039 381.5 164.431C381.801 165.822 383.174 166.706 384.565 166.404Z" fill="#005CC5"/>
<path d="M364.75 185.422C366.174 185.422 367.328 184.268 367.328 182.844C367.328 181.42 366.174 180.266 364.75 180.266C363.326 180.266 362.172 181.42 362.172 182.844C362.172 184.268 363.326 185.422 364.75 185.422Z" fill="#005CC5"/>
<path d="M381.113 152.908C382.504 152.606 383.388 151.233 383.086 149.842C382.785 148.45 381.412 147.567 380.021 147.868C378.629 148.17 377.746 149.542 378.047 150.934C378.349 152.326 379.721 153.209 381.113 152.908Z" fill="#005CC5"/>
<path d="M364.75 210.344C366.174 210.344 367.328 209.189 367.328 207.766C367.328 206.342 366.174 205.187 364.75 205.187C363.326 205.187 362.172 206.342 362.172 207.766C362.172 209.189 363.326 210.344 364.75 210.344Z" fill="#005CC5"/>
<path d="M359.594 230.281C361.018 230.281 362.172 229.127 362.172 227.703C362.172 226.279 361.018 225.125 359.594 225.125C358.17 225.125 357.016 226.279 357.016 227.703C357.016 229.127 358.17 230.281 359.594 230.281Z" fill="#005CC5"/>
<path d="M369.219 232.859C370.643 232.859 371.797 231.705 371.797 230.281C371.797 228.857 370.643 227.703 369.219 227.703C367.795 227.703 366.641 228.857 366.641 230.281C366.641 231.705 367.795 232.859 369.219 232.859Z" fill="#005CC5"/>
<path d="M369.219 241.969C370.643 241.969 371.797 240.814 371.797 239.391C371.797 237.967 370.643 236.812 369.219 236.812C367.795 236.812 366.641 237.967 366.641 239.391C366.641 240.814 367.795 241.969 369.219 241.969Z" fill="#005CC5"/>
<path d="M372.887 240.629C374.058 241.439 375.664 241.145 376.473 239.974C377.283 238.802 376.989 237.197 375.818 236.387C374.646 235.578 373.04 235.871 372.231 237.043C371.422 238.214 371.715 239.82 372.887 240.629Z" fill="#005CC5"/>
<path d="M502.129 279.281C502.608 277.94 501.909 276.465 500.568 275.986C499.227 275.507 497.752 276.206 497.273 277.547C496.794 278.888 497.493 280.363 498.834 280.842C500.175 281.321 501.65 280.622 502.129 279.281Z" fill="#005CC5"/>
<path d="M385.797 270.021C386.968 270.831 388.574 270.537 389.383 269.365C390.193 268.194 389.899 266.588 388.727 265.779C387.556 264.97 385.95 265.263 385.141 266.435C384.332 267.606 384.625 269.212 385.797 270.021Z" fill="#005CC5"/>
<path d="M527.182 259.209C527.661 257.868 526.962 256.393 525.621 255.914C524.28 255.435 522.805 256.134 522.326 257.475C521.847 258.816 522.546 260.291 523.887 260.77C525.228 261.248 526.703 260.55 527.182 259.209Z" fill="#005CC5"/>
<path d="M359.594 201.578C361.018 201.578 362.172 200.424 362.172 199C362.172 197.576 361.018 196.422 359.594 196.422C358.17 196.422 357.016 197.576 357.016 199C357.016 200.424 358.17 201.578 359.594 201.578Z" fill="#005CC5"/>
<path d="M374.43 251.096C375.601 251.905 377.207 251.612 378.016 250.44C378.826 249.269 378.532 247.663 377.361 246.854C376.189 246.044 374.583 246.338 373.774 247.51C372.965 248.681 373.258 250.287 374.43 251.096Z" fill="#005CC5"/>
<path d="M511.841 275.084C512.319 273.743 511.621 272.268 510.28 271.789C508.939 271.31 507.463 272.009 506.985 273.35C506.506 274.691 507.205 276.166 508.546 276.645C509.887 277.123 511.362 276.425 511.841 275.084Z" fill="#005CC5"/>
</g>
<defs>
<clipPath id="clip0_6_2214">
<rect width="900" height="420" fill="white"/>
</clipPath>
</defs>
</svg>
