<svg width="900" height="420" viewBox="0 0 900 420" fill="none" xmlns="http://www.w3.org/2000/svg">
<g clip-path="url(#clip0_6_2637)">
<rect x="0.5" y="0.5" width="899" height="419" rx="3.5" fill="white" fill-opacity="0.9" stroke="#DADADA"/>
<path d="M449.065 233.582C461.491 233.582 471.565 223.508 471.565 211.082C471.565 198.656 461.491 188.582 449.065 188.582C436.639 188.582 426.565 198.656 426.565 211.082C426.565 223.508 436.639 233.582 449.065 233.582Z" fill="black"/>
<path d="M499.065 211.082C499.065 238.696 476.679 261.082 449.065 261.082C421.451 261.082 399.065 238.696 399.065 211.082C399.065 183.468 421.451 161.082 449.065 161.082C476.679 161.082 499.065 183.468 499.065 211.082Z" stroke="black"/>
<path d="M536.065 211.082C536.065 259.131 497.114 298.082 449.065 298.082C401.016 298.082 362.065 259.131 362.065 211.082C362.065 163.033 401.016 124.082 449.065 124.082C497.114 124.082 536.065 163.033 536.065 211.082Z" stroke="black"/>
<path d="M583.065 211.082C583.065 283.977 523.078 343.082 449.065 343.082C375.052 343.082 315.065 283.977 315.065 211.082C315.065 138.187 375.052 79.082 449.065 79.082C523.078 79.082 583.065 138.187 583.065 211.082Z" stroke="black"/>
<path d="M601.065 211.082C601.065 295.029 533.012 363.082 449.065 363.082C365.118 363.082 297.065 295.029 297.065 211.082C297.065 127.135 365.118 59.082 449.065 59.082C533.012 59.082 601.065 127.135 601.065 211.082Z" stroke="black"/>
<path d="M499.603 207.399C501.018 207.399 502.165 206.252 502.165 204.836C502.165 203.421 501.018 202.274 499.603 202.274C498.187 202.274 497.04 203.421 497.04 204.836C497.04 206.252 498.187 207.399 499.603 207.399Z" fill="#005CC5"/>
<path d="M460.821 164.688C462.236 164.688 463.383 163.54 463.383 162.125C463.383 160.71 462.236 159.562 460.821 159.562C459.405 159.562 458.258 160.71 458.258 162.125C458.258 163.54 459.405 164.688 460.821 164.688Z" fill="#005CC5"/>
<path d="M494.477 182.797C495.893 182.797 497.04 181.65 497.04 180.235C497.04 178.819 495.893 177.672 494.477 177.672C493.062 177.672 491.915 178.819 491.915 180.235C491.915 181.65 493.062 182.797 494.477 182.797Z" fill="#005CC5"/>
<path d="M502.165 197.148C503.581 197.148 504.728 196.001 504.728 194.586C504.728 193.17 503.581 192.023 502.165 192.023C500.75 192.023 499.603 193.17 499.603 194.586C499.603 196.001 500.75 197.148 502.165 197.148Z" fill="#005CC5"/>
<path d="M497.04 216.112C498.455 216.112 499.603 214.965 499.603 213.55C499.603 212.134 498.455 210.987 497.04 210.987C495.625 210.987 494.477 212.134 494.477 213.55C494.477 214.965 495.625 216.112 497.04 216.112Z" fill="#005CC5"/>
<path d="M494.477 199.711C495.893 199.711 497.04 198.564 497.04 197.148C497.04 195.733 495.893 194.586 494.477 194.586C493.062 194.586 491.915 195.733 491.915 197.148C491.915 198.564 493.062 199.711 494.477 199.711Z" fill="#005CC5"/>
<path d="M494.477 188.777C495.893 188.777 497.04 187.63 497.04 186.214C497.04 184.799 495.893 183.652 494.477 183.652C493.062 183.652 491.915 184.799 491.915 186.214C491.915 187.63 493.062 188.777 494.477 188.777Z" fill="#005CC5"/>
<path d="M486.789 177.672C488.205 177.672 489.352 176.525 489.352 175.109C489.352 173.694 488.205 172.547 486.789 172.547C485.374 172.547 484.227 173.694 484.227 175.109C484.227 176.525 485.374 177.672 486.789 177.672Z" fill="#005CC5"/>
<path d="M479.443 167.25C480.858 167.25 482.006 166.103 482.006 164.688C482.006 163.272 480.858 162.125 479.443 162.125C478.028 162.125 476.88 163.272 476.88 164.688C476.88 166.103 478.028 167.25 479.443 167.25Z" fill="#005CC5"/>
<path d="M468.68 169.813C470.095 169.813 471.242 168.666 471.242 167.25C471.242 165.835 470.095 164.688 468.68 164.688C467.264 164.688 466.117 165.835 466.117 167.25C466.117 168.666 467.264 169.813 468.68 169.813Z" fill="#005CC5"/>
<path d="M455.524 159.562C456.94 159.562 458.087 158.415 458.087 157C458.087 155.584 456.94 154.437 455.524 154.437C454.109 154.437 452.962 155.584 452.962 157C452.962 158.415 454.109 159.562 455.524 159.562Z" fill="#005CC5"/>
<path d="M478.247 63.3761C479.662 63.3761 480.81 62.2288 480.81 60.8134C480.81 59.3981 479.662 58.2508 478.247 58.2508C476.832 58.2508 475.684 59.3981 475.684 60.8134C475.684 62.2288 476.832 63.3761 478.247 63.3761Z" fill="#005CC5"/>
<path d="M463.383 58.2508C464.799 58.2508 465.946 57.1034 465.946 55.6881C465.946 54.2727 464.799 53.1254 463.383 53.1254C461.968 53.1254 460.821 54.2727 460.821 55.6881C460.821 57.1034 461.968 58.2508 463.383 58.2508Z" fill="#005CC5"/>
<path d="M474.318 53.1254C475.733 53.1254 476.88 51.978 476.88 50.5627C476.88 49.1474 475.733 48 474.318 48C472.902 48 471.755 49.1474 471.755 50.5627C471.755 51.978 472.902 53.1254 474.318 53.1254Z" fill="#005CC5"/>
<path d="M491.915 71.235C493.33 71.235 494.477 70.0877 494.477 68.6723C494.477 67.257 493.33 66.1097 491.915 66.1097C490.499 66.1097 489.352 67.257 489.352 68.6723C489.352 70.0877 490.499 71.235 491.915 71.235Z" fill="#005CC5"/>
<path d="M504.728 65.9388C506.143 65.9388 507.291 64.7915 507.291 63.3761C507.291 61.9608 506.143 60.8134 504.728 60.8134C503.313 60.8134 502.165 61.9608 502.165 63.3761C502.165 64.7915 503.313 65.9388 504.728 65.9388Z" fill="#005CC5"/>
<path d="M504.728 76.3604C506.143 76.3604 507.291 75.2131 507.291 73.7977C507.291 72.3824 506.143 71.235 504.728 71.235C503.313 71.235 502.165 72.3824 502.165 73.7977C502.165 75.2131 503.313 76.3604 504.728 76.3604Z" fill="#005CC5"/>
<path d="M491.573 63.3761C492.988 63.3761 494.136 62.2288 494.136 60.8134C494.136 59.3981 492.988 58.2508 491.573 58.2508C490.158 58.2508 489.01 59.3981 489.01 60.8134C489.01 62.2288 490.158 63.3761 491.573 63.3761Z" fill="#005CC5"/>
<path d="M525.571 76.3604C526.987 76.3604 528.134 75.2131 528.134 73.7977C528.134 72.3824 526.987 71.235 525.571 71.235C524.156 71.235 523.009 72.3824 523.009 73.7977C523.009 75.2131 524.156 76.3604 525.571 76.3604Z" fill="#005CC5"/>
<path d="M515.15 73.7977C516.565 73.7977 517.712 72.6504 517.712 71.235C517.712 69.8197 516.565 68.6723 515.15 68.6723C513.734 68.6723 512.587 69.8197 512.587 71.235C512.587 72.6504 513.734 73.7977 515.15 73.7977Z" fill="#005CC5"/>
<path d="M524.205 84.0485C525.62 84.0485 526.767 82.9011 526.767 81.4858C526.767 80.0705 525.62 78.9231 524.205 78.9231C522.789 78.9231 521.642 80.0705 521.642 81.4858C521.642 82.9011 522.789 84.0485 524.205 84.0485Z" fill="#005CC5"/>
<path d="M543.852 86.6112C545.267 86.6112 546.414 85.4638 546.414 84.0485C546.414 82.6331 545.267 81.4858 543.852 81.4858C542.436 81.4858 541.289 82.6331 541.289 84.0485C541.289 85.4638 542.436 86.6112 543.852 86.6112Z" fill="#005CC5"/>
<path d="M532.234 86.6112C533.65 86.6112 534.797 85.4638 534.797 84.0485C534.797 82.6331 533.65 81.4858 532.234 81.4858C530.819 81.4858 529.672 82.6331 529.672 84.0485C529.672 85.4638 530.819 86.6112 532.234 86.6112Z" fill="#005CC5"/>
<path d="M562.303 108.821C563.718 108.821 564.866 107.674 564.866 106.258C564.866 104.843 563.718 103.696 562.303 103.696C560.888 103.696 559.74 104.843 559.74 106.258C559.74 107.674 560.888 108.821 562.303 108.821Z" fill="#005CC5"/>
<path d="M548.977 98.5704C550.393 98.5704 551.54 97.423 551.54 96.0077C551.54 94.5924 550.393 93.445 548.977 93.445C547.562 93.445 546.415 94.5924 546.415 96.0077C546.415 97.423 547.562 98.5704 548.977 98.5704Z" fill="#005CC5"/>
<path d="M558.374 101.133C559.789 101.133 560.936 99.9857 560.936 98.5704C560.936 97.155 559.789 96.0077 558.374 96.0077C556.958 96.0077 555.811 97.155 555.811 98.5704C555.811 99.9857 556.958 101.133 558.374 101.133Z" fill="#005CC5"/>
<path d="M564.866 120.097C566.281 120.097 567.429 118.95 567.429 117.534C567.429 116.119 566.281 114.972 564.866 114.972C563.451 114.972 562.303 116.119 562.303 117.534C562.303 118.95 563.451 120.097 564.866 120.097Z" fill="#005CC5"/>
<path d="M574.775 122.66C576.19 122.66 577.338 121.512 577.338 120.097C577.338 118.682 576.19 117.534 574.775 117.534C573.36 117.534 572.212 118.682 572.212 120.097C572.212 121.512 573.36 122.66 574.775 122.66Z" fill="#005CC5"/>
<path d="M577.338 132.74C578.753 132.74 579.9 131.592 579.9 130.177C579.9 128.762 578.753 127.614 577.338 127.614C575.922 127.614 574.775 128.762 574.775 130.177C574.775 131.592 575.922 132.74 577.338 132.74Z" fill="#005CC5"/>
<path d="M586.051 143.503C587.466 143.503 588.613 142.355 588.613 140.94C588.613 139.525 587.466 138.377 586.051 138.377C584.635 138.377 583.488 139.525 583.488 140.94C583.488 142.355 584.635 143.503 586.051 143.503Z" fill="#005CC5"/>
<path d="M593.739 175.109C595.154 175.109 596.301 173.962 596.301 172.547C596.301 171.131 595.154 169.984 593.739 169.984C592.323 169.984 591.176 171.131 591.176 172.547C591.176 173.962 592.323 175.109 593.739 175.109Z" fill="#005CC5"/>
<path d="M591.176 154.437C592.592 154.437 593.739 153.29 593.739 151.874C593.739 150.459 592.592 149.312 591.176 149.312C589.761 149.312 588.614 150.459 588.614 151.874C588.614 153.29 589.761 154.437 591.176 154.437Z" fill="#005CC5"/>
<path d="M604.331 197.148C605.747 197.148 606.894 196.001 606.894 194.586C606.894 193.17 605.747 192.023 604.331 192.023C602.916 192.023 601.769 193.17 601.769 194.586C601.769 196.001 602.916 197.148 604.331 197.148Z" fill="#005CC5"/>
<path d="M599.206 186.898C600.621 186.898 601.768 185.75 601.768 184.335C601.768 182.92 600.621 181.772 599.206 181.772C597.79 181.772 596.643 182.92 596.643 184.335C596.643 185.75 597.79 186.898 599.206 186.898Z" fill="#005CC5"/>
<path d="M599.206 209.108C600.621 209.108 601.768 207.96 601.768 206.545C601.768 205.13 600.621 203.982 599.206 203.982C597.79 203.982 596.643 205.13 596.643 206.545C596.643 207.96 597.79 209.108 599.206 209.108Z" fill="#005CC5"/>
<path d="M612.19 211.67C613.605 211.67 614.753 210.523 614.753 209.108C614.753 207.692 613.605 206.545 612.19 206.545C610.775 206.545 609.627 207.692 609.627 209.108C609.627 210.523 610.775 211.67 612.19 211.67Z" fill="#005CC5"/>
<path d="M596.301 199.711C597.717 199.711 598.864 198.564 598.864 197.148C598.864 195.733 597.717 194.586 596.301 194.586C594.886 194.586 593.739 195.733 593.739 197.148C593.739 198.564 594.886 199.711 596.301 199.711Z" fill="#005CC5"/>
<path d="M602.965 174.768C604.38 174.768 605.527 173.62 605.527 172.205C605.527 170.79 604.38 169.642 602.965 169.642C601.549 169.642 600.402 170.79 600.402 172.205C600.402 173.62 601.549 174.768 602.965 174.768Z" fill="#005CC5"/>
<path d="M599.206 163.15C600.621 163.15 601.768 162.003 601.768 160.587C601.768 159.172 600.621 158.025 599.206 158.025C597.79 158.025 596.643 159.172 596.643 160.587C596.643 162.003 597.79 163.15 599.206 163.15Z" fill="#005CC5"/>
<path d="M588.955 162.979C590.37 162.979 591.518 161.832 591.518 160.417C591.518 159.001 590.37 157.854 588.955 157.854C587.54 157.854 586.392 159.001 586.392 160.417C586.392 161.832 587.54 162.979 588.955 162.979Z" fill="#005CC5"/>
<path d="M585.026 135.302C586.441 135.302 587.588 134.155 587.588 132.74C587.588 131.324 586.441 130.177 585.026 130.177C583.61 130.177 582.463 131.324 582.463 132.74C582.463 134.155 583.61 135.302 585.026 135.302Z" fill="#005CC5"/>
<path d="M541.289 93.445C542.704 93.445 543.852 92.2976 543.852 90.8823C543.852 89.467 542.704 88.3196 541.289 88.3196C539.874 88.3196 538.726 89.467 538.726 90.8823C538.726 92.2976 539.874 93.445 541.289 93.445Z" fill="#005CC5"/>
<path d="M551.54 93.445C552.955 93.445 554.103 92.2976 554.103 90.8823C554.103 89.467 552.955 88.3196 551.54 88.3196C550.125 88.3196 548.977 89.467 548.977 90.8823C548.977 92.2976 550.125 93.445 551.54 93.445Z" fill="#005CC5"/>
<path d="M478.93 85.5861C480.346 85.5861 481.493 84.4387 481.493 83.0234C481.493 81.6081 480.346 80.4607 478.93 80.4607C477.515 80.4607 476.368 81.6081 476.368 83.0234C476.368 84.4387 477.515 85.5861 478.93 85.5861Z" fill="#005CC5"/>
<path d="M468.167 77.7272C469.582 77.7272 470.73 76.5798 470.73 75.1645C470.73 73.7492 469.582 72.6018 468.167 72.6018C466.752 72.6018 465.604 73.7492 465.604 75.1645C465.604 76.5798 466.752 77.7272 468.167 77.7272Z" fill="#005CC5"/>
<path d="M476.88 78.9231C478.296 78.9231 479.443 77.7757 479.443 76.3604C479.443 74.9451 478.296 73.7977 476.88 73.7977C475.465 73.7977 474.318 74.9451 474.318 76.3604C474.318 77.7757 475.465 78.9231 476.88 78.9231Z" fill="#005CC5"/>
<path d="M453.645 75.1645C455.061 75.1645 456.208 74.0171 456.208 72.6018C456.208 71.1865 455.061 70.0391 453.645 70.0391C452.23 70.0391 451.083 71.1865 451.083 72.6018C451.083 74.0171 452.23 75.1645 453.645 75.1645Z" fill="#005CC5"/>
<path d="M498.919 92.7616C500.335 92.7616 501.482 91.6143 501.482 90.1989C501.482 88.7836 500.335 87.6362 498.919 87.6362C497.504 87.6362 496.357 88.7836 496.357 90.1989C496.357 91.6143 497.504 92.7616 498.919 92.7616Z" fill="#005CC5"/>
<path d="M505.411 88.1488C506.827 88.1488 507.974 87.0014 507.974 85.5861C507.974 84.1708 506.827 83.0234 505.411 83.0234C503.996 83.0234 502.849 84.1708 502.849 85.5861C502.849 87.0014 503.996 88.1488 505.411 88.1488Z" fill="#005CC5"/>
<path d="M505.411 98.5704C506.827 98.5704 507.974 97.423 507.974 96.0077C507.974 94.5924 506.827 93.445 505.411 93.445C503.996 93.445 502.849 94.5924 502.849 96.0077C502.849 97.423 503.996 98.5704 505.411 98.5704Z" fill="#005CC5"/>
<path d="M492.256 85.5861C493.672 85.5861 494.819 84.4387 494.819 83.0234C494.819 81.6081 493.672 80.4607 492.256 80.4607C490.841 80.4607 489.694 81.6081 489.694 83.0234C489.694 84.4387 490.841 85.5861 492.256 85.5861Z" fill="#005CC5"/>
<path d="M526.255 98.5704C527.67 98.5704 528.817 97.423 528.817 96.0077C528.817 94.5924 527.67 93.445 526.255 93.445C524.839 93.445 523.692 94.5924 523.692 96.0077C523.692 97.423 524.839 98.5704 526.255 98.5704Z" fill="#005CC5"/>
<path d="M515.833 96.0077C517.248 96.0077 518.396 94.8603 518.396 93.445C518.396 92.0297 517.248 90.8823 515.833 90.8823C514.418 90.8823 513.27 92.0297 513.27 93.445C513.27 94.8603 514.418 96.0077 515.833 96.0077Z" fill="#005CC5"/>
<path d="M524.888 106.258C526.303 106.258 527.451 105.111 527.451 103.696C527.451 102.28 526.303 101.133 524.888 101.133C523.473 101.133 522.325 102.28 522.325 103.696C522.325 105.111 523.473 106.258 524.888 106.258Z" fill="#005CC5"/>
<path d="M544.535 108.821C545.95 108.821 547.098 107.674 547.098 106.258C547.098 104.843 545.95 103.696 544.535 103.696C543.12 103.696 541.972 104.843 541.972 106.258C541.972 107.674 543.12 108.821 544.535 108.821Z" fill="#005CC5"/>
<path d="M532.918 108.821C534.333 108.821 535.48 107.674 535.48 106.258C535.48 104.843 534.333 103.696 532.918 103.696C531.502 103.696 530.355 104.843 530.355 106.258C530.355 107.674 531.502 108.821 532.918 108.821Z" fill="#005CC5"/>
<path d="M554.444 136.156C555.86 136.156 557.007 135.009 557.007 133.594C557.007 132.178 555.86 131.031 554.444 131.031C553.029 131.031 551.882 132.178 551.882 133.594C551.882 135.009 553.029 136.156 554.444 136.156Z" fill="#005CC5"/>
<path d="M549.661 120.78C551.076 120.78 552.223 119.633 552.223 118.218C552.223 116.802 551.076 115.655 549.661 115.655C548.245 115.655 547.098 116.802 547.098 118.218C547.098 119.633 548.245 120.78 549.661 120.78Z" fill="#005CC5"/>
<path d="M550.515 128.468C551.93 128.468 553.078 127.321 553.078 125.906C553.078 124.49 551.93 123.343 550.515 123.343C549.1 123.343 547.952 124.49 547.952 125.906C547.952 127.321 549.1 128.468 550.515 128.468Z" fill="#005CC5"/>
<path d="M556.323 125.222C557.739 125.222 558.886 124.075 558.886 122.66C558.886 121.244 557.739 120.097 556.323 120.097C554.908 120.097 553.761 121.244 553.761 122.66C553.761 124.075 554.908 125.222 556.323 125.222Z" fill="#005CC5"/>
<path d="M561.107 134.619C562.522 134.619 563.67 133.471 563.67 132.056C563.67 130.641 562.522 129.493 561.107 129.493C559.692 129.493 558.544 130.641 558.544 132.056C558.544 133.471 559.692 134.619 561.107 134.619Z" fill="#005CC5"/>
<path d="M563.67 144.699C565.085 144.699 566.233 143.551 566.233 142.136C566.233 140.721 565.085 139.573 563.67 139.573C562.255 139.573 561.107 140.721 561.107 142.136C561.107 143.551 562.255 144.699 563.67 144.699Z" fill="#005CC5"/>
<path d="M572.383 155.462C573.798 155.462 574.946 154.315 574.946 152.899C574.946 151.484 573.798 150.337 572.383 150.337C570.968 150.337 569.82 151.484 569.82 152.899C569.82 154.315 570.968 155.462 572.383 155.462Z" fill="#005CC5"/>
<path d="M568.454 140.257C569.869 140.257 571.016 139.109 571.016 137.694C571.016 136.279 569.869 135.131 568.454 135.131C567.038 135.131 565.891 136.279 565.891 137.694C565.891 139.109 567.038 140.257 568.454 140.257Z" fill="#005CC5"/>
<path d="M578.704 164.175C580.12 164.175 581.267 163.028 581.267 161.612C581.267 160.197 580.12 159.05 578.704 159.05C577.289 159.05 576.142 160.197 576.142 161.612C576.142 163.028 577.289 164.175 578.704 164.175Z" fill="#005CC5"/>
<path d="M586.734 189.802C588.149 189.802 589.297 188.655 589.297 187.239C589.297 185.824 588.149 184.677 586.734 184.677C585.319 184.677 584.171 185.824 584.171 187.239C584.171 188.655 585.319 189.802 586.734 189.802Z" fill="#005CC5"/>
<path d="M581.609 179.551C583.024 179.551 584.172 178.404 584.172 176.989C584.172 175.573 583.024 174.426 581.609 174.426C580.193 174.426 579.046 175.573 579.046 176.989C579.046 178.404 580.193 179.551 581.609 179.551Z" fill="#005CC5"/>
<path d="M581.609 201.761C583.024 201.761 584.172 200.614 584.172 199.199C584.172 197.783 583.024 196.636 581.609 196.636C580.193 196.636 579.046 197.783 579.046 199.199C579.046 200.614 580.193 201.761 581.609 201.761Z" fill="#005CC5"/>
<path d="M584.171 213.891C585.587 213.891 586.734 212.744 586.734 211.329C586.734 209.913 585.587 208.766 584.171 208.766C582.756 208.766 581.609 209.913 581.609 211.329C581.609 212.744 582.756 213.891 584.171 213.891Z" fill="#005CC5"/>
<path d="M587.759 200.907C589.175 200.907 590.322 199.76 590.322 198.344C590.322 196.929 589.175 195.782 587.759 195.782C586.344 195.782 585.197 196.929 585.197 198.344C585.197 199.76 586.344 200.907 587.759 200.907Z" fill="#005CC5"/>
<path d="M578.704 192.365C580.12 192.365 581.267 191.217 581.267 189.802C581.267 188.387 580.12 187.239 578.704 187.239C577.289 187.239 576.142 188.387 576.142 189.802C576.142 191.217 577.289 192.365 578.704 192.365Z" fill="#005CC5"/>
<path d="M576.825 172.547C578.24 172.547 579.388 171.399 579.388 169.984C579.388 168.569 578.24 167.421 576.825 167.421C575.41 167.421 574.262 168.569 574.262 169.984C574.262 171.399 575.41 172.547 576.825 172.547Z" fill="#005CC5"/>
<path d="M573.066 160.929C574.482 160.929 575.629 159.782 575.629 158.366C575.629 156.951 574.482 155.804 573.066 155.804C571.651 155.804 570.504 156.951 570.504 158.366C570.504 159.782 571.651 160.929 573.066 160.929Z" fill="#005CC5"/>
<path d="M566.233 153.924C567.648 153.924 568.795 152.777 568.795 151.362C568.795 149.946 567.648 148.799 566.233 148.799C564.817 148.799 563.67 149.946 563.67 151.362C563.67 152.777 564.817 153.924 566.233 153.924Z" fill="#005CC5"/>
<path d="M571.358 147.261C572.773 147.261 573.921 146.114 573.921 144.699C573.921 143.283 572.773 142.136 571.358 142.136C569.943 142.136 568.795 143.283 568.795 144.699C568.795 146.114 569.943 147.261 571.358 147.261Z" fill="#005CC5"/>
<path d="M541.973 115.655C543.388 115.655 544.535 114.508 544.535 113.092C544.535 111.677 543.388 110.53 541.973 110.53C540.557 110.53 539.41 111.677 539.41 113.092C539.41 114.508 540.557 115.655 541.973 115.655Z" fill="#005CC5"/>
<path d="M552.223 115.655C553.639 115.655 554.786 114.508 554.786 113.092C554.786 111.677 553.639 110.53 552.223 110.53C550.808 110.53 549.661 111.677 549.661 113.092C549.661 114.508 550.808 115.655 552.223 115.655Z" fill="#005CC5"/>
<path d="M503.026 135.008C502.452 136.302 503.035 137.816 504.329 138.39C505.623 138.964 507.137 138.38 507.711 137.086C508.285 135.793 507.701 134.279 506.407 133.705C505.113 133.131 503.599 133.714 503.026 135.008Z" fill="#005CC5"/>
<path d="M534.7 172.001C533.402 172.566 532.808 174.076 533.372 175.374C533.937 176.671 535.446 177.266 536.744 176.702C538.042 176.137 538.637 174.627 538.072 173.329C537.508 172.032 535.998 171.437 534.7 172.001Z" fill="#005CC5"/>
<path d="M493.441 126.881C492.867 128.175 493.45 129.689 494.744 130.263C496.038 130.837 497.552 130.254 498.126 128.96C498.7 127.666 498.116 126.152 496.822 125.578C495.529 125.004 494.015 125.588 493.441 126.881Z" fill="#005CC5"/>
<path d="M533.14 159.533C531.842 160.097 531.247 161.607 531.812 162.905C532.376 164.203 533.886 164.797 535.184 164.233C536.482 163.668 537.076 162.158 536.512 160.861C535.947 159.563 534.438 158.968 533.14 159.533Z" fill="#005CC5"/>
<path d="M546.803 202.136C545.449 201.725 544.018 202.491 543.608 203.845C543.197 205.2 543.963 206.631 545.317 207.041C546.672 207.451 548.102 206.686 548.513 205.331C548.923 203.977 548.158 202.546 546.803 202.136Z" fill="#005CC5"/>
<path d="M472.089 126.364C472.651 127.663 474.16 128.26 475.459 127.698C476.758 127.136 477.355 125.627 476.793 124.328C476.231 123.029 474.722 122.432 473.423 122.994C472.124 123.556 471.527 125.065 472.089 126.364Z" fill="#005CC5"/>
<path d="M458.427 123.617C458.989 124.916 460.498 125.514 461.796 124.952C463.095 124.39 463.693 122.881 463.131 121.582C462.569 120.283 461.06 119.686 459.761 120.248C458.462 120.81 457.865 122.318 458.427 123.617Z" fill="#005CC5"/>
<path d="M512.524 148.567C511.95 149.86 512.533 151.374 513.827 151.948C515.121 152.522 516.635 151.939 517.209 150.645C517.783 149.351 517.199 147.837 515.905 147.263C514.612 146.689 513.098 147.273 512.524 148.567Z" fill="#005CC5"/>
<path d="M532.522 188.412C531.224 188.976 530.63 190.486 531.194 191.784C531.759 193.082 533.268 193.677 534.566 193.112C535.864 192.548 536.459 191.038 535.894 189.74C535.33 188.442 533.82 187.848 532.522 188.412Z" fill="#005CC5"/>
<path d="M504.247 144.895C503.673 146.189 504.256 147.703 505.55 148.277C506.844 148.851 508.358 148.267 508.932 146.973C509.506 145.68 508.922 144.165 507.628 143.592C506.335 143.018 504.82 143.601 504.247 144.895Z" fill="#005CC5"/>
<path d="M528.911 180.108C527.613 180.673 527.018 182.183 527.583 183.481C528.147 184.778 529.657 185.373 530.955 184.809C532.253 184.244 532.847 182.734 532.283 181.436C531.718 180.139 530.209 179.544 528.911 180.108Z" fill="#005CC5"/>
<path d="M482.565 131.36C483.723 132.174 485.321 131.894 486.135 130.736C486.949 129.578 486.67 127.98 485.511 127.166C484.353 126.353 482.755 126.632 481.941 127.79C481.128 128.948 481.407 130.546 482.565 131.36Z" fill="#005CC5"/>
<path d="M522.101 155.473C522.403 156.855 523.769 157.731 525.152 157.429C526.534 157.126 527.41 155.761 527.108 154.378C526.806 152.995 525.44 152.119 524.057 152.422C522.674 152.724 521.798 154.09 522.101 155.473Z" fill="#005CC5"/>
<path d="M541.021 191.893C540.355 193.143 540.829 194.695 542.079 195.36C543.328 196.025 544.88 195.551 545.545 194.302C546.21 193.052 545.736 191.5 544.487 190.835C543.238 190.17 541.686 190.644 541.021 191.893Z" fill="#005CC5"/>
<path d="M460.853 130.945C461.415 132.244 462.923 132.841 464.222 132.279C465.521 131.717 466.119 130.208 465.557 128.909C464.994 127.61 463.486 127.013 462.187 127.575C460.888 128.137 460.291 129.646 460.853 130.945Z" fill="#005CC5"/>
<path d="M496.328 144.163C497.486 144.977 499.085 144.698 499.898 143.54C500.712 142.382 500.433 140.783 499.275 139.969C498.117 139.156 496.518 139.435 495.705 140.593C494.891 141.751 495.17 143.349 496.328 144.163Z" fill="#005CC5"/>
<path d="M523.575 174.212C523.877 175.595 525.243 176.471 526.626 176.169C528.008 175.866 528.884 174.5 528.582 173.118C528.279 171.735 526.914 170.859 525.531 171.161C524.148 171.464 523.272 172.83 523.575 174.212Z" fill="#005CC5"/>
<path d="M530.008 207.127C529.343 208.377 529.817 209.929 531.066 210.594C532.315 211.259 533.867 210.785 534.532 209.536C535.197 208.286 534.724 206.735 533.474 206.07C532.225 205.404 530.673 205.878 530.008 207.127Z" fill="#005CC5"/>
<path d="M486.048 140.072C487.206 140.885 488.805 140.606 489.618 139.448C490.432 138.29 490.153 136.692 488.995 135.878C487.837 135.064 486.238 135.343 485.425 136.502C484.611 137.66 484.89 139.258 486.048 140.072Z" fill="#005CC5"/>
<path d="M518.772 164.245C519.074 165.627 520.44 166.503 521.823 166.201C523.206 165.899 524.082 164.533 523.779 163.15C523.477 161.767 522.111 160.892 520.728 161.194C519.346 161.496 518.47 162.862 518.772 164.245Z" fill="#005CC5"/>
<path d="M532.804 196.422C532.138 197.672 532.612 199.224 533.861 199.889C535.111 200.554 536.663 200.08 537.328 198.831C537.993 197.581 537.519 196.029 536.27 195.364C535.02 194.699 533.469 195.173 532.804 196.422Z" fill="#005CC5"/>
<path d="M432.46 165.542C433.876 165.542 435.023 164.395 435.023 162.979C435.023 161.564 433.876 160.417 432.46 160.417C431.045 160.417 429.898 161.564 429.898 162.979C429.898 164.395 431.045 165.542 432.46 165.542Z" fill="#129A32"/>
<path d="M395.728 214.233C397.144 214.233 398.291 213.086 398.291 211.67C398.291 210.255 397.144 209.108 395.728 209.108C394.313 209.108 393.166 210.255 393.166 211.67C393.166 213.086 394.313 214.233 395.728 214.233Z" fill="#129A32"/>
<path d="M405.296 197.148C406.711 197.148 407.859 196.001 407.859 194.586C407.859 193.17 406.711 192.023 405.296 192.023C403.881 192.023 402.733 193.17 402.733 194.586C402.733 196.001 403.881 197.148 405.296 197.148Z" fill="#129A32"/>
<path d="M398.291 197.148C399.707 197.148 400.854 196.001 400.854 194.586C400.854 193.17 399.707 192.023 398.291 192.023C396.876 192.023 395.729 193.17 395.729 194.586C395.729 196.001 396.876 197.148 398.291 197.148Z" fill="#129A32"/>
<path d="M409.909 181.772C411.324 181.772 412.471 180.625 412.471 179.21C412.471 177.794 411.324 176.647 409.909 176.647C408.493 176.647 407.346 177.794 407.346 179.21C407.346 180.625 408.493 181.772 409.909 181.772Z" fill="#129A32"/>
<path d="M440.148 164.688C441.564 164.688 442.711 163.54 442.711 162.125C442.711 160.71 441.564 159.562 440.148 159.562C438.733 159.562 437.586 160.71 437.586 162.125C437.586 163.54 438.733 164.688 440.148 164.688Z" fill="#129A32"/>
<path d="M425.285 169.813C426.7 169.813 427.848 168.666 427.848 167.25C427.848 165.835 426.7 164.688 425.285 164.688C423.87 164.688 422.722 165.835 422.722 167.25C422.722 168.666 423.87 169.813 425.285 169.813Z" fill="#129A32"/>
<path d="M420.159 177.672C421.575 177.672 422.722 176.525 422.722 175.109C422.722 173.694 421.575 172.547 420.159 172.547C418.744 172.547 417.597 173.694 417.597 175.109C417.597 176.525 418.744 177.672 420.159 177.672Z" fill="#129A32"/>
<path d="M412.984 188.777C414.399 188.777 415.547 187.63 415.547 186.214C415.547 184.799 414.399 183.652 412.984 183.652C411.569 183.652 410.421 184.799 410.421 186.214C410.421 187.63 411.569 188.777 412.984 188.777Z" fill="#129A32"/>
<path d="M403.417 188.777C404.832 188.777 405.979 187.63 405.979 186.214C405.979 184.799 404.832 183.652 403.417 183.652C402.001 183.652 400.854 184.799 400.854 186.214C400.854 187.63 402.001 188.777 403.417 188.777Z" fill="#129A32"/>
<path d="M412.471 174.938C413.887 174.938 415.034 173.791 415.034 172.376C415.034 170.96 413.887 169.813 412.471 169.813C411.056 169.813 409.909 170.96 409.909 172.376C409.909 173.791 411.056 174.938 412.471 174.938Z" fill="#129A32"/>
<path d="M403.417 213.55C404.832 213.55 405.979 212.402 405.979 210.987C405.979 209.572 404.832 208.424 403.417 208.424C402.001 208.424 400.854 209.572 400.854 210.987C400.854 212.402 402.001 213.55 403.417 213.55Z" fill="#129A32"/>
<path d="M398.291 204.836C399.707 204.836 400.854 203.689 400.854 202.274C400.854 200.858 399.707 199.711 398.291 199.711C396.876 199.711 395.729 200.858 395.729 202.274C395.729 203.689 396.876 204.836 398.291 204.836Z" fill="#129A32"/>
<path d="M296.125 199.711C297.541 199.711 298.688 198.564 298.688 197.148C298.688 195.733 297.541 194.586 296.125 194.586C294.71 194.586 293.563 195.733 293.563 197.148C293.563 198.564 294.71 199.711 296.125 199.711Z" fill="#129A32"/>
<path d="M296.125 211.67C297.541 211.67 298.688 210.523 298.688 209.108C298.688 207.692 297.541 206.545 296.125 206.545C294.71 206.545 293.563 207.692 293.563 209.108C293.563 210.523 294.71 211.67 296.125 211.67Z" fill="#129A32"/>
<path d="M293.563 191.34C294.978 191.34 296.125 190.192 296.125 188.777C296.125 187.362 294.978 186.214 293.563 186.214C292.147 186.214 291 187.362 291 188.777C291 190.192 292.147 191.34 293.563 191.34Z" fill="#129A32"/>
<path d="M301.251 186.898C302.666 186.898 303.813 185.75 303.813 184.335C303.813 182.92 302.666 181.772 301.251 181.772C299.835 181.772 298.688 182.92 298.688 184.335C298.688 185.75 299.835 186.898 301.251 186.898Z" fill="#129A32"/>
<path d="M300.567 167.25C301.983 167.25 303.13 166.103 303.13 164.688C303.13 163.272 301.983 162.125 300.567 162.125C299.152 162.125 298.005 163.272 298.005 164.688C298.005 166.103 299.152 167.25 300.567 167.25Z" fill="#129A32"/>
<path d="M327.219 117.876C328.635 117.876 329.782 116.729 329.782 115.313C329.782 113.898 328.635 112.751 327.219 112.751C325.804 112.751 324.657 113.898 324.657 115.313C324.657 116.729 325.804 117.876 327.219 117.876Z" fill="#129A32"/>
<path d="M309.28 148.799C310.696 148.799 311.843 147.652 311.843 146.236C311.843 144.821 310.696 143.674 309.28 143.674C307.865 143.674 306.718 144.821 306.718 146.236C306.718 147.652 307.865 148.799 309.28 148.799Z" fill="#129A32"/>
<path d="M314.406 138.377C315.821 138.377 316.969 137.23 316.969 135.815C316.969 134.399 315.821 133.252 314.406 133.252C312.99 133.252 311.843 134.399 311.843 135.815C311.843 137.23 312.99 138.377 314.406 138.377Z" fill="#129A32"/>
<path d="M324.657 131.031C326.072 131.031 327.219 129.884 327.219 128.468C327.219 127.053 326.072 125.906 324.657 125.906C323.241 125.906 322.094 127.053 322.094 128.468C322.094 129.884 323.241 131.031 324.657 131.031Z" fill="#129A32"/>
<path d="M336.274 109.163C337.689 109.163 338.837 108.015 338.837 106.6C338.837 105.185 337.689 104.037 336.274 104.037C334.859 104.037 333.711 105.185 333.711 106.6C333.711 108.015 334.859 109.163 336.274 109.163Z" fill="#129A32"/>
<path d="M305.693 157C307.108 157 308.255 155.852 308.255 154.437C308.255 153.022 307.108 151.874 305.693 151.874C304.277 151.874 303.13 153.022 303.13 154.437C303.13 155.852 304.277 157 305.693 157Z" fill="#129A32"/>
<path d="M316.969 146.236C318.384 146.236 319.531 145.089 319.531 143.674C319.531 142.258 318.384 141.111 316.969 141.111C315.553 141.111 314.406 142.258 314.406 143.674C314.406 145.089 315.553 146.236 316.969 146.236Z" fill="#129A32"/>
<path d="M296.125 180.064C297.541 180.064 298.688 178.916 298.688 177.501C298.688 176.086 297.541 174.938 296.125 174.938C294.71 174.938 293.563 176.086 293.563 177.501C293.563 178.916 294.71 180.064 296.125 180.064Z" fill="#129A32"/>
<path d="M304.155 176.647C305.57 176.647 306.718 175.5 306.718 174.084C306.718 172.669 305.57 171.522 304.155 171.522C302.74 171.522 301.592 172.669 301.592 174.084C301.592 175.5 302.74 176.647 304.155 176.647Z" fill="#129A32"/>
<path d="M308.255 164.688C309.671 164.688 310.818 163.54 310.818 162.125C310.818 160.71 309.671 159.562 308.255 159.562C306.84 159.562 305.693 160.71 305.693 162.125C305.693 163.54 306.84 164.688 308.255 164.688Z" fill="#129A32"/>
<path d="M313.381 125.906C314.796 125.906 315.943 124.758 315.943 123.343C315.943 121.928 314.796 120.78 313.381 120.78C311.965 120.78 310.818 121.928 310.818 123.343C310.818 124.758 311.965 125.906 313.381 125.906Z" fill="#129A32"/>
<path d="M348.917 106.6C350.332 106.6 351.479 105.453 351.479 104.037C351.479 102.622 350.332 101.475 348.917 101.475C347.501 101.475 346.354 102.622 346.354 104.037C346.354 105.453 347.501 106.6 348.917 106.6Z" fill="#129A32"/>
<path d="M357.117 90.0281C358.533 90.0281 359.68 88.8807 359.68 87.4654C359.68 86.05 358.533 84.9027 357.117 84.9027C355.702 84.9027 354.555 86.05 354.555 87.4654C354.555 88.8807 355.702 90.0281 357.117 90.0281Z" fill="#129A32"/>
<path d="M380.694 81.4858C382.109 81.4858 383.257 80.3384 383.257 78.9231C383.257 77.5078 382.109 76.3604 380.694 76.3604C379.279 76.3604 378.131 77.5078 378.131 78.9231C378.131 80.3384 379.279 81.4858 380.694 81.4858Z" fill="#129A32"/>
<path d="M395.728 71.235C397.144 71.235 398.291 70.0877 398.291 68.6723C398.291 67.257 397.144 66.1096 395.728 66.1096C394.313 66.1096 393.166 67.257 393.166 68.6723C393.166 70.0877 394.313 71.235 395.728 71.235Z" fill="#129A32"/>
<path d="M400.17 63.547C401.586 63.547 402.733 62.3996 402.733 60.9843C402.733 59.5689 401.586 58.4216 400.17 58.4216C398.755 58.4216 397.608 59.5689 397.608 60.9843C397.608 62.3996 398.755 63.547 400.17 63.547Z" fill="#129A32"/>
<path d="M418.109 63.3761C419.525 63.3761 420.672 62.2288 420.672 60.8134C420.672 59.3981 419.525 58.2507 418.109 58.2507C416.694 58.2507 415.547 59.3981 415.547 60.8134C415.547 62.2288 416.694 63.3761 418.109 63.3761Z" fill="#129A32"/>
<path d="M435.023 58.2507C436.438 58.2507 437.586 57.1034 437.586 55.6881C437.586 54.2727 436.438 53.1254 435.023 53.1254C433.608 53.1254 432.46 54.2727 432.46 55.6881C432.46 57.1034 433.608 58.2507 435.023 58.2507Z" fill="#129A32"/>
<path d="M429.214 63.3761C430.63 63.3761 431.777 62.2288 431.777 60.8134C431.777 59.3981 430.63 58.2507 429.214 58.2507C427.799 58.2507 426.652 59.3981 426.652 60.8134C426.652 62.2288 427.799 63.3761 429.214 63.3761Z" fill="#129A32"/>
<path d="M408.542 63.3761C409.957 63.3761 411.105 62.2288 411.105 60.8134C411.105 59.3981 409.957 58.2507 408.542 58.2507C407.127 58.2507 405.979 59.3981 405.979 60.8134C405.979 62.2288 407.127 63.3761 408.542 63.3761Z" fill="#129A32"/>
<path d="M405.979 68.6723C407.395 68.6723 408.542 67.525 408.542 66.1097C408.542 64.6943 407.395 63.547 405.979 63.547C404.564 63.547 403.417 64.6943 403.417 66.1097C403.417 67.525 404.564 68.6723 405.979 68.6723Z" fill="#129A32"/>
<path d="M383.257 73.7977C384.672 73.7977 385.819 72.6504 385.819 71.235C385.819 69.8197 384.672 68.6723 383.257 68.6723C381.841 68.6723 380.694 69.8197 380.694 71.235C380.694 72.6504 381.841 73.7977 383.257 73.7977Z" fill="#129A32"/>
<path d="M390.603 76.3604C392.018 76.3604 393.166 75.213 393.166 73.7977C393.166 72.3824 392.018 71.235 390.603 71.235C389.188 71.235 388.04 72.3824 388.04 73.7977C388.04 75.213 389.188 76.3604 390.603 76.3604Z" fill="#129A32"/>
<path d="M369.931 81.4858C371.346 81.4858 372.493 80.3384 372.493 78.9231C372.493 77.5078 371.346 76.3604 369.931 76.3604C368.515 76.3604 367.368 77.5078 367.368 78.9231C367.368 80.3384 368.515 81.4858 369.931 81.4858Z" fill="#129A32"/>
<path d="M364.805 92.5908C366.221 92.5908 367.368 91.4434 367.368 90.0281C367.368 88.6127 366.221 87.4654 364.805 87.4654C363.39 87.4654 362.243 88.6127 362.243 90.0281C362.243 91.4434 363.39 92.5908 364.805 92.5908Z" fill="#129A32"/>
<path d="M362.243 81.4858C363.658 81.4858 364.805 80.3384 364.805 78.9231C364.805 77.5078 363.658 76.3604 362.243 76.3604C360.827 76.3604 359.68 77.5078 359.68 78.9231C359.68 80.3384 360.827 81.4858 362.243 81.4858Z" fill="#129A32"/>
<path d="M346.354 97.7161C347.769 97.7161 348.917 96.5688 348.917 95.1534C348.917 93.7381 347.769 92.5908 346.354 92.5908C344.939 92.5908 343.791 93.7381 343.791 95.1534C343.791 96.5688 344.939 97.7161 346.354 97.7161Z" fill="#129A32"/>
<path d="M354.555 100.279C355.97 100.279 357.117 99.1315 357.117 97.7161C357.117 96.3008 355.97 95.1534 354.555 95.1534C353.139 95.1534 351.992 96.3008 351.992 97.7161C351.992 99.1315 353.139 100.279 354.555 100.279Z" fill="#129A32"/>
<path d="M341.399 115.313C342.815 115.313 343.962 114.166 343.962 112.751C343.962 111.335 342.815 110.188 341.399 110.188C339.984 110.188 338.837 111.335 338.837 112.751C338.837 114.166 339.984 115.313 341.399 115.313Z" fill="#129A32"/>
<path d="M333.711 120.78C335.127 120.78 336.274 119.633 336.274 118.218C336.274 116.802 335.127 115.655 333.711 115.655C332.296 115.655 331.149 116.802 331.149 118.218C331.149 119.633 332.296 120.78 333.711 120.78Z" fill="#129A32"/>
<path d="M315.26 201.078C316.675 201.078 317.823 199.931 317.823 198.515C317.823 197.1 316.675 195.952 315.26 195.952C313.845 195.952 312.697 197.1 312.697 198.515C312.697 199.931 313.845 201.078 315.26 201.078Z" fill="#129A32"/>
<path d="M315.26 213.037C316.675 213.037 317.823 211.89 317.823 210.474C317.823 209.059 316.675 207.912 315.26 207.912C313.845 207.912 312.697 209.059 312.697 210.474C312.697 211.89 313.845 213.037 315.26 213.037Z" fill="#129A32"/>
<path d="M312.697 192.706C314.113 192.706 315.26 191.559 315.26 190.144C315.26 188.728 314.113 187.581 312.697 187.581C311.282 187.581 310.135 188.728 310.135 190.144C310.135 191.559 311.282 192.706 312.697 192.706Z" fill="#129A32"/>
<path d="M320.385 188.264C321.801 188.264 322.948 187.117 322.948 185.702C322.948 184.286 321.801 183.139 320.385 183.139C318.97 183.139 317.823 184.286 317.823 185.702C317.823 187.117 318.97 188.264 320.385 188.264Z" fill="#129A32"/>
<path d="M319.702 168.617C321.117 168.617 322.265 167.47 322.265 166.054C322.265 164.639 321.117 163.492 319.702 163.492C318.287 163.492 317.139 164.639 317.139 166.054C317.139 167.47 318.287 168.617 319.702 168.617Z" fill="#129A32"/>
<path d="M339.008 127.102C340.423 127.102 341.57 125.954 341.57 124.539C341.57 123.124 340.423 121.976 339.008 121.976C337.592 121.976 336.445 123.124 336.445 124.539C336.445 125.954 337.592 127.102 339.008 127.102Z" fill="#129A32"/>
<path d="M334.053 150.337C335.468 150.337 336.616 149.189 336.616 147.774C336.616 146.359 335.468 145.211 334.053 145.211C332.638 145.211 331.49 146.359 331.49 147.774C331.49 149.189 332.638 150.337 334.053 150.337Z" fill="#129A32"/>
<path d="M326.194 147.603C327.61 147.603 328.757 146.456 328.757 145.04C328.757 143.625 327.61 142.478 326.194 142.478C324.779 142.478 323.632 143.625 323.632 145.04C323.632 146.456 324.779 147.603 326.194 147.603Z" fill="#129A32"/>
<path d="M336.445 140.257C337.86 140.257 339.008 139.109 339.008 137.694C339.008 136.279 337.86 135.131 336.445 135.131C335.03 135.131 333.882 136.279 333.882 137.694C333.882 139.109 335.03 140.257 336.445 140.257Z" fill="#129A32"/>
<path d="M348.063 118.388C349.478 118.388 350.625 117.241 350.625 115.826C350.625 114.41 349.478 113.263 348.063 113.263C346.647 113.263 345.5 114.41 345.5 115.826C345.5 117.241 346.647 118.388 348.063 118.388Z" fill="#129A32"/>
<path d="M322.265 160.929C323.68 160.929 324.828 159.782 324.828 158.366C324.828 156.951 323.68 155.804 322.265 155.804C320.85 155.804 319.702 156.951 319.702 158.366C319.702 159.782 320.85 160.929 322.265 160.929Z" fill="#129A32"/>
<path d="M328.757 155.462C330.172 155.462 331.32 154.315 331.32 152.899C331.32 151.484 330.172 150.337 328.757 150.337C327.342 150.337 326.194 151.484 326.194 152.899C326.194 154.315 327.342 155.462 328.757 155.462Z" fill="#129A32"/>
<path d="M315.26 181.431C316.675 181.431 317.823 180.283 317.823 178.868C317.823 177.453 316.675 176.305 315.26 176.305C313.845 176.305 312.697 177.453 312.697 178.868C312.697 180.283 313.845 181.431 315.26 181.431Z" fill="#129A32"/>
<path d="M323.29 178.014C324.705 178.014 325.853 176.866 325.853 175.451C325.853 174.036 324.705 172.888 323.29 172.888C321.875 172.888 320.727 174.036 320.727 175.451C320.727 176.866 321.875 178.014 323.29 178.014Z" fill="#129A32"/>
<path d="M327.39 166.054C328.806 166.054 329.953 164.907 329.953 163.492C329.953 162.076 328.806 160.929 327.39 160.929C325.975 160.929 324.828 162.076 324.828 163.492C324.828 164.907 325.975 166.054 327.39 166.054Z" fill="#129A32"/>
<path d="M339.008 135.131C340.423 135.131 341.57 133.984 341.57 132.569C341.57 131.153 340.423 130.006 339.008 130.006C337.592 130.006 336.445 131.153 336.445 132.569C336.445 133.984 337.592 135.131 339.008 135.131Z" fill="#129A32"/>
<path d="M360.705 115.826C362.12 115.826 363.268 114.678 363.268 113.263C363.268 111.848 362.12 110.7 360.705 110.7C359.29 110.7 358.142 111.848 358.142 113.263C358.142 114.678 359.29 115.826 360.705 115.826Z" fill="#129A32"/>
<path d="M368.906 99.2537C370.321 99.2537 371.468 98.1064 371.468 96.6911C371.468 95.2757 370.321 94.1284 368.906 94.1284C367.49 94.1284 366.343 95.2757 366.343 96.6911C366.343 98.1064 367.49 99.2537 368.906 99.2537Z" fill="#129A32"/>
<path d="M392.482 90.7115C393.898 90.7115 395.045 89.5641 395.045 88.1488C395.045 86.7334 393.898 85.5861 392.482 85.5861C391.067 85.5861 389.92 86.7334 389.92 88.1488C389.92 89.5641 391.067 90.7115 392.482 90.7115Z" fill="#129A32"/>
<path d="M402.392 87.6362C403.807 87.6362 404.954 86.4889 404.954 85.0735C404.954 83.6582 403.807 82.5108 402.392 82.5108C400.976 82.5108 399.829 83.6582 399.829 85.0735C399.829 86.4889 400.976 87.6362 402.392 87.6362Z" fill="#129A32"/>
<path d="M406.833 79.9482C408.249 79.9482 409.396 78.8008 409.396 77.3855C409.396 75.9701 408.249 74.8228 406.833 74.8228C405.418 74.8228 404.271 75.9701 404.271 77.3855C404.271 78.8008 405.418 79.9482 406.833 79.9482Z" fill="#129A32"/>
<path d="M422.893 82.8525C424.308 82.8525 425.456 81.7052 425.456 80.2899C425.456 78.8745 424.308 77.7272 422.893 77.7272C421.478 77.7272 420.33 78.8745 420.33 80.2899C420.33 81.7052 421.478 82.8525 422.893 82.8525Z" fill="#129A32"/>
<path d="M439.807 77.7272C441.222 77.7272 442.369 76.5798 442.369 75.1645C442.369 73.7491 441.222 72.6018 439.807 72.6018C438.391 72.6018 437.244 73.7491 437.244 75.1645C437.244 76.5798 438.391 77.7272 439.807 77.7272Z" fill="#129A32"/>
<path d="M433.998 82.8525C435.413 82.8525 436.561 81.7052 436.561 80.2899C436.561 78.8745 435.413 77.7272 433.998 77.7272C432.583 77.7272 431.435 78.8745 431.435 80.2899C431.435 81.7052 432.583 82.8525 433.998 82.8525Z" fill="#129A32"/>
<path d="M413.326 82.8525C414.741 82.8525 415.888 81.7052 415.888 80.2899C415.888 78.8745 414.741 77.7272 413.326 77.7272C411.91 77.7272 410.763 78.8745 410.763 80.2899C410.763 81.7052 411.91 82.8525 413.326 82.8525Z" fill="#129A32"/>
<path d="M410.763 88.1488C412.178 88.1488 413.326 87.0014 413.326 85.5861C413.326 84.1707 412.178 83.0234 410.763 83.0234C409.348 83.0234 408.2 84.1707 408.2 85.5861C408.2 87.0014 409.348 88.1488 410.763 88.1488Z" fill="#129A32"/>
<path d="M395.045 83.0234C396.46 83.0234 397.608 81.876 397.608 80.4607C397.608 79.0454 396.46 77.898 395.045 77.898C393.63 77.898 392.482 79.0454 392.482 80.4607C392.482 81.876 393.63 83.0234 395.045 83.0234Z" fill="#129A32"/>
<path d="M387.186 84.9027C388.602 84.9027 389.749 83.7553 389.749 82.34C389.749 80.9247 388.602 79.7773 387.186 79.7773C385.771 79.7773 384.624 80.9247 384.624 82.34C384.624 83.7553 385.771 84.9027 387.186 84.9027Z" fill="#129A32"/>
<path d="M381.719 90.7115C383.135 90.7115 384.282 89.5641 384.282 88.1488C384.282 86.7334 383.135 85.5861 381.719 85.5861C380.304 85.5861 379.156 86.7334 379.156 88.1488C379.156 89.5641 380.304 90.7115 381.719 90.7115Z" fill="#129A32"/>
<path d="M376.594 101.816C378.009 101.816 379.157 100.669 379.157 99.2537C379.157 97.8384 378.009 96.6911 376.594 96.6911C375.178 96.6911 374.031 97.8384 374.031 99.2537C374.031 100.669 375.178 101.816 376.594 101.816Z" fill="#129A32"/>
<path d="M384.623 98.5704C386.039 98.5704 387.186 97.423 387.186 96.0077C387.186 94.5923 386.039 93.445 384.623 93.445C383.208 93.445 382.061 94.5923 382.061 96.0077C382.061 97.423 383.208 98.5704 384.623 98.5704Z" fill="#129A32"/>
<path d="M358.142 106.942C359.558 106.942 360.705 105.794 360.705 104.379C360.705 102.964 359.558 101.816 358.142 101.816C356.727 101.816 355.58 102.964 355.58 104.379C355.58 105.794 356.727 106.942 358.142 106.942Z" fill="#129A32"/>
<path d="M366.343 109.504C367.758 109.504 368.906 108.357 368.906 106.942C368.906 105.526 367.758 104.379 366.343 104.379C364.928 104.379 363.78 105.526 363.78 106.942C363.78 108.357 364.928 109.504 366.343 109.504Z" fill="#129A32"/>
<path d="M353.188 124.539C354.603 124.539 355.751 123.392 355.751 121.976C355.751 120.561 354.603 119.414 353.188 119.414C351.773 119.414 350.625 120.561 350.625 121.976C350.625 123.392 351.773 124.539 353.188 124.539Z" fill="#129A32"/>
<path d="M345.5 130.006C346.915 130.006 348.063 128.859 348.063 127.443C348.063 126.028 346.915 124.881 345.5 124.881C344.084 124.881 342.937 126.028 342.937 127.443C342.937 128.859 344.084 130.006 345.5 130.006Z" fill="#129A32"/>
<path d="M442.02 121.409C442.582 122.708 444.091 123.305 445.39 122.743C446.689 122.181 447.286 120.673 446.724 119.374C446.162 118.075 444.653 117.477 443.354 118.039C442.056 118.602 441.458 120.11 442.02 121.409Z" fill="#129A32"/>
<path d="M429.549 122.947C430.111 124.246 431.619 124.843 432.918 124.281C434.217 123.719 434.815 122.21 434.253 120.911C433.691 119.612 432.182 119.015 430.883 119.577C429.584 120.139 428.987 121.648 429.549 122.947Z" fill="#129A32"/>
<path d="M361.21 176.592C361.772 177.891 363.281 178.489 364.58 177.927C365.879 177.364 366.476 175.856 365.914 174.557C365.352 173.258 363.843 172.661 362.544 173.223C361.245 173.785 360.648 175.293 361.21 176.592Z" fill="#129A32"/>
<path d="M370.948 173.175C371.51 174.474 373.019 175.072 374.318 174.51C375.617 173.948 376.214 172.439 375.652 171.14C375.09 169.841 373.582 169.244 372.283 169.806C370.984 170.368 370.386 171.876 370.948 173.175Z" fill="#129A32"/>
<path d="M369.069 162.925C369.631 164.224 371.14 164.821 372.439 164.259C373.738 163.697 374.335 162.188 373.773 160.889C373.211 159.59 371.702 158.993 370.403 159.555C369.104 160.117 368.507 161.626 369.069 162.925Z" fill="#129A32"/>
<path d="M397.932 140.82C399.315 140.52 400.194 139.155 399.894 137.772C399.594 136.389 398.23 135.511 396.847 135.81C395.463 136.11 394.585 137.475 394.885 138.858C395.185 140.241 396.549 141.119 397.932 140.82Z" fill="#129A32"/>
<path d="M411.693 131.719C413.076 131.419 413.955 130.055 413.655 128.672C413.355 127.289 411.991 126.41 410.608 126.71C409.224 127.01 408.346 128.374 408.646 129.757C408.946 131.14 410.31 132.019 411.693 131.719Z" fill="#129A32"/>
<path d="M425.468 133.978C426.852 133.678 427.73 132.314 427.43 130.931C427.13 129.548 425.766 128.669 424.383 128.969C423 129.269 422.121 130.633 422.421 132.016C422.721 133.4 424.085 134.278 425.468 133.978Z" fill="#129A32"/>
<path d="M356.434 212.012C357.849 212.012 358.997 210.865 358.997 209.449C358.997 208.034 357.849 206.887 356.434 206.887C355.019 206.887 353.871 208.034 353.871 209.449C353.871 210.865 355.019 212.012 356.434 212.012Z" fill="#129A32"/>
<path d="M366.001 194.927C367.417 194.927 368.564 193.78 368.564 192.365C368.564 190.949 367.417 189.802 366.001 189.802C364.586 189.802 363.439 190.949 363.439 192.365C363.439 193.78 364.586 194.927 366.001 194.927Z" fill="#129A32"/>
<path d="M358.997 194.927C360.412 194.927 361.559 193.78 361.559 192.365C361.559 190.949 360.412 189.802 358.997 189.802C357.581 189.802 356.434 190.949 356.434 192.365C356.434 193.78 357.581 194.927 358.997 194.927Z" fill="#129A32"/>
<path d="M379.33 161.458C380.713 161.158 381.591 159.794 381.291 158.411C380.992 157.027 379.627 156.149 378.244 156.449C376.861 156.749 375.983 158.113 376.282 159.496C376.582 160.879 377.946 161.758 379.33 161.458Z" fill="#129A32"/>
<path d="M444.211 132.539C445.594 132.239 446.472 130.875 446.173 129.491C445.873 128.108 444.509 127.23 443.125 127.53C441.742 127.829 440.864 129.194 441.163 130.577C441.463 131.96 442.828 132.838 444.211 132.539Z" fill="#129A32"/>
<path d="M434.235 137.323C435.618 137.023 436.496 135.659 436.196 134.276C435.897 132.892 434.532 132.014 433.149 132.314C431.766 132.614 430.888 133.978 431.187 135.361C431.487 136.744 432.851 137.623 434.235 137.323Z" fill="#129A32"/>
<path d="M405.265 138.356C406.648 138.057 407.527 136.692 407.227 135.309C406.927 133.926 405.563 133.048 404.179 133.347C402.796 133.647 401.918 135.011 402.218 136.395C402.517 137.778 403.882 138.656 405.265 138.356Z" fill="#129A32"/>
<path d="M391.824 146.513C393.207 146.214 394.086 144.849 393.786 143.466C393.486 142.083 392.122 141.205 390.739 141.504C389.355 141.804 388.477 143.168 388.777 144.552C389.077 145.935 390.441 146.813 391.824 146.513Z" fill="#129A32"/>
<path d="M388.479 155.28C389.863 154.98 390.741 153.616 390.441 152.232C390.142 150.849 388.777 149.971 387.394 150.271C386.011 150.57 385.132 151.935 385.432 153.318C385.732 154.701 387.096 155.579 388.479 155.28Z" fill="#129A32"/>
<path d="M419.207 130.091C420.59 129.791 421.468 128.427 421.169 127.043C420.869 125.66 419.505 124.782 418.121 125.082C416.738 125.381 415.86 126.746 416.16 128.129C416.459 129.512 417.824 130.391 419.207 130.091Z" fill="#129A32"/>
<path d="M383.819 167.652C385.202 167.353 386.08 165.988 385.78 164.605C385.481 163.222 384.116 162.344 382.733 162.643C381.35 162.943 380.472 164.307 380.771 165.691C381.071 167.074 382.435 167.952 383.819 167.652Z" fill="#129A32"/>
<path d="M364.122 186.556C365.537 186.556 366.685 185.409 366.685 183.993C366.685 182.578 365.537 181.431 364.122 181.431C362.707 181.431 361.559 182.578 361.559 183.993C361.559 185.409 362.707 186.556 364.122 186.556Z" fill="#129A32"/>
<path d="M380.387 154.236C381.77 153.937 382.648 152.572 382.349 151.189C382.049 149.806 380.685 148.928 379.301 149.227C377.918 149.527 377.04 150.891 377.34 152.275C377.639 153.658 379.004 154.536 380.387 154.236Z" fill="#129A32"/>
<path d="M364.122 211.329C365.537 211.329 366.685 210.181 366.685 208.766C366.685 207.351 365.537 206.203 364.122 206.203C362.707 206.203 361.559 207.351 361.559 208.766C361.559 210.181 362.707 211.329 364.122 211.329Z" fill="#129A32"/>
<path d="M358.997 202.616C360.412 202.616 361.559 201.468 361.559 200.053C361.559 198.637 360.412 197.49 358.997 197.49C357.581 197.49 356.434 198.637 356.434 200.053C356.434 201.468 357.581 202.616 358.997 202.616Z" fill="#129A32"/>
<path d="M447.836 159.562C449.252 159.562 450.399 158.415 450.399 157C450.399 155.584 449.252 154.437 447.836 154.437C446.421 154.437 445.274 155.584 445.274 157C445.274 158.415 446.421 159.562 447.836 159.562Z" fill="#005CC5"/>
<path d="M447.836 63.3761C449.252 63.3761 450.399 62.2288 450.399 60.8134C450.399 59.3981 449.252 58.2508 447.836 58.2508C446.421 58.2508 445.274 59.3981 445.274 60.8134C445.274 62.2288 446.421 63.3761 447.836 63.3761Z" fill="#005CC5"/>
<path d="M448.862 55.6881C450.277 55.6881 451.424 54.5407 451.424 53.1254C451.424 51.71 450.277 50.5627 448.862 50.5627C447.446 50.5627 446.299 51.71 446.299 53.1254C446.299 54.5407 447.446 55.6881 448.862 55.6881Z" fill="#005CC5"/>
<path d="M452.62 82.8525C454.036 82.8525 455.183 81.7052 455.183 80.2899C455.183 78.8745 454.036 77.7272 452.62 77.7272C451.205 77.7272 450.057 78.8745 450.057 80.2899C450.057 81.7052 451.205 82.8525 452.62 82.8525Z" fill="#005CC5"/>
<path d="M450.117 127.214C450.679 128.512 452.187 129.11 453.486 128.548C454.785 127.986 455.383 126.477 454.821 125.178C454.259 123.879 452.75 123.282 451.451 123.844C450.152 124.406 449.555 125.915 450.117 127.214Z" fill="#005CC5"/>
<path d="M398.291 223.8C399.707 223.8 400.854 222.653 400.854 221.238C400.854 219.822 399.707 218.675 398.291 218.675C396.876 218.675 395.729 219.822 395.729 221.238C395.729 222.653 396.876 223.8 398.291 223.8Z" fill="#FFB500"/>
<path d="M403.417 228.926C404.832 228.926 405.979 227.778 405.979 226.363C405.979 224.948 404.832 223.8 403.417 223.8C402.001 223.8 400.854 224.948 400.854 226.363C400.854 227.778 402.001 228.926 403.417 228.926Z" fill="#FFB500"/>
<path d="M398.291 233.368C399.707 233.368 400.854 232.22 400.854 230.805C400.854 229.39 399.707 228.242 398.291 228.242C396.876 228.242 395.729 229.39 395.729 230.805C395.729 232.22 396.876 233.368 398.291 233.368Z" fill="#FFB500"/>
<path d="M407.859 235.93C409.274 235.93 410.421 234.783 410.421 233.368C410.421 231.952 409.274 230.805 407.859 230.805C406.443 230.805 405.296 231.952 405.296 233.368C405.296 234.783 406.443 235.93 407.859 235.93Z" fill="#FFB500"/>
<path d="M407.859 244.985C409.274 244.985 410.421 243.838 410.421 242.423C410.421 241.007 409.274 239.86 407.859 239.86C406.443 239.86 405.296 241.007 405.296 242.423C405.296 243.838 406.443 244.985 407.859 244.985Z" fill="#FFB500"/>
<path d="M410.421 244.985C411.837 244.985 412.984 243.838 412.984 242.423C412.984 241.007 411.837 239.86 410.421 239.86C409.006 239.86 407.859 241.007 407.859 242.423C407.859 243.838 409.006 244.985 410.421 244.985Z" fill="#FFB500"/>
<path d="M417.597 252.673C419.012 252.673 420.159 251.526 420.159 250.111C420.159 248.695 419.012 247.548 417.597 247.548C416.181 247.548 415.034 248.695 415.034 250.111C415.034 251.526 416.181 252.673 417.597 252.673Z" fill="#FFB500"/>
<path d="M324.657 303.927C326.072 303.927 327.219 302.78 327.219 301.364C327.219 299.949 326.072 298.802 324.657 298.802C323.241 298.802 322.094 299.949 322.094 301.364C322.094 302.78 323.241 303.927 324.657 303.927Z" fill="#FFB500"/>
<path d="M314.406 291.626C315.821 291.626 316.969 290.479 316.969 289.063C316.969 287.648 315.821 286.501 314.406 286.501C312.99 286.501 311.843 287.648 311.843 289.063C311.843 290.479 312.99 291.626 314.406 291.626Z" fill="#FFB500"/>
<path d="M303.13 261.728C304.545 261.728 305.693 260.581 305.693 259.165C305.693 257.75 304.545 256.603 303.13 256.603C301.715 256.603 300.567 257.75 300.567 259.165C300.567 260.581 301.715 261.728 303.13 261.728Z" fill="#FFB500"/>
<path d="M300.567 230.805C301.983 230.805 303.13 229.658 303.13 228.242C303.13 226.827 301.983 225.68 300.567 225.68C299.152 225.68 298.005 226.827 298.005 228.242C298.005 229.658 299.152 230.805 300.567 230.805Z" fill="#FFB500"/>
<path d="M293.563 221.238C294.978 221.238 296.125 220.09 296.125 218.675C296.125 217.26 294.978 216.112 293.563 216.112C292.147 216.112 291 217.26 291 218.675C291 220.09 292.147 221.238 293.563 221.238Z" fill="#FFB500"/>
<path d="M293.563 231.488C294.978 231.488 296.125 230.341 296.125 228.926C296.125 227.51 294.978 226.363 293.563 226.363C292.147 226.363 291 227.51 291 228.926C291 230.341 292.147 231.488 293.563 231.488Z" fill="#FFB500"/>
<path d="M301.251 239.176C302.666 239.176 303.813 238.029 303.813 236.614C303.813 235.198 302.666 234.051 301.251 234.051C299.835 234.051 298.688 235.198 298.688 236.614C298.688 238.029 299.835 239.176 301.251 239.176Z" fill="#FFB500"/>
<path d="M298.005 253.869C299.42 253.869 300.567 252.722 300.567 251.307C300.567 249.891 299.42 248.744 298.005 248.744C296.589 248.744 295.442 249.891 295.442 251.307C295.442 252.722 296.589 253.869 298.005 253.869Z" fill="#FFB500"/>
<path d="M311.843 265.487C313.259 265.487 314.406 264.339 314.406 262.924C314.406 261.509 313.259 260.361 311.843 260.361C310.428 260.361 309.281 261.509 309.281 262.924C309.281 264.339 310.428 265.487 311.843 265.487Z" fill="#FFB500"/>
<path d="M333.541 306.49C334.956 306.49 336.103 305.342 336.103 303.927C336.103 302.512 334.956 301.364 333.541 301.364C332.125 301.364 330.978 302.512 330.978 303.927C330.978 305.342 332.125 306.49 333.541 306.49Z" fill="#FFB500"/>
<path d="M324.657 296.239C326.072 296.239 327.219 295.092 327.219 293.676C327.219 292.261 326.072 291.114 324.657 291.114C323.241 291.114 322.094 292.261 322.094 293.676C322.094 295.092 323.241 296.239 324.657 296.239Z" fill="#FFB500"/>
<path d="M316.969 280.863C318.384 280.863 319.531 279.716 319.531 278.3C319.531 276.885 318.384 275.738 316.969 275.738C315.553 275.738 314.406 276.885 314.406 278.3C314.406 279.716 315.553 280.863 316.969 280.863Z" fill="#FFB500"/>
<path d="M305.693 273.175C307.108 273.175 308.255 272.027 308.255 270.612C308.255 269.197 307.108 268.049 305.693 268.049C304.277 268.049 303.13 269.197 303.13 270.612C303.13 272.027 304.277 273.175 305.693 273.175Z" fill="#FFB500"/>
<path d="M303.13 247.548C304.545 247.548 305.693 246.401 305.693 244.985C305.693 243.57 304.545 242.423 303.13 242.423C301.715 242.423 300.567 243.57 300.567 244.985C300.567 246.401 301.715 247.548 303.13 247.548Z" fill="#FFB500"/>
<path d="M309.28 280.863C310.696 280.863 311.843 279.716 311.843 278.3C311.843 276.885 310.696 275.738 309.28 275.738C307.865 275.738 306.718 276.885 306.718 278.3C306.718 279.716 307.865 280.863 309.28 280.863Z" fill="#FFB500"/>
<path d="M338.837 314.349C340.252 314.349 341.4 313.201 341.4 311.786C341.4 310.371 340.252 309.223 338.837 309.223C337.422 309.223 336.274 310.371 336.274 311.786C336.274 313.201 337.422 314.349 338.837 314.349Z" fill="#FFB500"/>
<path d="M339.637 300.588C340.99 300.173 341.75 298.739 341.334 297.386C340.919 296.033 339.485 295.273 338.132 295.689C336.779 296.104 336.019 297.538 336.435 298.891C336.851 300.244 338.284 301.004 339.637 300.588Z" fill="#FFB500"/>
<path d="M333.395 285.148C334.748 284.732 335.508 283.299 335.092 281.946C334.677 280.593 333.243 279.833 331.89 280.249C330.537 280.664 329.777 282.098 330.193 283.451C330.608 284.804 332.042 285.564 333.395 285.148Z" fill="#FFB500"/>
<path d="M322.265 263.095C323.68 263.095 324.828 261.948 324.828 260.532C324.828 259.117 323.68 257.97 322.265 257.97C320.85 257.97 319.702 259.117 319.702 260.532C319.702 261.948 320.85 263.095 322.265 263.095Z" fill="#FFB500"/>
<path d="M319.702 232.172C321.117 232.172 322.265 231.024 322.265 229.609C322.265 228.194 321.117 227.046 319.702 227.046C318.287 227.046 317.139 228.194 317.139 229.609C317.139 231.024 318.287 232.172 319.702 232.172Z" fill="#FFB500"/>
<path d="M312.697 222.604C314.113 222.604 315.26 221.457 315.26 220.042C315.26 218.626 314.113 217.479 312.697 217.479C311.282 217.479 310.135 218.626 310.135 220.042C310.135 221.457 311.282 222.604 312.697 222.604Z" fill="#FFB500"/>
<path d="M312.697 232.855C314.113 232.855 315.26 231.708 315.26 230.293C315.26 228.877 314.113 227.73 312.697 227.73C311.282 227.73 310.135 228.877 310.135 230.293C310.135 231.708 311.282 232.855 312.697 232.855Z" fill="#FFB500"/>
<path d="M320.385 240.543C321.801 240.543 322.948 239.396 322.948 237.981C322.948 236.565 321.801 235.418 320.385 235.418C318.97 235.418 317.823 236.565 317.823 237.981C317.823 239.396 318.97 240.543 320.385 240.543Z" fill="#FFB500"/>
<path d="M317.139 255.236C318.555 255.236 319.702 254.089 319.702 252.673C319.702 251.258 318.555 250.111 317.139 250.111C315.724 250.111 314.577 251.258 314.577 252.673C314.577 254.089 315.724 255.236 317.139 255.236Z" fill="#FFB500"/>
<path d="M334.794 263.293C336.147 262.877 336.907 261.444 336.491 260.091C336.075 258.738 334.642 257.978 333.289 258.393C331.936 258.809 331.176 260.243 331.591 261.596C332.007 262.948 333.441 263.708 334.794 263.293Z" fill="#FFB500"/>
<path d="M352.694 312.841C354.047 312.426 354.807 310.992 354.392 309.639C353.976 308.286 352.542 307.526 351.189 307.942C349.837 308.357 349.077 309.791 349.492 311.144C349.908 312.497 351.342 313.257 352.694 312.841Z" fill="#FFB500"/>
<path d="M348.882 300.429C350.235 300.014 350.995 298.58 350.579 297.227C350.164 295.874 348.73 295.114 347.377 295.53C346.024 295.945 345.264 297.379 345.68 298.732C346.095 300.085 347.529 300.845 348.882 300.429Z" fill="#FFB500"/>
<path d="M337.38 293.239C338.733 292.824 339.492 291.39 339.077 290.037C338.661 288.684 337.228 287.924 335.875 288.34C334.522 288.755 333.762 290.189 334.177 291.542C334.593 292.895 336.027 293.655 337.38 293.239Z" fill="#FFB500"/>
<path d="M328.782 259.35C330.135 258.935 330.895 257.501 330.479 256.148C330.064 254.795 328.63 254.035 327.277 254.451C325.924 254.866 325.164 256.3 325.58 257.653C325.996 259.006 327.429 259.766 328.782 259.35Z" fill="#FFB500"/>
<path d="M331.172 272.448C332.525 272.032 333.285 270.599 332.869 269.246C332.453 267.893 331.02 267.133 329.667 267.548C328.314 267.964 327.554 269.398 327.97 270.751C328.385 272.104 329.819 272.864 331.172 272.448Z" fill="#FFB500"/>
<path d="M322.265 248.915C323.68 248.915 324.828 247.767 324.828 246.352C324.828 244.937 323.68 243.789 322.265 243.789C320.85 243.789 319.702 244.937 319.702 246.352C319.702 247.767 320.85 248.915 322.265 248.915Z" fill="#FFB500"/>
<path d="M336.859 278.744C338.212 278.328 338.972 276.894 338.556 275.541C338.141 274.188 336.707 273.429 335.354 273.844C334.001 274.26 333.241 275.693 333.657 277.046C334.072 278.399 335.506 279.159 336.859 278.744Z" fill="#FFB500"/>
<path d="M356.252 306.387C357.605 305.971 358.365 304.537 357.95 303.184C357.534 301.831 356.1 301.072 354.747 301.487C353.394 301.903 352.635 303.336 353.05 304.689C353.466 306.042 354.899 306.802 356.252 306.387Z" fill="#FFB500"/>
<path d="M376.172 259.744C377.336 260.549 378.932 260.257 379.737 259.092C380.541 257.928 380.249 256.332 379.085 255.527C377.921 254.723 376.324 255.014 375.52 256.179C374.715 257.343 375.007 258.94 376.172 259.744Z" fill="#FFB500"/>
<path d="M398.47 278.264C399.635 279.069 401.231 278.777 402.035 277.612C402.84 276.448 402.548 274.852 401.383 274.047C400.219 273.243 398.623 273.535 397.818 274.699C397.014 275.863 397.306 277.46 398.47 278.264Z" fill="#FFB500"/>
<path d="M358.997 221.579C360.412 221.579 361.559 220.432 361.559 219.017C361.559 217.601 360.412 216.454 358.997 216.454C357.581 216.454 356.434 217.601 356.434 219.017C356.434 220.432 357.581 221.579 358.997 221.579Z" fill="#FFB500"/>
<path d="M391.547 281.372C392.711 282.176 394.308 281.885 395.112 280.72C395.917 279.556 395.625 277.96 394.46 277.155C393.296 276.351 391.7 276.642 390.895 277.807C390.091 278.971 390.382 280.567 391.547 281.372Z" fill="#FFB500"/>
<path d="M376.019 268.983C377.183 269.787 378.779 269.495 379.584 268.331C380.388 267.166 380.097 265.57 378.932 264.766C377.768 263.961 376.171 264.253 375.367 265.418C374.562 266.582 374.854 268.178 376.019 268.983Z" fill="#FFB500"/>
<path d="M381.794 263.628C382.959 264.433 384.555 264.141 385.359 262.977C386.164 261.812 385.872 260.216 384.708 259.412C383.543 258.607 381.947 258.899 381.143 260.063C380.338 261.228 380.63 262.824 381.794 263.628Z" fill="#FFB500"/>
<path d="M383.558 277.306C384.722 278.111 386.319 277.819 387.123 276.654C387.928 275.49 387.636 273.894 386.471 273.089C385.307 272.285 383.711 272.577 382.906 273.741C382.102 274.906 382.393 276.502 383.558 277.306Z" fill="#FFB500"/>
<path d="M364.122 226.705C365.537 226.705 366.685 225.557 366.685 224.142C366.685 222.727 365.537 221.579 364.122 221.579C362.707 221.579 361.559 222.727 361.559 224.142C361.559 225.557 362.707 226.705 364.122 226.705Z" fill="#FFB500"/>
<path d="M358.997 231.147C360.412 231.147 361.559 229.999 361.559 228.584C361.559 227.169 360.412 226.021 358.997 226.021C357.581 226.021 356.434 227.169 356.434 228.584C356.434 229.999 357.581 231.147 358.997 231.147Z" fill="#FFB500"/>
<path d="M368.564 233.709C369.979 233.709 371.127 232.562 371.127 231.147C371.127 229.731 369.979 228.584 368.564 228.584C367.149 228.584 366.001 229.731 366.001 231.147C366.001 232.562 367.149 233.709 368.564 233.709Z" fill="#FFB500"/>
<path d="M368.564 242.764C369.979 242.764 371.127 241.617 371.127 240.201C371.127 238.786 369.979 237.639 368.564 237.639C367.149 237.639 366.001 238.786 366.001 240.201C366.001 241.617 367.149 242.764 368.564 242.764Z" fill="#FFB500"/>
<path d="M372.21 241.433C373.375 242.237 374.971 241.946 375.775 240.781C376.58 239.617 376.288 238.021 375.123 237.216C373.959 236.412 372.363 236.703 371.558 237.868C370.754 239.032 371.046 240.629 372.21 241.433Z" fill="#FFB500"/>
<path d="M385.043 270.649C386.207 271.453 387.803 271.161 388.608 269.997C389.412 268.832 389.12 267.236 387.956 266.432C386.792 265.627 385.195 265.919 384.391 267.084C383.586 268.248 383.878 269.844 385.043 270.649Z" fill="#FFB500"/>
<path d="M373.744 251.837C374.908 252.641 376.504 252.35 377.309 251.185C378.113 250.021 377.821 248.425 376.657 247.62C375.492 246.816 373.896 247.107 373.092 248.272C372.287 249.436 372.579 251.032 373.744 251.837Z" fill="#FFB500"/>
<path d="M422.722 363.894C424.138 363.894 425.285 362.747 425.285 361.331C425.285 359.916 424.138 358.769 422.722 358.769C421.307 358.769 420.16 359.916 420.16 361.331C420.16 362.747 421.307 363.894 422.722 363.894Z" fill="#FFB500"/>
<path d="M402.733 363.894C404.149 363.894 405.296 362.747 405.296 361.331C405.296 359.916 404.149 358.769 402.733 358.769C401.318 358.769 400.171 359.916 400.171 361.331C400.171 362.747 401.318 363.894 402.733 363.894Z" fill="#FFB500"/>
<path d="M381.378 348.347C382.793 348.347 383.94 347.2 383.94 345.784C383.94 344.369 382.793 343.222 381.378 343.222C379.962 343.222 378.815 344.369 378.815 345.784C378.815 347.2 379.962 348.347 381.378 348.347Z" fill="#FFB500"/>
<path d="M358.655 337.071C360.07 337.071 361.218 335.924 361.218 334.508C361.218 333.093 360.07 331.946 358.655 331.946C357.24 331.946 356.092 333.093 356.092 334.508C356.092 335.924 357.24 337.071 358.655 337.071Z" fill="#FFB500"/>
<path d="M343.962 326.82C345.378 326.82 346.525 325.673 346.525 324.258C346.525 322.842 345.378 321.695 343.962 321.695C342.547 321.695 341.4 322.842 341.4 324.258C341.4 325.673 342.547 326.82 343.962 326.82Z" fill="#FFB500"/>
<path d="M333.541 319.474C334.956 319.474 336.103 318.327 336.103 316.911C336.103 315.496 334.956 314.349 333.541 314.349C332.125 314.349 330.978 315.496 330.978 316.911C330.978 318.327 332.125 319.474 333.541 319.474Z" fill="#FFB500"/>
<path d="M351.138 326.82C352.553 326.82 353.701 325.673 353.701 324.258C353.701 322.842 352.553 321.695 351.138 321.695C349.723 321.695 348.575 322.842 348.575 324.258C348.575 325.673 349.723 326.82 351.138 326.82Z" fill="#FFB500"/>
<path d="M371.127 347.664C372.542 347.664 373.689 346.516 373.689 345.101C373.689 343.686 372.542 342.538 371.127 342.538C369.711 342.538 368.564 343.686 368.564 345.101C368.564 346.516 369.711 347.664 371.127 347.664Z" fill="#FFB500"/>
<path d="M368.564 337.071C369.979 337.071 371.127 335.924 371.127 334.508C371.127 333.093 369.979 331.946 368.564 331.946C367.149 331.946 366.001 333.093 366.001 334.508C366.001 335.924 367.149 337.071 368.564 337.071Z" fill="#FFB500"/>
<path d="M388.211 358.769C389.627 358.769 390.774 357.621 390.774 356.206C390.774 354.791 389.627 353.643 388.211 353.643C386.796 353.643 385.649 354.791 385.649 356.206C385.649 357.621 386.796 358.769 388.211 358.769Z" fill="#FFB500"/>
<path d="M388.211 350.226C389.627 350.226 390.774 349.079 390.774 347.664C390.774 346.248 389.627 345.101 388.211 345.101C386.796 345.101 385.649 346.248 385.649 347.664C385.649 349.079 386.796 350.226 388.211 350.226Z" fill="#FFB500"/>
<path d="M398.291 353.472C399.707 353.472 400.854 352.325 400.854 350.91C400.854 349.494 399.707 348.347 398.291 348.347C396.876 348.347 395.729 349.494 395.729 350.91C395.729 352.325 396.876 353.472 398.291 353.472Z" fill="#FFB500"/>
<path d="M412.984 361.331C414.399 361.331 415.547 360.184 415.547 358.769C415.547 357.353 414.399 356.206 412.984 356.206C411.569 356.206 410.421 357.353 410.421 358.769C410.421 360.184 411.569 361.331 412.984 361.331Z" fill="#FFB500"/>
<path d="M412.984 369.019C414.399 369.019 415.547 367.872 415.547 366.457C415.547 365.041 414.399 363.894 412.984 363.894C411.569 363.894 410.421 365.041 410.421 366.457C410.421 367.872 411.569 369.019 412.984 369.019Z" fill="#FFB500"/>
<path d="M436.048 366.457C437.464 366.457 438.611 365.309 438.611 363.894C438.611 362.479 437.464 361.331 436.048 361.331C434.633 361.331 433.486 362.479 433.486 363.894C433.486 365.309 434.633 366.457 436.048 366.457Z" fill="#FFB500"/>
<path d="M427.848 369.019C429.263 369.019 430.41 367.872 430.41 366.457C430.41 365.041 429.263 363.894 427.848 363.894C426.432 363.894 425.285 365.041 425.285 366.457C425.285 367.872 426.432 369.019 427.848 369.019Z" fill="#FFB500"/>
<path d="M423.648 340.936C425.026 340.615 425.883 339.237 425.562 337.859C425.241 336.48 423.863 335.623 422.485 335.944C421.106 336.265 420.249 337.643 420.57 339.022C420.891 340.4 422.269 341.257 423.648 340.936Z" fill="#FFB500"/>
<path d="M439.073 347.34C440.483 347.221 441.531 345.982 441.412 344.572C441.294 343.161 440.054 342.114 438.644 342.232C437.234 342.351 436.186 343.59 436.305 345.001C436.423 346.411 437.662 347.458 439.073 347.34Z" fill="#FFB500"/>
<path d="M392.731 327.358C394.142 327.24 395.189 326.001 395.071 324.59C394.952 323.18 393.713 322.133 392.303 322.251C390.892 322.369 389.845 323.609 389.963 325.019C390.082 326.43 391.321 327.477 392.731 327.358Z" fill="#FFB500"/>
<path d="M396.572 335.306C397.983 335.187 399.03 333.948 398.912 332.538C398.793 331.127 397.554 330.08 396.144 330.198C394.733 330.317 393.686 331.556 393.804 332.966C393.923 334.377 395.162 335.424 396.572 335.306Z" fill="#FFB500"/>
<path d="M372.986 325.97C374.397 325.852 375.444 324.612 375.326 323.202C375.207 321.792 373.968 320.744 372.558 320.863C371.147 320.981 370.1 322.22 370.218 323.631C370.337 325.041 371.576 326.089 372.986 325.97Z" fill="#FFB500"/>
<path d="M364.814 316.804C366.167 316.388 366.927 314.954 366.511 313.601C366.096 312.248 364.662 311.489 363.309 311.904C361.956 312.32 361.196 313.753 361.612 315.106C362.027 316.459 363.461 317.219 364.814 316.804Z" fill="#FFB500"/>
<path d="M386.301 335.482C387.711 335.364 388.758 334.125 388.64 332.714C388.522 331.304 387.282 330.256 385.872 330.375C384.461 330.493 383.414 331.733 383.532 333.143C383.651 334.553 384.89 335.601 386.301 335.482Z" fill="#FFB500"/>
<path d="M382.861 325.141C384.271 325.023 385.318 323.784 385.2 322.373C385.082 320.963 383.842 319.916 382.432 320.034C381.022 320.152 379.974 321.392 380.093 322.802C380.211 324.212 381.45 325.26 382.861 325.141Z" fill="#FFB500"/>
<path d="M414.258 345.981C415.668 345.862 416.716 344.623 416.597 343.213C416.479 341.802 415.24 340.755 413.829 340.873C412.419 340.992 411.372 342.231 411.49 343.641C411.608 345.052 412.848 346.099 414.258 345.981Z" fill="#FFB500"/>
<path d="M403.539 336.607C404.95 336.488 405.997 335.249 405.879 333.839C405.76 332.428 404.521 331.381 403.111 331.499C401.7 331.618 400.653 332.857 400.771 334.268C400.89 335.678 402.129 336.725 403.539 336.607Z" fill="#FFB500"/>
<path d="M413.856 338.998C415.266 338.88 416.313 337.641 416.195 336.23C416.077 334.82 414.837 333.773 413.427 333.891C412.017 334.009 410.969 335.249 411.088 336.659C411.206 338.069 412.445 339.117 413.856 338.998Z" fill="#FFB500"/>
<path d="M429.154 345.601C430.565 345.482 431.612 344.243 431.494 342.833C431.375 341.422 430.136 340.375 428.726 340.493C427.315 340.612 426.268 341.851 426.386 343.261C426.505 344.672 427.744 345.719 429.154 345.601Z" fill="#FFB500"/>
<path d="M444.609 352.018C446.019 351.9 447.067 350.661 446.948 349.25C446.83 347.84 445.59 346.793 444.18 346.911C442.77 347.029 441.722 348.269 441.841 349.679C441.959 351.09 443.198 352.137 444.609 352.018Z" fill="#FFB500"/>
<path d="M434.936 338.719C436.315 338.397 437.172 337.02 436.851 335.641C436.529 334.263 435.152 333.406 433.773 333.727C432.395 334.048 431.538 335.426 431.859 336.804C432.18 338.183 433.558 339.04 434.936 338.719Z" fill="#FFB500"/>
<path d="M443.115 342.953C444.493 342.632 445.351 341.254 445.029 339.875C444.708 338.497 443.33 337.64 441.952 337.961C440.574 338.282 439.717 339.66 440.038 341.038C440.359 342.417 441.737 343.274 443.115 342.953Z" fill="#FFB500"/>
<path d="M411.402 287.198C412.566 288.003 414.163 287.711 414.967 286.547C415.772 285.382 415.48 283.786 414.315 282.981C413.151 282.177 411.555 282.469 410.75 283.633C409.946 284.798 410.238 286.394 411.402 287.198Z" fill="#FFB500"/>
<path d="M402.702 285.964C403.867 286.769 405.463 286.477 406.268 285.312C407.072 284.148 406.78 282.552 405.616 281.747C404.451 280.943 402.855 281.235 402.051 282.399C401.246 283.564 401.538 285.16 402.702 285.964Z" fill="#FFB500"/>
<path d="M423.518 292.32C424.158 291.058 423.655 289.516 422.392 288.875C421.13 288.235 419.588 288.739 418.947 290.001C418.307 291.263 418.811 292.805 420.073 293.446C421.335 294.086 422.877 293.582 423.518 292.32Z" fill="#FFB500"/>
<path d="M439.795 291.96C440.435 290.698 439.931 289.155 438.669 288.515C437.407 287.874 435.865 288.378 435.224 289.64C434.584 290.902 435.087 292.445 436.35 293.085C437.612 293.726 439.154 293.222 439.795 291.96Z" fill="#FFB500"/>
<path d="M438.6 299.975C439.241 298.713 438.737 297.171 437.475 296.53C436.213 295.89 434.671 296.393 434.03 297.656C433.389 298.918 433.893 300.46 435.155 301.101C436.417 301.741 437.96 301.237 438.6 299.975Z" fill="#FFB500"/>
<path d="M428.85 295.027C429.491 293.765 428.987 292.222 427.725 291.582C426.463 290.941 424.92 291.445 424.28 292.707C423.639 293.969 424.143 295.511 425.405 296.152C426.667 296.793 428.21 296.289 428.85 295.027Z" fill="#FFB500"/>
<path d="M415.468 296.856C416.109 295.594 415.605 294.052 414.343 293.411C413.081 292.771 411.538 293.275 410.898 294.537C410.257 295.799 410.761 297.341 412.023 297.982C413.285 298.622 414.827 298.118 415.468 296.856Z" fill="#FFB500"/>
<path d="M354.178 297.202C355.531 296.786 356.291 295.353 355.876 294C355.46 292.647 354.026 291.887 352.673 292.303C351.321 292.718 350.561 294.152 350.976 295.505C351.392 296.858 352.826 297.618 354.178 297.202Z" fill="#FFB500"/>
<path d="M424.089 257.799C425.504 257.799 426.652 256.651 426.652 255.236C426.652 253.821 425.504 252.673 424.089 252.673C422.674 252.673 421.526 253.821 421.526 255.236C421.526 256.651 422.674 257.799 424.089 257.799Z" fill="#FFB500"/>
<path d="M429.214 265.487C430.63 265.487 431.777 264.339 431.777 262.924C431.777 261.509 430.63 260.361 429.214 260.361C427.799 260.361 426.652 261.509 426.652 262.924C426.652 264.339 427.799 265.487 429.214 265.487Z" fill="#FFB500"/>
<path d="M430.923 257.799C432.338 257.799 433.485 256.651 433.485 255.236C433.485 253.821 432.338 252.673 430.923 252.673C429.507 252.673 428.36 253.821 428.36 255.236C428.36 256.651 429.507 257.799 430.923 257.799Z" fill="#FFB500"/>
<path d="M440.149 268.049C441.564 268.049 442.711 266.902 442.711 265.487C442.711 264.071 441.564 262.924 440.149 262.924C438.733 262.924 437.586 264.071 437.586 265.487C437.586 266.902 438.733 268.049 440.149 268.049Z" fill="#FFB500"/>
<path d="M437.586 261.728C439.001 261.728 440.149 260.581 440.149 259.165C440.149 257.75 439.001 256.603 437.586 256.603C436.171 256.603 435.023 257.75 435.023 259.165C435.023 260.581 436.171 261.728 437.586 261.728Z" fill="#FFB500"/>
<path d="M468.68 260.361C470.095 260.361 471.242 259.214 471.242 257.799C471.242 256.383 470.095 255.236 468.68 255.236C467.264 255.236 466.117 256.383 466.117 257.799C466.117 259.214 467.264 260.361 468.68 260.361Z" fill="#DD2714"/>
<path d="M452.962 260.361C454.377 260.361 455.525 259.214 455.525 257.799C455.525 256.383 454.377 255.236 452.962 255.236C451.547 255.236 450.399 256.383 450.399 257.799C450.399 259.214 451.547 260.361 452.962 260.361Z" fill="#DD2714"/>
<path d="M460.821 264.291C462.236 264.291 463.384 263.143 463.384 261.728C463.384 260.313 462.236 259.165 460.821 259.165C459.406 259.165 458.258 260.313 458.258 261.728C458.258 263.143 459.406 264.291 460.821 264.291Z" fill="#DD2714"/>
<path d="M473.805 252.673C475.22 252.673 476.368 251.526 476.368 250.111C476.368 248.695 475.22 247.548 473.805 247.548C472.39 247.548 471.242 248.695 471.242 250.111C471.242 251.526 472.39 252.673 473.805 252.673Z" fill="#DD2714"/>
<path d="M479.443 257.799C480.858 257.799 482.006 256.651 482.006 255.236C482.006 253.821 480.858 252.673 479.443 252.673C478.028 252.673 476.88 253.821 476.88 255.236C476.88 256.651 478.028 257.799 479.443 257.799Z" fill="#DD2714"/>
<path d="M449.033 266.854C450.448 266.854 451.595 265.706 451.595 264.291C451.595 262.876 450.448 261.728 449.033 261.728C447.617 261.728 446.47 262.876 446.47 264.291C446.47 265.706 447.617 266.854 449.033 266.854Z" fill="#DD2714"/>
<path d="M574.775 301.364C576.19 301.364 577.338 300.217 577.338 298.802C577.338 297.386 576.19 296.239 574.775 296.239C573.36 296.239 572.212 297.386 572.212 298.802C572.212 300.217 573.36 301.364 574.775 301.364Z" fill="#DD2714"/>
<path d="M572.212 314.349C573.628 314.349 574.775 313.201 574.775 311.786C574.775 310.371 573.628 309.223 572.212 309.223C570.797 309.223 569.65 310.371 569.65 311.786C569.65 313.201 570.797 314.349 572.212 314.349Z" fill="#DD2714"/>
<path d="M562.987 313.494C564.402 313.494 565.549 312.347 565.549 310.932C565.549 309.516 564.402 308.369 562.987 308.369C561.571 308.369 560.424 309.516 560.424 310.932C560.424 312.347 561.571 313.494 562.987 313.494Z" fill="#DD2714"/>
<path d="M544.364 331.946C545.78 331.946 546.927 330.798 546.927 329.383C546.927 327.968 545.78 326.82 544.364 326.82C542.949 326.82 541.802 327.968 541.802 329.383C541.802 330.798 542.949 331.946 544.364 331.946Z" fill="#DD2714"/>
<path d="M562.987 329.383C564.402 329.383 565.549 328.236 565.549 326.82C565.549 325.405 564.402 324.258 562.987 324.258C561.571 324.258 560.424 325.405 560.424 326.82C560.424 328.236 561.571 329.383 562.987 329.383Z" fill="#DD2714"/>
<path d="M553.59 324.258C555.005 324.258 556.153 323.11 556.153 321.695C556.153 320.28 555.005 319.132 553.59 319.132C552.175 319.132 551.027 320.28 551.027 321.695C551.027 323.11 552.175 324.258 553.59 324.258Z" fill="#DD2714"/>
<path d="M529.501 350.226C530.916 350.226 532.064 349.079 532.064 347.664C532.064 346.248 530.916 345.101 529.501 345.101C528.086 345.101 526.938 346.248 526.938 347.664C526.938 349.079 528.086 350.226 529.501 350.226Z" fill="#DD2714"/>
<path d="M522.154 350.226C523.57 350.226 524.717 349.079 524.717 347.664C524.717 346.248 523.57 345.101 522.154 345.101C520.739 345.101 519.592 346.248 519.592 347.664C519.592 349.079 520.739 350.226 522.154 350.226Z" fill="#DD2714"/>
<path d="M504.728 352.789C506.144 352.789 507.291 351.642 507.291 350.226C507.291 348.811 506.144 347.664 504.728 347.664C503.313 347.664 502.166 348.811 502.166 350.226C502.166 351.642 503.313 352.789 504.728 352.789Z" fill="#DD2714"/>
<path d="M478.93 363.894C480.346 363.894 481.493 362.747 481.493 361.331C481.493 359.916 480.346 358.769 478.93 358.769C477.515 358.769 476.368 359.916 476.368 361.331C476.368 362.747 477.515 363.894 478.93 363.894Z" fill="#DD2714"/>
<path d="M450.399 363.894C451.815 363.894 452.962 362.747 452.962 361.331C452.962 359.916 451.815 358.769 450.399 358.769C448.984 358.769 447.837 359.916 447.837 361.331C447.837 362.747 448.984 363.894 450.399 363.894Z" fill="#DD2714"/>
<path d="M450.399 371.582C451.815 371.582 452.962 370.435 452.962 369.019C452.962 367.604 451.815 366.457 450.399 366.457C448.984 366.457 447.837 367.604 447.837 369.019C447.837 370.435 448.984 371.582 450.399 371.582Z" fill="#DD2714"/>
<path d="M463.725 363.894C465.141 363.894 466.288 362.747 466.288 361.331C466.288 359.916 465.141 358.769 463.725 358.769C462.31 358.769 461.163 359.916 461.163 361.331C461.163 362.747 462.31 363.894 463.725 363.894Z" fill="#DD2714"/>
<path d="M471.242 371.582C472.658 371.582 473.805 370.435 473.805 369.019C473.805 367.604 472.658 366.457 471.242 366.457C469.827 366.457 468.68 367.604 468.68 369.019C468.68 370.435 469.827 371.582 471.242 371.582Z" fill="#DD2714"/>
<path d="M491.915 357.914C493.33 357.914 494.477 356.767 494.477 355.352C494.477 353.936 493.33 352.789 491.915 352.789C490.499 352.789 489.352 353.936 489.352 355.352C489.352 356.767 490.499 357.914 491.915 357.914Z" fill="#DD2714"/>
<path d="M486.106 369.019C487.521 369.019 488.669 367.872 488.669 366.457C488.669 365.041 487.521 363.894 486.106 363.894C484.691 363.894 483.543 365.041 483.543 366.457C483.543 367.872 484.691 369.019 486.106 369.019Z" fill="#DD2714"/>
<path d="M498.919 363.894C500.335 363.894 501.482 362.747 501.482 361.331C501.482 359.916 500.335 358.769 498.919 358.769C497.504 358.769 496.357 359.916 496.357 361.331C496.357 362.747 497.504 363.894 498.919 363.894Z" fill="#DD2714"/>
<path d="M514.125 361.331C515.54 361.331 516.687 360.184 516.687 358.769C516.687 357.353 515.54 356.206 514.125 356.206C512.709 356.206 511.562 357.353 511.562 358.769C511.562 360.184 512.709 361.331 514.125 361.331Z" fill="#DD2714"/>
<path d="M514.808 350.91C516.224 350.91 517.371 349.762 517.371 348.347C517.371 346.932 516.224 345.784 514.808 345.784C513.393 345.784 512.245 346.932 512.245 348.347C512.245 349.762 513.393 350.91 514.808 350.91Z" fill="#DD2714"/>
<path d="M532.064 339.634C533.479 339.634 534.626 338.487 534.626 337.071C534.626 335.656 533.479 334.508 532.064 334.508C530.648 334.508 529.501 335.656 529.501 337.071C529.501 338.487 530.648 339.634 532.064 339.634Z" fill="#DD2714"/>
<path d="M546.927 344.759C548.343 344.759 549.49 343.612 549.49 342.197C549.49 340.781 548.343 339.634 546.927 339.634C545.512 339.634 544.365 340.781 544.365 342.197C544.365 343.612 545.512 344.759 546.927 344.759Z" fill="#DD2714"/>
<path d="M539.581 343.222C540.996 343.222 542.143 342.074 542.143 340.659C542.143 339.244 540.996 338.096 539.581 338.096C538.165 338.096 537.018 339.244 537.018 340.659C537.018 342.074 538.165 343.222 539.581 343.222Z" fill="#DD2714"/>
<path d="M553.59 334.508C555.005 334.508 556.153 333.361 556.153 331.946C556.153 330.53 555.005 329.383 553.59 329.383C552.175 329.383 551.027 330.53 551.027 331.946C551.027 333.361 552.175 334.508 553.59 334.508Z" fill="#DD2714"/>
<path d="M565.549 321.524C566.965 321.524 568.112 320.377 568.112 318.962C568.112 317.546 566.965 316.399 565.549 316.399C564.134 316.399 562.987 317.546 562.987 318.962C562.987 320.377 564.134 321.524 565.549 321.524Z" fill="#DD2714"/>
<path d="M567.087 305.636C568.502 305.636 569.65 304.488 569.65 303.073C569.65 301.658 568.502 300.51 567.087 300.51C565.672 300.51 564.524 301.658 564.524 303.073C564.524 304.488 565.672 305.636 567.087 305.636Z" fill="#DD2714"/>
<path d="M547.335 302.731C548.75 302.731 549.897 301.584 549.897 300.168C549.897 298.753 548.75 297.606 547.335 297.606C545.919 297.606 544.772 298.753 544.772 300.168C544.772 301.584 545.919 302.731 547.335 302.731Z" fill="#DD2714"/>
<path d="M528.713 321.183C530.128 321.183 531.275 320.035 531.275 318.62C531.275 317.204 530.128 316.057 528.713 316.057C527.297 316.057 526.15 317.204 526.15 318.62C526.15 320.035 527.297 321.183 528.713 321.183Z" fill="#DD2714"/>
<path d="M540.435 306.148C541.85 306.148 542.998 305.001 542.998 303.585C542.998 302.17 541.85 301.023 540.435 301.023C539.02 301.023 537.872 302.17 537.872 303.585C537.872 305.001 539.02 306.148 540.435 306.148Z" fill="#DD2714"/>
<path d="M537.938 313.494C539.354 313.494 540.501 312.347 540.501 310.932C540.501 309.516 539.354 308.369 537.938 308.369C536.523 308.369 535.375 309.516 535.375 310.932C535.375 312.347 536.523 313.494 537.938 313.494Z" fill="#DD2714"/>
<path d="M498.919 332.629C500.335 332.629 501.482 331.482 501.482 330.066C501.482 328.651 500.335 327.504 498.919 327.504C497.504 327.504 496.357 328.651 496.357 330.066C496.357 331.482 497.504 332.629 498.919 332.629Z" fill="#DD2714"/>
<path d="M506.503 339.463C507.918 339.463 509.065 338.316 509.065 336.9C509.065 335.485 507.918 334.338 506.503 334.338C505.087 334.338 503.94 335.485 503.94 336.9C503.94 338.316 505.087 339.463 506.503 339.463Z" fill="#DD2714"/>
<path d="M489.076 342.026C490.492 342.026 491.639 340.878 491.639 339.463C491.639 338.048 490.492 336.9 489.076 336.9C487.661 336.9 486.514 338.048 486.514 339.463C486.514 340.878 487.661 342.026 489.076 342.026Z" fill="#DD2714"/>
<path d="M466.653 345.025C468.063 344.906 469.11 343.667 468.992 342.257C468.874 340.846 467.634 339.799 466.224 339.917C464.814 340.036 463.766 341.275 463.885 342.685C464.003 344.096 465.242 345.143 466.653 345.025Z" fill="#DD2714"/>
<path d="M459.02 341.71C460.43 341.591 461.477 340.352 461.359 338.942C461.24 337.531 460.001 336.484 458.591 336.602C457.18 336.721 456.133 337.96 456.251 339.37C456.37 340.781 457.609 341.828 459.02 341.71Z" fill="#DD2714"/>
<path d="M452.566 348.779C453.977 348.66 455.024 347.421 454.906 346.011C454.787 344.6 453.548 343.553 452.138 343.671C450.727 343.79 449.68 345.029 449.798 346.439C449.917 347.85 451.156 348.897 452.566 348.779Z" fill="#DD2714"/>
<path d="M460.728 350.594C462.138 350.475 463.186 349.236 463.067 347.825C462.949 346.415 461.71 345.368 460.299 345.486C458.889 345.605 457.842 346.844 457.96 348.254C458.078 349.665 459.318 350.712 460.728 350.594Z" fill="#DD2714"/>
<path d="M479.932 343.91C481.342 343.792 482.39 342.552 482.271 341.142C482.153 339.732 480.914 338.684 479.503 338.803C478.093 338.921 477.045 340.16 477.164 341.571C477.282 342.981 478.522 344.028 479.932 343.91Z" fill="#DD2714"/>
<path d="M472.851 340.936C474.23 340.615 475.087 339.237 474.765 337.859C474.444 336.48 473.067 335.623 471.688 335.944C470.31 336.265 469.453 337.643 469.774 339.022C470.095 340.4 471.473 341.257 472.851 340.936Z" fill="#DD2714"/>
<path d="M481.344 335.476C482.723 335.155 483.58 333.777 483.259 332.399C482.938 331.02 481.56 330.163 480.181 330.484C478.803 330.805 477.946 332.183 478.267 333.562C478.588 334.94 479.966 335.797 481.344 335.476Z" fill="#DD2714"/>
<path d="M508.9 330.002C510.278 329.681 511.135 328.303 510.814 326.924C510.493 325.546 509.115 324.689 507.737 325.01C506.358 325.331 505.501 326.709 505.822 328.087C506.143 329.466 507.521 330.323 508.9 330.002Z" fill="#DD2714"/>
<path d="M499.156 340.146C500.572 340.146 501.719 338.999 501.719 337.584C501.719 336.168 500.572 335.021 499.156 335.021C497.741 335.021 496.594 336.168 496.594 337.584C496.594 338.999 497.741 340.146 499.156 340.146Z" fill="#DD2714"/>
<path d="M516.412 328.871C517.827 328.871 518.974 327.723 518.974 326.308C518.974 324.893 517.827 323.745 516.412 323.745C514.996 323.745 513.849 324.893 513.849 326.308C513.849 327.723 514.996 328.871 516.412 328.871Z" fill="#DD2714"/>
<path d="M518.738 319.816C520.153 319.816 521.3 318.668 521.3 317.253C521.3 315.838 520.153 314.69 518.738 314.69C517.322 314.69 516.175 315.838 516.175 317.253C516.175 318.668 517.322 319.816 518.738 319.816Z" fill="#DD2714"/>
<path d="M523.863 325.966C525.278 325.966 526.426 324.819 526.426 323.403C526.426 321.988 525.278 320.841 523.863 320.841C522.448 320.841 521.3 321.988 521.3 323.403C521.3 324.819 522.448 325.966 523.863 325.966Z" fill="#DD2714"/>
<path d="M549.897 310.761C551.313 310.761 552.46 309.614 552.46 308.198C552.46 306.783 551.313 305.636 549.897 305.636C548.482 305.636 547.335 306.783 547.335 308.198C547.335 309.614 548.482 310.761 549.897 310.761Z" fill="#DD2714"/>
<path d="M479.857 293.342C480.419 294.641 481.927 295.238 483.226 294.676C484.525 294.114 485.123 292.605 484.56 291.306C483.998 290.008 482.49 289.41 481.191 289.972C479.892 290.534 479.295 292.043 479.857 293.342Z" fill="#DD2714"/>
<path d="M471.546 296.938C472.109 298.237 473.617 298.834 474.916 298.272C476.215 297.71 476.812 296.201 476.25 294.902C475.688 293.604 474.18 293.006 472.881 293.568C471.582 294.13 470.984 295.639 471.546 296.938Z" fill="#DD2714"/>
<path d="M492.708 298.95C493.27 300.249 494.779 300.846 496.078 300.284C497.377 299.722 497.974 298.214 497.412 296.915C496.85 295.616 495.341 295.018 494.042 295.581C492.743 296.143 492.146 297.651 492.708 298.95Z" fill="#DD2714"/>
<path d="M447.776 298.884C448.416 297.622 447.912 296.08 446.65 295.439C445.388 294.799 443.846 295.303 443.205 296.565C442.565 297.827 443.068 299.369 444.33 300.01C445.593 300.65 447.135 300.146 447.776 298.884Z" fill="#DD2714"/>
<path d="M482.283 300.669C482.845 301.968 484.353 302.565 485.652 302.003C486.951 301.441 487.549 299.933 486.986 298.634C486.424 297.335 484.916 296.737 483.617 297.3C482.318 297.862 481.721 299.37 482.283 300.669Z" fill="#DD2714"/>
<path d="M457.299 283.371C457.861 284.67 459.369 285.267 460.668 284.705C461.967 284.143 462.565 282.634 462.002 281.335C461.44 280.036 459.932 279.439 458.633 280.001C457.334 280.563 456.737 282.072 457.299 283.371Z" fill="#DD2714"/>
<path d="M454.834 290.581C455.396 291.88 456.905 292.477 458.203 291.915C459.502 291.353 460.1 289.844 459.538 288.545C458.976 287.246 457.467 286.649 456.168 287.211C454.869 287.773 454.272 289.282 454.834 290.581Z" fill="#DD2714"/>
<path d="M500.08 290.175C500.642 291.474 502.151 292.072 503.45 291.509C504.749 290.947 505.346 289.439 504.784 288.14C504.222 286.841 502.713 286.244 501.414 286.806C500.115 287.368 499.518 288.876 500.08 290.175Z" fill="#DD2714"/>
<path d="M500.678 279.853C501.154 278.52 500.46 277.054 499.127 276.578C497.794 276.102 496.327 276.797 495.852 278.13C495.376 279.463 496.07 280.929 497.403 281.405C498.736 281.881 500.202 281.186 500.678 279.853Z" fill="#DD2714"/>
<path d="M510.332 275.681C510.808 274.348 510.113 272.882 508.78 272.406C507.447 271.93 505.981 272.624 505.505 273.957C505.029 275.29 505.724 276.757 507.057 277.233C508.39 277.708 509.856 277.014 510.332 275.681Z" fill="#DD2714"/>
<path d="M445.956 273.639C446.518 274.938 448.026 275.535 449.325 274.973C450.624 274.411 451.222 272.903 450.66 271.604C450.098 270.305 448.589 269.707 447.29 270.269C445.991 270.831 445.394 272.34 445.956 273.639Z" fill="#DD2714"/>
<path d="M483.372 250.111C484.788 250.111 485.935 248.963 485.935 247.548C485.935 246.133 484.788 244.985 483.372 244.985C481.957 244.985 480.81 246.133 480.81 247.548C480.81 248.963 481.957 250.111 483.372 250.111Z" fill="#DD2714"/>
<path d="M491.915 235.93C493.33 235.93 494.477 234.783 494.477 233.368C494.477 231.952 493.33 230.805 491.915 230.805C490.499 230.805 489.352 231.952 489.352 233.368C489.352 234.783 490.499 235.93 491.915 235.93Z" fill="#DD2714"/>
<path d="M491.915 244.985C493.33 244.985 494.477 243.838 494.477 242.423C494.477 241.007 493.33 239.86 491.915 239.86C490.499 239.86 489.352 241.007 489.352 242.423C489.352 243.838 490.499 244.985 491.915 244.985Z" fill="#DD2714"/>
<path d="M502.165 226.363C503.581 226.363 504.728 225.216 504.728 223.8C504.728 222.385 503.581 221.238 502.165 221.238C500.75 221.238 499.603 222.385 499.603 223.8C499.603 225.216 500.75 226.363 502.165 226.363Z" fill="#DD2714"/>
<path d="M499.603 236.614C501.018 236.614 502.165 235.466 502.165 234.051C502.165 232.636 501.018 231.488 499.603 231.488C498.187 231.488 497.04 232.636 497.04 234.051C497.04 235.466 498.187 236.614 499.603 236.614Z" fill="#DD2714"/>
<path d="M601.768 221.238C603.184 221.238 604.331 220.09 604.331 218.675C604.331 217.26 603.184 216.112 601.768 216.112C600.353 216.112 599.206 217.26 599.206 218.675C599.206 220.09 600.353 221.238 601.768 221.238Z" fill="#DD2714"/>
<path d="M599.206 250.111C600.621 250.111 601.768 248.963 601.768 247.548C601.768 246.133 600.621 244.985 599.206 244.985C597.79 244.985 596.643 246.133 596.643 247.548C596.643 248.963 597.79 250.111 599.206 250.111Z" fill="#DD2714"/>
<path d="M599.206 235.76C600.621 235.76 601.768 234.612 601.768 233.197C601.768 231.782 600.621 230.634 599.206 230.634C597.79 230.634 596.643 231.782 596.643 233.197C596.643 234.612 597.79 235.76 599.206 235.76Z" fill="#DD2714"/>
<path d="M588.613 280.863C590.029 280.863 591.176 279.716 591.176 278.3C591.176 276.885 590.029 275.738 588.613 275.738C587.198 275.738 586.051 276.885 586.051 278.3C586.051 279.716 587.198 280.863 588.613 280.863Z" fill="#DD2714"/>
<path d="M591.176 266.854C592.592 266.854 593.739 265.706 593.739 264.291C593.739 262.876 592.592 261.728 591.176 261.728C589.761 261.728 588.614 262.876 588.614 264.291C588.614 265.706 589.761 266.854 591.176 266.854Z" fill="#DD2714"/>
<path d="M579.9 286.501C581.316 286.501 582.463 285.353 582.463 283.938C582.463 282.523 581.316 281.375 579.9 281.375C578.485 281.375 577.338 282.523 577.338 283.938C577.338 285.353 578.485 286.501 579.9 286.501Z" fill="#DD2714"/>
<path d="M586.051 296.239C587.466 296.239 588.613 295.092 588.613 293.676C588.613 292.261 587.466 291.114 586.051 291.114C584.635 291.114 583.488 292.261 583.488 293.676C583.488 295.092 584.635 296.239 586.051 296.239Z" fill="#DD2714"/>
<path d="M594.081 275.737C595.496 275.737 596.643 274.59 596.643 273.175C596.643 271.759 595.496 270.612 594.081 270.612C592.665 270.612 591.518 271.759 591.518 273.175C591.518 274.59 592.665 275.737 594.081 275.737Z" fill="#DD2714"/>
<path d="M593.739 257.97C595.154 257.97 596.301 256.822 596.301 255.407C596.301 253.992 595.154 252.844 593.739 252.844C592.323 252.844 591.176 253.992 591.176 255.407C591.176 256.822 592.323 257.97 593.739 257.97Z" fill="#DD2714"/>
<path d="M599.206 261.728C600.621 261.728 601.768 260.581 601.768 259.165C601.768 257.75 600.621 256.603 599.206 256.603C597.79 256.603 596.643 257.75 596.643 259.165C596.643 260.581 597.79 261.728 599.206 261.728Z" fill="#DD2714"/>
<path d="M605.527 242.423C606.942 242.423 608.09 241.275 608.09 239.86C608.09 238.445 606.942 237.297 605.527 237.297C604.112 237.297 602.964 238.445 602.964 239.86C602.964 241.275 604.112 242.423 605.527 242.423Z" fill="#DD2714"/>
<path d="M608.09 228.926C609.505 228.926 610.652 227.778 610.652 226.363C610.652 224.948 609.505 223.8 608.09 223.8C606.674 223.8 605.527 224.948 605.527 226.363C605.527 227.778 606.674 228.926 608.09 228.926Z" fill="#DD2714"/>
<path d="M581.609 242.764C583.024 242.764 584.172 241.617 584.172 240.202C584.172 238.786 583.024 237.639 581.609 237.639C580.193 237.639 579.046 238.786 579.046 240.202C579.046 241.617 580.193 242.764 581.609 242.764Z" fill="#DD2714"/>
<path d="M581.609 228.413C583.024 228.413 584.172 227.266 584.172 225.851C584.172 224.435 583.024 223.288 581.609 223.288C580.193 223.288 579.046 224.435 579.046 225.851C579.046 227.266 580.193 228.413 581.609 228.413Z" fill="#DD2714"/>
<path d="M571.016 273.517C572.432 273.517 573.579 272.369 573.579 270.954C573.579 269.538 572.432 268.391 571.016 268.391C569.601 268.391 568.454 269.538 568.454 270.954C568.454 272.369 569.601 273.517 571.016 273.517Z" fill="#DD2714"/>
<path d="M573.579 259.507C574.994 259.507 576.142 258.36 576.142 256.944C576.142 255.529 574.994 254.382 573.579 254.382C572.164 254.382 571.016 255.529 571.016 256.944C571.016 258.36 572.164 259.507 573.579 259.507Z" fill="#DD2714"/>
<path d="M559.123 290.601C560.538 290.601 561.686 289.454 561.686 288.038C561.686 286.623 560.538 285.476 559.123 285.476C557.708 285.476 556.56 286.623 556.56 288.038C556.56 289.454 557.708 290.601 559.123 290.601Z" fill="#DD2714"/>
<path d="M562.303 279.154C563.718 279.154 564.866 278.007 564.866 276.592C564.866 275.176 563.718 274.029 562.303 274.029C560.888 274.029 559.74 275.176 559.74 276.592C559.74 278.007 560.888 279.154 562.303 279.154Z" fill="#DD2714"/>
<path d="M567.428 268.391C568.844 268.391 569.991 267.244 569.991 265.828C569.991 264.413 568.844 263.266 567.428 263.266C566.013 263.266 564.866 264.413 564.866 265.828C564.866 267.244 566.013 268.391 567.428 268.391Z" fill="#DD2714"/>
<path d="M568.454 281.717C569.869 281.717 571.016 280.57 571.016 279.154C571.016 277.739 569.869 276.592 568.454 276.592C567.038 276.592 565.891 277.739 565.891 279.154C565.891 280.57 567.038 281.717 568.454 281.717Z" fill="#DD2714"/>
<path d="M551.435 294.872C552.85 294.872 553.998 293.725 553.998 292.31C553.998 290.894 552.85 289.747 551.435 289.747C550.02 289.747 548.872 290.894 548.872 292.31C548.872 293.725 550.02 294.872 551.435 294.872Z" fill="#DD2714"/>
<path d="M564.183 288.038C565.598 288.038 566.745 286.891 566.745 285.476C566.745 284.06 565.598 282.913 564.183 282.913C562.767 282.913 561.62 284.06 561.62 285.476C561.62 286.891 562.767 288.038 564.183 288.038Z" fill="#DD2714"/>
<path d="M576.483 268.391C577.899 268.391 579.046 267.244 579.046 265.828C579.046 264.413 577.899 263.266 576.483 263.266C575.068 263.266 573.921 264.413 573.921 265.828C573.921 267.244 575.068 268.391 576.483 268.391Z" fill="#DD2714"/>
<path d="M576.142 250.623C577.557 250.623 578.704 249.476 578.704 248.06C578.704 246.645 577.557 245.498 576.142 245.498C574.726 245.498 573.579 246.645 573.579 248.06C573.579 249.476 574.726 250.623 576.142 250.623Z" fill="#DD2714"/>
<path d="M581.609 254.382C583.024 254.382 584.172 253.234 584.172 251.819C584.172 250.404 583.024 249.256 581.609 249.256C580.193 249.256 579.046 250.404 579.046 251.819C579.046 253.234 580.193 254.382 581.609 254.382Z" fill="#DD2714"/>
<path d="M587.93 235.076C589.345 235.076 590.493 233.929 590.493 232.514C590.493 231.098 589.345 229.951 587.93 229.951C586.515 229.951 585.367 231.098 585.367 232.514C585.367 233.929 586.515 235.076 587.93 235.076Z" fill="#DD2714"/>
<path d="M590.493 221.579C591.908 221.579 593.055 220.432 593.055 219.017C593.055 217.601 591.908 216.454 590.493 216.454C589.077 216.454 587.93 217.601 587.93 219.017C587.93 220.432 589.077 221.579 590.493 221.579Z" fill="#DD2714"/>
<path d="M517.342 271.29C517.818 269.957 517.123 268.491 515.79 268.015C514.457 267.539 512.991 268.234 512.515 269.567C512.039 270.9 512.734 272.366 514.067 272.842C515.4 273.318 516.866 272.623 517.342 271.29Z" fill="#DD2714"/>
<path d="M534.75 230.158C535.226 228.825 534.531 227.359 533.199 226.883C531.866 226.407 530.399 227.102 529.923 228.435C529.447 229.768 530.142 231.234 531.475 231.71C532.808 232.186 534.274 231.491 534.75 230.158Z" fill="#DD2714"/>
<path d="M529.465 244.961C529.941 243.628 529.246 242.161 527.913 241.685C526.58 241.21 525.114 241.904 524.638 243.237C524.162 244.57 524.857 246.036 526.189 246.512C527.522 246.988 528.989 246.294 529.465 244.961Z" fill="#DD2714"/>
<path d="M539.918 212.647C538.563 212.237 537.132 213.002 536.722 214.357C536.312 215.712 537.077 217.142 538.431 217.553C539.786 217.963 541.217 217.198 541.627 215.843C542.037 214.489 541.272 213.058 539.918 212.647Z" fill="#DD2714"/>
<path d="M527.631 223.742C526.276 223.331 524.845 224.097 524.435 225.451C524.025 226.806 524.79 228.237 526.145 228.647C527.499 229.057 528.93 228.292 529.34 226.937C529.751 225.583 528.985 224.152 527.631 223.742Z" fill="#DD2714"/>
<path d="M530.256 215.076C528.901 214.665 527.471 215.431 527.06 216.785C526.65 218.14 527.415 219.571 528.77 219.981C530.124 220.391 531.555 219.626 531.965 218.271C532.376 216.917 531.61 215.486 530.256 215.076Z" fill="#DD2714"/>
<path d="M535.808 238.881C536.284 237.548 535.589 236.082 534.256 235.606C532.923 235.13 531.457 235.824 530.981 237.157C530.505 238.49 531.2 239.957 532.533 240.433C533.866 240.908 535.332 240.214 535.808 238.881Z" fill="#DD2714"/>
<path d="M526.306 269.049C526.782 267.716 526.087 266.25 524.754 265.774C523.421 265.298 521.955 265.992 521.479 267.325C521.003 268.658 521.697 270.125 523.03 270.6C524.363 271.076 525.83 270.382 526.306 269.049Z" fill="#DD2714"/>
<path d="M519.64 264.854C520.116 263.522 519.421 262.055 518.088 261.579C516.755 261.103 515.289 261.798 514.813 263.131C514.337 264.464 515.032 265.93 516.365 266.406C517.698 266.882 519.164 266.187 519.64 264.854Z" fill="#DD2714"/>
<path d="M532.396 259.613C532.872 258.28 532.177 256.814 530.844 256.338C529.511 255.862 528.045 256.557 527.569 257.89C527.093 259.223 527.788 260.689 529.121 261.165C530.454 261.641 531.92 260.946 532.396 259.613Z" fill="#DD2714"/>
<path d="M525.581 259.901C526.057 258.568 525.362 257.102 524.029 256.626C522.697 256.15 521.23 256.844 520.754 258.177C520.278 259.51 520.973 260.977 522.306 261.453C523.639 261.929 525.105 261.234 525.581 259.901Z" fill="#DD2714"/>
<path d="M535.359 248.447C535.835 247.114 535.14 245.648 533.807 245.172C532.474 244.696 531.008 245.391 530.532 246.723C530.056 248.056 530.75 249.523 532.083 249.999C533.416 250.475 534.883 249.78 535.359 248.447Z" fill="#DD2714"/>
</g>
<defs>
<clipPath id="clip0_6_2637">
<rect width="900" height="420" fill="white"/>
</clipPath>
</defs>
</svg>
