<svg width="420" height="420" viewBox="0 0 420 420" fill="none" xmlns="http://www.w3.org/2000/svg">
<path d="M236.365 210.103C236.365 224.607 224.607 236.365 210.103 236.365C195.598 236.365 183.84 224.607 183.84 210.103C183.84 195.598 195.598 183.84 210.103 183.84C224.607 183.84 236.365 195.598 236.365 210.103Z" fill="black" stroke="white"/>
<path d="M270.408 210.103C270.408 243.408 243.408 270.408 210.103 270.408C176.797 270.408 149.797 243.408 149.797 210.103C149.797 176.797 176.797 149.797 210.103 149.797C243.408 149.797 270.408 176.797 270.408 210.103Z" stroke="black"/>
<path d="M272.5 210C272.5 244.518 244.518 272.5 210 272.5C175.482 272.5 147.5 244.518 147.5 210C147.5 175.482 175.482 147.5 210 147.5C244.518 147.5 272.5 175.482 272.5 210Z" stroke="white"/>
<path d="M314.91 210.103C314.91 267.986 267.986 314.91 210.103 314.91C152.219 314.91 105.295 267.986 105.295 210.103C105.295 152.219 152.219 105.295 210.103 105.295C267.986 105.295 314.91 152.219 314.91 210.103Z" stroke="black"/>
<path d="M316.5 210C316.5 268.818 268.818 316.5 210 316.5C151.182 316.5 103.5 268.818 103.5 210C103.5 151.182 151.182 103.5 210 103.5C268.818 103.5 316.5 151.182 316.5 210Z" stroke="white"/>
<path d="M371.102 210.103C371.102 297.426 299.028 368.23 210.103 368.23C121.177 368.23 49.1035 297.426 49.1035 210.103C49.1035 122.779 121.177 51.9746 210.103 51.9746C299.028 51.9746 371.102 122.779 371.102 210.103Z" stroke="black"/>
<path d="M372.5 210C372.5 298.081 299.755 369.5 210 369.5C120.245 369.5 47.5 298.081 47.5 210C47.5 121.919 120.245 50.5 210 50.5C299.755 50.5 372.5 121.919 372.5 210Z" stroke="white"/>
<path d="M393.045 210.103C393.045 311.139 311.139 393.045 210.103 393.045C109.066 393.045 27.1602 311.139 27.1602 210.103C27.1602 109.066 109.066 27.1602 210.103 27.1602C311.139 27.1602 393.045 109.066 393.045 210.103Z" stroke="black"/>
<path d="M394.5 210C394.5 311.897 311.897 394.5 210 394.5C108.103 394.5 25.5 311.897 25.5 210C25.5 108.103 108.103 25.5 210 25.5C311.897 25.5 394.5 108.103 394.5 210Z" stroke="white"/>
<path d="M149.297 225.381C150.996 225.381 152.373 224.004 152.373 222.305C152.373 220.606 150.996 219.229 149.297 219.229C147.598 219.229 146.221 220.606 146.221 222.305C146.221 224.004 147.598 225.381 149.297 225.381Z" fill="#FFB500"/>
<path d="M190.312 155.449C192.011 155.449 193.389 154.072 193.389 152.373C193.389 150.674 192.011 149.297 190.312 149.297C188.614 149.297 187.236 150.674 187.236 152.373C187.236 154.072 188.614 155.449 190.312 155.449Z" fill="#FFB500"/>
<path d="M146.221 213.896C147.92 213.896 149.297 212.519 149.297 210.82C149.297 209.121 147.92 207.744 146.221 207.744C144.522 207.744 143.145 209.121 143.145 210.82C143.145 212.519 144.522 213.896 146.221 213.896Z" fill="#FFB500"/>
<path d="M157.705 193.389C159.404 193.389 160.781 192.011 160.781 190.312C160.781 188.614 159.404 187.236 157.705 187.236C156.006 187.236 154.629 188.614 154.629 190.312C154.629 192.011 156.006 193.389 157.705 193.389Z" fill="#FFB500"/>
<path d="M149.297 193.389C150.996 193.389 152.373 192.011 152.373 190.312C152.373 188.614 150.996 187.236 149.297 187.236C147.598 187.236 146.221 188.614 146.221 190.312C146.221 192.011 147.598 193.389 149.297 193.389Z" fill="#FFB500"/>
<path d="M163.242 174.932C164.941 174.932 166.318 173.554 166.318 171.855C166.318 170.157 164.941 168.779 163.242 168.779C161.543 168.779 160.166 170.157 160.166 171.855C160.166 173.554 161.543 174.932 163.242 174.932Z" fill="#FFB500"/>
<path d="M155.449 231.533C157.148 231.533 158.525 230.156 158.525 228.457C158.525 226.758 157.148 225.381 155.449 225.381C153.75 225.381 152.373 226.758 152.373 228.457C152.373 230.156 153.75 231.533 155.449 231.533Z" fill="#FFB500"/>
<path d="M199.541 154.424C201.24 154.424 202.617 153.047 202.617 151.348C202.617 149.649 201.24 148.271 199.541 148.271C197.842 148.271 196.465 149.649 196.465 151.348C196.465 153.047 197.842 154.424 199.541 154.424Z" fill="#FFB500"/>
<path d="M181.699 160.576C183.398 160.576 184.775 159.199 184.775 157.5C184.775 155.801 183.398 154.424 181.699 154.424C180 154.424 178.623 155.801 178.623 157.5C178.623 159.199 180 160.576 181.699 160.576Z" fill="#FFB500"/>
<path d="M175.547 170.01C177.246 170.01 178.623 168.633 178.623 166.934C178.623 165.235 177.246 163.857 175.547 163.857C173.848 163.857 172.471 165.235 172.471 166.934C172.471 168.633 173.848 170.01 175.547 170.01Z" fill="#FFB500"/>
<path d="M166.934 183.34C168.633 183.34 170.01 181.963 170.01 180.264C170.01 178.565 168.633 177.188 166.934 177.188C165.235 177.188 163.857 178.565 163.857 180.264C163.857 181.963 165.235 183.34 166.934 183.34Z" fill="#FFB500"/>
<path d="M155.449 183.34C157.148 183.34 158.525 181.963 158.525 180.264C158.525 178.565 157.148 177.188 155.449 177.188C153.75 177.188 152.373 178.565 152.373 180.264C152.373 181.963 153.75 183.34 155.449 183.34Z" fill="#FFB500"/>
<path d="M166.318 166.729C168.017 166.729 169.395 165.351 169.395 163.652C169.395 161.953 168.017 160.576 166.318 160.576C164.619 160.576 163.242 161.953 163.242 163.652C163.242 165.351 164.619 166.729 166.318 166.729Z" fill="#FFB500"/>
<path d="M155.449 213.076C157.148 213.076 158.525 211.699 158.525 210C158.525 208.301 157.148 206.924 155.449 206.924C153.75 206.924 152.373 208.301 152.373 210C152.373 211.699 153.75 213.076 155.449 213.076Z" fill="#FFB500"/>
<path d="M149.297 236.865C150.996 236.865 152.373 235.488 152.373 233.789C152.373 232.09 150.996 230.713 149.297 230.713C147.598 230.713 146.221 232.09 146.221 233.789C146.221 235.488 147.598 236.865 149.297 236.865Z" fill="#FFB500"/>
<path d="M160.781 239.941C162.48 239.941 163.857 238.564 163.857 236.865C163.857 235.166 162.48 233.789 160.781 233.789C159.082 233.789 157.705 235.166 157.705 236.865C157.705 238.564 159.082 239.941 160.781 239.941Z" fill="#FFB500"/>
<path d="M160.781 250.811C162.48 250.811 163.857 249.433 163.857 247.734C163.857 246.035 162.48 244.658 160.781 244.658C159.082 244.658 157.705 246.035 157.705 247.734C157.705 249.433 159.082 250.811 160.781 250.811Z" fill="#FFB500"/>
<path d="M163.857 250.811C165.556 250.811 166.934 249.433 166.934 247.734C166.934 246.035 165.556 244.658 163.857 244.658C162.158 244.658 160.781 246.035 160.781 247.734C160.781 249.433 162.158 250.811 163.857 250.811Z" fill="#FFB500"/>
<path d="M149.297 202.617C150.996 202.617 152.373 201.24 152.373 199.541C152.373 197.842 150.996 196.465 149.297 196.465C147.598 196.465 146.221 197.842 146.221 199.541C146.221 201.24 147.598 202.617 149.297 202.617Z" fill="#FFB500"/>
<path d="M172.471 260.039C174.17 260.039 175.547 258.662 175.547 256.963C175.547 255.264 174.17 253.887 172.471 253.887C170.772 253.887 169.395 255.264 169.395 256.963C169.395 258.662 170.772 260.039 172.471 260.039Z" fill="#FFB500"/>
<path d="M60.9082 321.562C62.6071 321.562 63.9844 320.185 63.9844 318.486C63.9844 316.787 62.6071 315.41 60.9082 315.41C59.2093 315.41 57.832 316.787 57.832 318.486C57.832 320.185 59.2093 321.562 60.9082 321.562Z" fill="#FFB500"/>
<path d="M48.6035 306.797C50.3024 306.797 51.6797 305.42 51.6797 303.721C51.6797 302.022 50.3024 300.645 48.6035 300.645C46.9046 300.645 45.5273 302.022 45.5273 303.721C45.5273 305.42 46.9046 306.797 48.6035 306.797Z" fill="#FFB500"/>
<path d="M35.0684 270.908C36.7673 270.908 38.1445 269.531 38.1445 267.832C38.1445 266.133 36.7673 264.756 35.0684 264.756C33.3694 264.756 31.9922 266.133 31.9922 267.832C31.9922 269.531 33.3694 270.908 35.0684 270.908Z" fill="#FFB500"/>
<path d="M31.9922 233.789C33.6911 233.789 35.0684 232.412 35.0684 230.713C35.0684 229.014 33.6911 227.637 31.9922 227.637C30.2933 227.637 28.916 229.014 28.916 230.713C28.916 232.412 30.2933 233.789 31.9922 233.789Z" fill="#FFB500"/>
<path d="M26.6602 196.465C28.3591 196.465 29.7363 195.088 29.7363 193.389C29.7363 191.69 28.3591 190.312 26.6602 190.312C24.9612 190.312 23.584 191.69 23.584 193.389C23.584 195.088 24.9612 196.465 26.6602 196.465Z" fill="#FFB500"/>
<path d="M26.6602 210.82C28.3591 210.82 29.7363 209.443 29.7363 207.744C29.7363 206.045 28.3591 204.668 26.6602 204.668C24.9612 204.668 23.584 206.045 23.584 207.744C23.584 209.443 24.9612 210.82 26.6602 210.82Z" fill="#FFB500"/>
<path d="M23.584 222.305C25.2829 222.305 26.6602 220.927 26.6602 219.229C26.6602 217.53 25.2829 216.152 23.584 216.152C21.8851 216.152 20.5078 217.53 20.5078 219.229C20.5078 220.927 21.8851 222.305 23.584 222.305Z" fill="#FFB500"/>
<path d="M23.584 234.609C25.2829 234.609 26.6602 233.232 26.6602 231.533C26.6602 229.834 25.2829 228.457 23.584 228.457C21.8851 228.457 20.5078 229.834 20.5078 231.533C20.5078 233.232 21.8851 234.609 23.584 234.609Z" fill="#FFB500"/>
<path d="M32.8125 243.838C34.5114 243.838 35.8887 242.461 35.8887 240.762C35.8887 239.063 34.5114 237.686 32.8125 237.686C31.1136 237.686 29.7363 239.063 29.7363 240.762C29.7363 242.461 31.1136 243.838 32.8125 243.838Z" fill="#FFB500"/>
<path d="M28.916 261.475C30.6149 261.475 31.9922 260.097 31.9922 258.398C31.9922 256.7 30.6149 255.322 28.916 255.322C27.2171 255.322 25.8398 256.7 25.8398 258.398C25.8398 260.097 27.2171 261.475 28.916 261.475Z" fill="#FFB500"/>
<path d="M45.5273 275.42C47.2263 275.42 48.6035 274.043 48.6035 272.344C48.6035 270.645 47.2263 269.268 45.5273 269.268C43.8284 269.268 42.4512 270.645 42.4512 272.344C42.4512 274.043 43.8284 275.42 45.5273 275.42Z" fill="#FFB500"/>
<path d="M23.584 186.416C25.2829 186.416 26.6602 185.039 26.6602 183.34C26.6602 181.641 25.2829 180.264 23.584 180.264C21.8851 180.264 20.5078 181.641 20.5078 183.34C20.5078 185.039 21.8851 186.416 23.584 186.416Z" fill="#FFB500"/>
<path d="M32.8125 181.084C34.5114 181.084 35.8887 179.707 35.8887 178.008C35.8887 176.309 34.5114 174.932 32.8125 174.932C31.1136 174.932 29.7363 176.309 29.7363 178.008C29.7363 179.707 31.1136 181.084 32.8125 181.084Z" fill="#FFB500"/>
<path d="M31.9922 157.5C33.6911 157.5 35.0684 156.123 35.0684 154.424C35.0684 152.725 33.6911 151.348 31.9922 151.348C30.2933 151.348 28.916 152.725 28.916 154.424C28.916 156.123 30.2933 157.5 31.9922 157.5Z" fill="#FFB500"/>
<path d="M63.9844 98.2324C65.6833 98.2324 67.0605 96.8552 67.0605 95.1562C67.0605 93.4573 65.6833 92.0801 63.9844 92.0801C62.2855 92.0801 60.9082 93.4573 60.9082 95.1562C60.9082 96.8552 62.2855 98.2324 63.9844 98.2324Z" fill="#FFB500"/>
<path d="M42.4512 135.352C44.1501 135.352 45.5273 133.974 45.5273 132.275C45.5273 130.576 44.1501 129.199 42.4512 129.199C40.7522 129.199 39.375 130.576 39.375 132.275C39.375 133.974 40.7522 135.352 42.4512 135.352Z" fill="#FFB500"/>
<path d="M48.6035 122.842C50.3024 122.842 51.6797 121.465 51.6797 119.766C51.6797 118.067 50.3024 116.689 48.6035 116.689C46.9046 116.689 45.5273 118.067 45.5273 119.766C45.5273 121.465 46.9046 122.842 48.6035 122.842Z" fill="#FFB500"/>
<path d="M60.9082 114.023C62.6071 114.023 63.9844 112.646 63.9844 110.947C63.9844 109.248 62.6071 107.871 60.9082 107.871C59.2093 107.871 57.832 109.248 57.832 110.947C57.832 112.646 59.2093 114.023 60.9082 114.023Z" fill="#FFB500"/>
<path d="M74.8535 87.7734C76.5524 87.7734 77.9297 86.3962 77.9297 84.6973C77.9297 82.9983 76.5524 81.6211 74.8535 81.6211C73.1546 81.6211 71.7773 82.9983 71.7773 84.6973C71.7773 86.3962 73.1546 87.7734 74.8535 87.7734Z" fill="#FFB500"/>
<path d="M38.1445 145.195C39.8435 145.195 41.2207 143.818 41.2207 142.119C41.2207 140.42 39.8435 139.043 38.1445 139.043C36.4456 139.043 35.0684 140.42 35.0684 142.119C35.0684 143.818 36.4456 145.195 38.1445 145.195Z" fill="#FFB500"/>
<path d="M51.6797 132.275C53.3786 132.275 54.7559 130.898 54.7559 129.199C54.7559 127.5 53.3786 126.123 51.6797 126.123C49.9808 126.123 48.6035 127.5 48.6035 129.199C48.6035 130.898 49.9808 132.275 51.6797 132.275Z" fill="#FFB500"/>
<path d="M26.6602 172.881C28.3591 172.881 29.7363 171.504 29.7363 169.805C29.7363 168.106 28.3591 166.729 26.6602 166.729C24.9612 166.729 23.584 168.106 23.584 169.805C23.584 171.504 24.9612 172.881 26.6602 172.881Z" fill="#FFB500"/>
<path d="M36.2988 168.779C37.9978 168.779 39.375 167.402 39.375 165.703C39.375 164.004 37.9978 162.627 36.2988 162.627C34.5999 162.627 33.2227 164.004 33.2227 165.703C33.2227 167.402 34.5999 168.779 36.2988 168.779Z" fill="#FFB500"/>
<path d="M41.2207 154.424C42.9196 154.424 44.2969 153.047 44.2969 151.348C44.2969 149.649 42.9196 148.271 41.2207 148.271C39.5218 148.271 38.1445 149.649 38.1445 151.348C38.1445 153.047 39.5218 154.424 41.2207 154.424Z" fill="#FFB500"/>
<path d="M47.373 107.871C49.072 107.871 50.4492 106.494 50.4492 104.795C50.4492 103.096 49.072 101.719 47.373 101.719C45.6741 101.719 44.2969 103.096 44.2969 104.795C44.2969 106.494 45.6741 107.871 47.373 107.871Z" fill="#FFB500"/>
<path d="M90.0293 84.6973C91.7282 84.6973 93.1055 83.32 93.1055 81.6211C93.1055 79.9222 91.7282 78.5449 90.0293 78.5449C88.3304 78.5449 86.9531 79.9222 86.9531 81.6211C86.9531 83.32 88.3304 84.6973 90.0293 84.6973Z" fill="#FFB500"/>
<path d="M99.873 64.8047C101.572 64.8047 102.949 63.4274 102.949 61.7285C102.949 60.0296 101.572 58.6523 99.873 58.6523C98.1741 58.6523 96.7969 60.0296 96.7969 61.7285C96.7969 63.4274 98.1741 64.8047 99.873 64.8047Z" fill="#FFB500"/>
<path d="M128.174 54.5508C129.873 54.5508 131.25 53.1735 131.25 51.4746C131.25 49.7757 129.873 48.3984 128.174 48.3984C126.475 48.3984 125.098 49.7757 125.098 51.4746C125.098 53.1735 126.475 54.5508 128.174 54.5508Z" fill="#FFB500"/>
<path d="M146.221 42.2461C147.92 42.2461 149.297 40.8688 149.297 39.1699C149.297 37.471 147.92 36.0938 146.221 36.0938C144.522 36.0938 143.145 37.471 143.145 39.1699C143.145 40.8688 144.522 42.2461 146.221 42.2461Z" fill="#FFB500"/>
<path d="M151.553 33.0176C153.252 33.0176 154.629 31.6403 154.629 29.9414C154.629 28.2425 153.252 26.8652 151.553 26.8652C149.854 26.8652 148.477 28.2425 148.477 29.9414C148.477 31.6403 149.854 33.0176 151.553 33.0176Z" fill="#FFB500"/>
<path d="M173.086 32.8125C174.785 32.8125 176.162 31.4353 176.162 29.7363C176.162 28.0374 174.785 26.6602 173.086 26.6602C171.387 26.6602 170.01 28.0374 170.01 29.7363C170.01 31.4353 171.387 32.8125 173.086 32.8125Z" fill="#FFB500"/>
<path d="M193.389 26.6602C195.088 26.6602 196.465 25.2829 196.465 23.584C196.465 21.8851 195.088 20.5078 193.389 20.5078C191.69 20.5078 190.312 21.8851 190.312 23.584C190.312 25.2829 191.69 26.6602 193.389 26.6602Z" fill="#FFB500"/>
<path d="M186.416 32.8125C188.115 32.8125 189.492 31.4353 189.492 29.7363C189.492 28.0374 188.115 26.6602 186.416 26.6602C184.717 26.6602 183.34 28.0374 183.34 29.7363C183.34 31.4353 184.717 32.8125 186.416 32.8125Z" fill="#FFB500"/>
<path d="M161.602 32.8125C163.3 32.8125 164.678 31.4353 164.678 29.7363C164.678 28.0374 163.3 26.6602 161.602 26.6602C159.903 26.6602 158.525 28.0374 158.525 29.7363C158.525 31.4353 159.903 32.8125 161.602 32.8125Z" fill="#FFB500"/>
<path d="M158.525 39.1699C160.224 39.1699 161.602 37.7927 161.602 36.0938C161.602 34.3948 160.224 33.0176 158.525 33.0176C156.826 33.0176 155.449 34.3948 155.449 36.0938C155.449 37.7927 156.826 39.1699 158.525 39.1699Z" fill="#FFB500"/>
<path d="M131.25 45.3223C132.949 45.3223 134.326 43.945 134.326 42.2461C134.326 40.5472 132.949 39.1699 131.25 39.1699C129.551 39.1699 128.174 40.5472 128.174 42.2461C128.174 43.945 129.551 45.3223 131.25 45.3223Z" fill="#FFB500"/>
<path d="M140.068 48.3984C141.767 48.3984 143.145 47.0212 143.145 45.3223C143.145 43.6233 141.767 42.2461 140.068 42.2461C138.369 42.2461 136.992 43.6233 136.992 45.3223C136.992 47.0212 138.369 48.3984 140.068 48.3984Z" fill="#FFB500"/>
<path d="M115.254 54.5508C116.953 54.5508 118.33 53.1735 118.33 51.4746C118.33 49.7757 116.953 48.3984 115.254 48.3984C113.555 48.3984 112.178 49.7757 112.178 51.4746C112.178 53.1735 113.555 54.5508 115.254 54.5508Z" fill="#FFB500"/>
<path d="M109.102 67.8809C110.8 67.8809 112.178 66.5036 112.178 64.8047C112.178 63.1058 110.8 61.7285 109.102 61.7285C107.403 61.7285 106.025 63.1058 106.025 64.8047C106.025 66.5036 107.403 67.8809 109.102 67.8809Z" fill="#FFB500"/>
<path d="M106.025 54.5508C107.724 54.5508 109.102 53.1735 109.102 51.4746C109.102 49.7757 107.724 48.3984 106.025 48.3984C104.326 48.3984 102.949 49.7757 102.949 51.4746C102.949 53.1735 104.326 54.5508 106.025 54.5508Z" fill="#FFB500"/>
<path d="M86.9531 74.0332C88.652 74.0332 90.0293 72.656 90.0293 70.957C90.0293 69.2581 88.652 67.8809 86.9531 67.8809C85.2542 67.8809 83.877 69.2581 83.877 70.957C83.877 72.656 85.2542 74.0332 86.9531 74.0332Z" fill="#FFB500"/>
<path d="M96.7969 77.1094C98.4958 77.1094 99.873 75.7321 99.873 74.0332C99.873 72.3343 98.4958 70.957 96.7969 70.957C95.098 70.957 93.7207 72.3343 93.7207 74.0332C93.7207 75.7321 95.098 77.1094 96.7969 77.1094Z" fill="#FFB500"/>
<path d="M81.0059 95.1562C82.7048 95.1562 84.082 93.779 84.082 92.0801C84.082 90.3812 82.7048 89.0039 81.0059 89.0039C79.3069 89.0039 77.9297 90.3812 77.9297 92.0801C77.9297 93.779 79.3069 95.1562 81.0059 95.1562Z" fill="#FFB500"/>
<path d="M71.7773 101.719C73.4763 101.719 74.8535 100.342 74.8535 98.6426C74.8535 96.9437 73.4763 95.5664 71.7773 95.5664C70.0784 95.5664 68.7012 96.9437 68.7012 98.6426C68.7012 100.342 70.0784 101.719 71.7773 101.719Z" fill="#FFB500"/>
<path d="M71.5723 324.639C73.2712 324.639 74.6484 323.261 74.6484 321.562C74.6484 319.864 73.2712 318.486 71.5723 318.486C69.8733 318.486 68.4961 319.864 68.4961 321.562C68.4961 323.261 69.8733 324.639 71.5723 324.639Z" fill="#FFB500"/>
<path d="M60.9082 312.334C62.6071 312.334 63.9844 310.957 63.9844 309.258C63.9844 307.559 62.6071 306.182 60.9082 306.182C59.2093 306.182 57.832 307.559 57.832 309.258C57.832 310.957 59.2093 312.334 60.9082 312.334Z" fill="#FFB500"/>
<path d="M51.6797 293.877C53.3786 293.877 54.7559 292.5 54.7559 290.801C54.7559 289.102 53.3786 287.725 51.6797 287.725C49.9808 287.725 48.6035 289.102 48.6035 290.801C48.6035 292.5 49.9808 293.877 51.6797 293.877Z" fill="#FFB500"/>
<path d="M38.1445 284.648C39.8435 284.648 41.2207 283.271 41.2207 281.572C41.2207 279.873 39.8435 278.496 38.1445 278.496C36.4456 278.496 35.0684 279.873 35.0684 281.572C35.0684 283.271 36.4456 284.648 38.1445 284.648Z" fill="#FFB500"/>
<path d="M35.0684 253.887C36.7673 253.887 38.1445 252.509 38.1445 250.811C38.1445 249.112 36.7673 247.734 35.0684 247.734C33.3694 247.734 31.9922 249.112 31.9922 250.811C31.9922 252.509 33.3694 253.887 35.0684 253.887Z" fill="#FFB500"/>
<path d="M42.4512 293.877C44.1501 293.877 45.5273 292.5 45.5273 290.801C45.5273 289.102 44.1501 287.725 42.4512 287.725C40.7522 287.725 39.375 289.102 39.375 290.801C39.375 292.5 40.7522 293.877 42.4512 293.877Z" fill="#FFB500"/>
<path d="M77.9297 334.072C79.6286 334.072 81.0059 332.695 81.0059 330.996C81.0059 329.297 79.6286 327.92 77.9297 327.92C76.2308 327.92 74.8535 329.297 74.8535 330.996C74.8535 332.695 76.2308 334.072 77.9297 334.072Z" fill="#FFB500"/>
<path d="M78.8904 317.555C80.5144 317.056 81.4266 315.335 80.9277 313.711C80.4289 312.087 78.7079 311.175 77.0839 311.674C75.4598 312.172 74.5477 313.893 75.0466 315.517C75.5454 317.141 77.2664 318.054 78.8904 317.555Z" fill="#FFB500"/>
<path d="M71.3975 299.021C73.0215 298.522 73.9337 296.801 73.4348 295.177C72.9359 293.553 71.215 292.641 69.591 293.14C67.9669 293.638 67.0548 295.359 67.5537 296.983C68.0525 298.607 69.7735 299.52 71.3975 299.021Z" fill="#FFB500"/>
<path d="M58.0371 272.549C59.736 272.549 61.1133 271.172 61.1133 269.473C61.1133 267.774 59.736 266.396 58.0371 266.396C56.3382 266.396 54.9609 267.774 54.9609 269.473C54.9609 271.172 56.3382 272.549 58.0371 272.549Z" fill="#FFB500"/>
<path d="M54.9609 235.43C56.6599 235.43 58.0371 234.052 58.0371 232.354C58.0371 230.655 56.6599 229.277 54.9609 229.277C53.262 229.277 51.8848 230.655 51.8848 232.354C51.8848 234.052 53.262 235.43 54.9609 235.43Z" fill="#FFB500"/>
<path d="M49.6289 198.105C51.3278 198.105 52.7051 196.728 52.7051 195.029C52.7051 193.33 51.3278 191.953 49.6289 191.953C47.93 191.953 46.5527 193.33 46.5527 195.029C46.5527 196.728 47.93 198.105 49.6289 198.105Z" fill="#FFB500"/>
<path d="M49.6289 212.461C51.3278 212.461 52.7051 211.084 52.7051 209.385C52.7051 207.686 51.3278 206.309 49.6289 206.309C47.93 206.309 46.5527 207.686 46.5527 209.385C46.5527 211.084 47.93 212.461 49.6289 212.461Z" fill="#FFB500"/>
<path d="M46.5527 223.945C48.2517 223.945 49.6289 222.568 49.6289 220.869C49.6289 219.17 48.2517 217.793 46.5527 217.793C44.8538 217.793 43.4766 219.17 43.4766 220.869C43.4766 222.568 44.8538 223.945 46.5527 223.945Z" fill="#FFB500"/>
<path d="M46.5527 236.25C48.2517 236.25 49.6289 234.873 49.6289 233.174C49.6289 231.475 48.2517 230.098 46.5527 230.098C44.8538 230.098 43.4766 231.475 43.4766 233.174C43.4766 234.873 44.8538 236.25 46.5527 236.25Z" fill="#FFB500"/>
<path d="M55.7812 245.479C57.4802 245.479 58.8574 244.101 58.8574 242.402C58.8574 240.703 57.4802 239.326 55.7812 239.326C54.0823 239.326 52.7051 240.703 52.7051 242.402C52.7051 244.101 54.0823 245.479 55.7812 245.479Z" fill="#FFB500"/>
<path d="M51.8848 263.115C53.5837 263.115 54.9609 261.738 54.9609 260.039C54.9609 258.34 53.5837 256.963 51.8848 256.963C50.1858 256.963 48.8086 258.34 48.8086 260.039C48.8086 261.738 50.1858 263.115 51.8848 263.115Z" fill="#FFB500"/>
<path d="M73.0764 272.786C74.7005 272.287 75.6126 270.567 75.1137 268.943C74.6149 267.318 72.8939 266.406 71.2699 266.905C69.6459 267.404 68.7338 269.125 69.2326 270.749C69.7315 272.373 71.4524 273.285 73.0764 272.786Z" fill="#FFB500"/>
<path d="M46.5527 188.057C48.2517 188.057 49.6289 186.679 49.6289 184.98C49.6289 183.282 48.2517 181.904 46.5527 181.904C44.8538 181.904 43.4766 183.282 43.4766 184.98C43.4766 186.679 44.8538 188.057 46.5527 188.057Z" fill="#FFB500"/>
<path d="M55.7812 182.725C57.4802 182.725 58.8574 181.347 58.8574 179.648C58.8574 177.95 57.4802 176.572 55.7812 176.572C54.0823 176.572 52.7051 177.95 52.7051 179.648C52.7051 181.347 54.0823 182.725 55.7812 182.725Z" fill="#FFB500"/>
<path d="M54.9609 159.141C56.6599 159.141 58.0371 157.763 58.0371 156.064C58.0371 154.366 56.6599 152.988 54.9609 152.988C53.262 152.988 51.8848 154.366 51.8848 156.064C51.8848 157.763 53.262 159.141 54.9609 159.141Z" fill="#FFB500"/>
<path d="M78.1348 109.307C79.8337 109.307 81.2109 107.929 81.2109 106.23C81.2109 104.532 79.8337 103.154 78.1348 103.154C76.4358 103.154 75.0586 104.532 75.0586 106.23C75.0586 107.929 76.4358 109.307 78.1348 109.307Z" fill="#FFB500"/>
<path d="M72.1875 137.197C73.8864 137.197 75.2637 135.82 75.2637 134.121C75.2637 132.422 73.8864 131.045 72.1875 131.045C70.4886 131.045 69.1113 132.422 69.1113 134.121C69.1113 135.82 70.4886 137.197 72.1875 137.197Z" fill="#FFB500"/>
<path d="M62.7539 133.916C64.4528 133.916 65.8301 132.539 65.8301 130.84C65.8301 129.141 64.4528 127.764 62.7539 127.764C61.055 127.764 59.6777 129.141 59.6777 130.84C59.6777 132.539 61.055 133.916 62.7539 133.916Z" fill="#FFB500"/>
<path d="M75.0586 125.098C76.7575 125.098 78.1348 123.72 78.1348 122.021C78.1348 120.323 76.7575 118.945 75.0586 118.945C73.3597 118.945 71.9824 120.323 71.9824 122.021C71.9824 123.72 73.3597 125.098 75.0586 125.098Z" fill="#FFB500"/>
<path d="M89.0039 98.8477C90.7028 98.8477 92.0801 97.4704 92.0801 95.7715C92.0801 94.0726 90.7028 92.6953 89.0039 92.6953C87.305 92.6953 85.9277 94.0726 85.9277 95.7715C85.9277 97.4704 87.305 98.8477 89.0039 98.8477Z" fill="#FFB500"/>
<path d="M58.0371 149.912C59.736 149.912 61.1133 148.535 61.1133 146.836C61.1133 145.137 59.736 143.76 58.0371 143.76C56.3382 143.76 54.9609 145.137 54.9609 146.836C54.9609 148.535 56.3382 149.912 58.0371 149.912Z" fill="#FFB500"/>
<path d="M65.8301 143.35C67.529 143.35 68.9062 141.972 68.9062 140.273C68.9062 138.575 67.529 137.197 65.8301 137.197C64.1312 137.197 62.7539 138.575 62.7539 140.273C62.7539 141.972 64.1312 143.35 65.8301 143.35Z" fill="#FFB500"/>
<path d="M49.6289 174.521C51.3278 174.521 52.7051 173.144 52.7051 171.445C52.7051 169.746 51.3278 168.369 49.6289 168.369C47.93 168.369 46.5527 169.746 46.5527 171.445C46.5527 173.144 47.93 174.521 49.6289 174.521Z" fill="#FFB500"/>
<path d="M59.2676 170.42C60.9665 170.42 62.3438 169.043 62.3438 167.344C62.3438 165.645 60.9665 164.268 59.2676 164.268C57.5687 164.268 56.1914 165.645 56.1914 167.344C56.1914 169.043 57.5687 170.42 59.2676 170.42Z" fill="#FFB500"/>
<path d="M64.1895 156.064C65.8884 156.064 67.2656 154.687 67.2656 152.988C67.2656 151.289 65.8884 149.912 64.1895 149.912C62.4905 149.912 61.1133 151.289 61.1133 152.988C61.1133 154.687 62.4905 156.064 64.1895 156.064Z" fill="#FFB500"/>
<path d="M78.1348 118.945C79.8337 118.945 81.2109 117.568 81.2109 115.869C81.2109 114.17 79.8337 112.793 78.1348 112.793C76.4358 112.793 75.0586 114.17 75.0586 115.869C75.0586 117.568 76.4358 118.945 78.1348 118.945Z" fill="#FFB500"/>
<path d="M104.18 95.7715C105.879 95.7715 107.256 94.3942 107.256 92.6953C107.256 90.9964 105.879 89.6191 104.18 89.6191C102.481 89.6191 101.104 90.9964 101.104 92.6953C101.104 94.3942 102.481 95.7715 104.18 95.7715Z" fill="#FFB500"/>
<path d="M114.023 75.8789C115.722 75.8789 117.1 74.5017 117.1 72.8027C117.1 71.1038 115.722 69.7266 114.023 69.7266C112.325 69.7266 110.947 71.1038 110.947 72.8027C110.947 74.5017 112.325 75.8789 114.023 75.8789Z" fill="#FFB500"/>
<path d="M142.324 65.625C144.023 65.625 145.4 64.2478 145.4 62.5488C145.4 60.8499 144.023 59.4727 142.324 59.4727C140.625 59.4727 139.248 60.8499 139.248 62.5488C139.248 64.2478 140.625 65.625 142.324 65.625Z" fill="#FFB500"/>
<path d="M154.219 61.9336C155.918 61.9336 157.295 60.5563 157.295 58.8574C157.295 57.1585 155.918 55.7812 154.219 55.7812C152.52 55.7812 151.143 57.1585 151.143 58.8574C151.143 60.5563 152.52 61.9336 154.219 61.9336Z" fill="#FFB500"/>
<path d="M159.551 52.7051C161.25 52.7051 162.627 51.3278 162.627 49.6289C162.627 47.93 161.25 46.5527 159.551 46.5527C157.852 46.5527 156.475 47.93 156.475 49.6289C156.475 51.3278 157.852 52.7051 159.551 52.7051Z" fill="#FFB500"/>
<path d="M178.828 56.1914C180.527 56.1914 181.904 54.8142 181.904 53.1152C181.904 51.4163 180.527 50.0391 178.828 50.0391C177.129 50.0391 175.752 51.4163 175.752 53.1152C175.752 54.8142 177.129 56.1914 178.828 56.1914Z" fill="#FFB500"/>
<path d="M199.131 50.0391C200.83 50.0391 202.207 48.6618 202.207 46.9629C202.207 45.264 200.83 43.8867 199.131 43.8867C197.432 43.8867 196.055 45.264 196.055 46.9629C196.055 48.6618 197.432 50.0391 199.131 50.0391Z" fill="#FFB500"/>
<path d="M192.158 56.1914C193.857 56.1914 195.234 54.8142 195.234 53.1152C195.234 51.4163 193.857 50.0391 192.158 50.0391C190.459 50.0391 189.082 51.4163 189.082 53.1152C189.082 54.8142 190.459 56.1914 192.158 56.1914Z" fill="#FFB500"/>
<path d="M167.344 56.1914C169.043 56.1914 170.42 54.8142 170.42 53.1152C170.42 51.4163 169.043 50.0391 167.344 50.0391C165.645 50.0391 164.268 51.4163 164.268 53.1152C164.268 54.8142 165.645 56.1914 167.344 56.1914Z" fill="#FFB500"/>
<path d="M164.268 62.5488C165.967 62.5488 167.344 61.1716 167.344 59.4727C167.344 57.7737 165.967 56.3965 164.268 56.3965C162.569 56.3965 161.191 57.7737 161.191 59.4727C161.191 61.1716 162.569 62.5488 164.268 62.5488Z" fill="#FFB500"/>
<path d="M145.4 56.3965C147.099 56.3965 148.477 55.0192 148.477 53.3203C148.477 51.6214 147.099 50.2441 145.4 50.2441C143.701 50.2441 142.324 51.6214 142.324 53.3203C142.324 55.0192 143.701 56.3965 145.4 56.3965Z" fill="#FFB500"/>
<path d="M135.967 58.6523C137.666 58.6523 139.043 57.2751 139.043 55.5762C139.043 53.8772 137.666 52.5 135.967 52.5C134.268 52.5 132.891 53.8772 132.891 55.5762C132.891 57.2751 134.268 58.6523 135.967 58.6523Z" fill="#FFB500"/>
<path d="M129.404 65.625C131.103 65.625 132.48 64.2478 132.48 62.5488C132.48 60.8499 131.103 59.4727 129.404 59.4727C127.705 59.4727 126.328 60.8499 126.328 62.5488C126.328 64.2478 127.705 65.625 129.404 65.625Z" fill="#FFB500"/>
<path d="M123.252 78.9551C124.951 78.9551 126.328 77.5778 126.328 75.8789C126.328 74.18 124.951 72.8027 123.252 72.8027C121.553 72.8027 120.176 74.18 120.176 75.8789C120.176 77.5778 121.553 78.9551 123.252 78.9551Z" fill="#FFB500"/>
<path d="M132.891 75.0586C134.59 75.0586 135.967 73.6813 135.967 71.9824C135.967 70.2835 134.59 68.9062 132.891 68.9062C131.192 68.9062 129.814 70.2835 129.814 71.9824C129.814 73.6813 131.192 75.0586 132.891 75.0586Z" fill="#FFB500"/>
<path d="M101.104 85.1074C102.802 85.1074 104.18 83.7302 104.18 82.0312C104.18 80.3323 102.802 78.9551 101.104 78.9551C99.4046 78.9551 98.0273 80.3323 98.0273 82.0312C98.0273 83.7302 99.4046 85.1074 101.104 85.1074Z" fill="#FFB500"/>
<path d="M110.947 88.1836C112.646 88.1836 114.023 86.8063 114.023 85.1074C114.023 83.4085 112.646 82.0312 110.947 82.0312C109.248 82.0312 107.871 83.4085 107.871 85.1074C107.871 86.8063 109.248 88.1836 110.947 88.1836Z" fill="#FFB500"/>
<path d="M95.1562 106.23C96.8552 106.23 98.2324 104.853 98.2324 103.154C98.2324 101.455 96.8552 100.078 95.1562 100.078C93.4573 100.078 92.0801 101.455 92.0801 103.154C92.0801 104.853 93.4573 106.23 95.1562 106.23Z" fill="#FFB500"/>
<path d="M85.9277 112.793C87.6267 112.793 89.0039 111.416 89.0039 109.717C89.0039 108.018 87.6267 106.641 85.9277 106.641C84.2288 106.641 82.8516 108.018 82.8516 109.717C82.8516 111.416 84.2288 112.793 85.9277 112.793Z" fill="#FFB500"/>
<path d="M94.564 332.263C96.188 331.764 97.1002 330.043 96.6013 328.419C96.1024 326.795 94.3815 325.883 92.7575 326.382C91.1334 326.881 90.2213 328.601 90.7202 330.225C91.219 331.85 92.94 332.762 94.564 332.263Z" fill="#FFB500"/>
<path d="M89.9876 317.364C91.6116 316.865 92.5237 315.144 92.0249 313.52C91.526 311.896 89.8051 310.984 88.181 311.483C86.557 311.982 85.6449 313.703 86.1437 315.327C86.6426 316.951 88.3635 317.863 89.9876 317.364Z" fill="#FFB500"/>
<path d="M76.1804 308.733C77.8045 308.234 78.7166 306.513 78.2178 304.889C77.7189 303.265 75.9979 302.353 74.3739 302.852C72.7499 303.351 71.8378 305.072 72.3366 306.696C72.8355 308.32 74.5564 309.232 76.1804 308.733Z" fill="#FFB500"/>
<path d="M65.8604 268.054C67.4844 267.555 68.3965 265.834 67.8977 264.21C67.3988 262.586 65.6779 261.674 64.0539 262.173C62.4298 262.672 61.5177 264.393 62.0165 266.017C62.5154 267.641 64.2363 268.553 65.8604 268.054Z" fill="#FFB500"/>
<path d="M68.7288 283.776C70.3528 283.277 71.265 281.556 70.7661 279.932C70.2672 278.308 68.5463 277.396 66.9223 277.895C65.2982 278.394 64.3861 280.115 64.885 281.739C65.3838 283.363 67.1048 284.275 68.7288 283.776Z" fill="#FFB500"/>
<path d="M58.0371 255.527C59.736 255.527 61.1133 254.15 61.1133 252.451C61.1133 250.752 59.736 249.375 58.0371 249.375C56.3382 249.375 54.9609 250.752 54.9609 252.451C54.9609 254.15 56.3382 255.527 58.0371 255.527Z" fill="#FFB500"/>
<path d="M75.5554 291.333C77.1795 290.834 78.0916 289.113 77.5928 287.489C77.0939 285.865 75.3729 284.953 73.7489 285.452C72.1249 285.951 71.2128 287.672 71.7116 289.296C72.2105 290.92 73.9314 291.832 75.5554 291.333Z" fill="#FFB500"/>
<path d="M98.8347 324.515C100.459 324.016 101.371 322.295 100.872 320.671C100.373 319.047 98.6522 318.135 97.0282 318.634C95.4042 319.133 94.4921 320.854 94.9909 322.478C95.4898 324.102 97.2107 325.014 98.8347 324.515Z" fill="#FFB500"/>
<path d="M122.745 268.527C124.143 269.492 126.059 269.142 127.025 267.744C127.99 266.346 127.64 264.43 126.242 263.465C124.845 262.499 122.929 262.849 121.963 264.247C120.997 265.645 121.347 267.561 122.745 268.527Z" fill="#FFB500"/>
<path d="M149.512 290.757C150.909 291.723 152.825 291.373 153.791 289.975C154.757 288.577 154.406 286.661 153.009 285.696C151.611 284.73 149.695 285.08 148.729 286.478C147.764 287.876 148.114 289.792 149.512 290.757Z" fill="#FFB500"/>
<path d="M201.788 102.474C202.463 104.033 204.274 104.75 205.833 104.075C207.392 103.4 208.109 101.589 207.434 100.03C206.76 98.471 204.949 97.754 203.389 98.4287C201.83 99.1034 201.113 100.914 201.788 102.474Z" fill="#FFB500"/>
<path d="M186.817 104.319C187.492 105.878 189.303 106.595 190.862 105.921C192.422 105.246 193.139 103.435 192.464 101.876C191.789 100.317 189.978 99.5997 188.419 100.274C186.86 100.949 186.143 102.76 186.817 104.319Z" fill="#FFB500"/>
<path d="M104.786 168.714C105.461 170.273 107.272 170.99 108.831 170.315C110.39 169.641 111.107 167.83 110.432 166.27C109.758 164.711 107.947 163.994 106.388 164.669C104.828 165.344 104.111 167.155 104.786 168.714Z" fill="#FFB500"/>
<path d="M116.475 164.612C117.15 166.171 118.961 166.888 120.52 166.214C122.079 165.539 122.797 163.728 122.122 162.169C121.447 160.61 119.636 159.893 118.077 160.567C116.518 161.242 115.801 163.053 116.475 164.612Z" fill="#FFB500"/>
<path d="M114.22 152.308C114.894 153.867 116.705 154.584 118.264 153.909C119.824 153.234 120.541 151.423 119.866 149.864C119.191 148.305 117.38 147.588 115.821 148.263C114.262 148.937 113.545 150.748 114.22 152.308Z" fill="#FFB500"/>
<path d="M102.129 222.715C103.828 222.715 105.205 221.337 105.205 219.639C105.205 217.94 103.828 216.562 102.129 216.562C100.43 216.562 99.0527 217.94 99.0527 219.639C99.0527 221.337 100.43 222.715 102.129 222.715Z" fill="#FFB500"/>
<path d="M148.866 125.773C150.526 125.413 151.581 123.776 151.221 122.115C150.861 120.455 149.223 119.401 147.563 119.76C145.903 120.12 144.848 121.758 145.208 123.418C145.568 125.079 147.206 126.133 148.866 125.773Z" fill="#FFB500"/>
<path d="M165.384 114.849C167.044 114.489 168.099 112.852 167.739 111.191C167.379 109.531 165.741 108.477 164.081 108.836C162.421 109.196 161.366 110.834 161.726 112.494C162.086 114.155 163.724 115.209 165.384 114.849Z" fill="#FFB500"/>
<path d="M181.92 117.561C183.58 117.201 184.634 115.564 184.274 113.903C183.915 112.243 182.277 111.189 180.616 111.548C178.956 111.908 177.902 113.546 178.262 115.206C178.621 116.867 180.259 117.921 181.92 117.561Z" fill="#FFB500"/>
<path d="M141.201 294.488C142.599 295.454 144.515 295.103 145.481 293.706C146.446 292.308 146.096 290.392 144.698 289.426C143.301 288.461 141.385 288.811 140.419 290.209C139.453 291.606 139.804 293.522 141.201 294.488Z" fill="#FFB500"/>
<path d="M122.562 279.616C123.959 280.582 125.875 280.232 126.841 278.834C127.807 277.436 127.457 275.52 126.059 274.554C124.661 273.589 122.745 273.939 121.779 275.337C120.814 276.735 121.164 278.651 122.562 279.616Z" fill="#FFB500"/>
<path d="M129.495 273.189C130.892 274.155 132.808 273.805 133.774 272.407C134.74 271.009 134.389 269.093 132.992 268.127C131.594 267.162 129.678 267.512 128.712 268.91C127.746 270.308 128.097 272.224 129.495 273.189Z" fill="#FFB500"/>
<path d="M131.611 289.608C133.009 290.573 134.925 290.223 135.891 288.825C136.857 287.427 136.506 285.512 135.109 284.546C133.711 283.58 131.795 283.93 130.829 285.328C129.863 286.726 130.214 288.642 131.611 289.608Z" fill="#FFB500"/>
<path d="M99.0527 211.23C100.752 211.23 102.129 209.853 102.129 208.154C102.129 206.455 100.752 205.078 99.0527 205.078C97.3538 205.078 95.9766 206.455 95.9766 208.154C95.9766 209.853 97.3538 211.23 99.0527 211.23Z" fill="#FFB500"/>
<path d="M110.537 190.723C112.236 190.723 113.613 189.345 113.613 187.647C113.613 185.948 112.236 184.57 110.537 184.57C108.838 184.57 107.461 185.948 107.461 187.647C107.461 189.345 108.838 190.723 110.537 190.723Z" fill="#FFB500"/>
<path d="M102.129 190.723C103.828 190.723 105.205 189.345 105.205 187.647C105.205 185.948 103.828 184.57 102.129 184.57C100.43 184.57 99.0527 185.948 99.0527 187.647C99.0527 189.345 100.43 190.723 102.129 190.723Z" fill="#FFB500"/>
<path d="M126.536 150.547C128.196 150.187 129.251 148.549 128.891 146.889C128.531 145.229 126.893 144.174 125.233 144.534C123.573 144.894 122.518 146.532 122.878 148.192C123.238 149.852 124.876 150.907 126.536 150.547Z" fill="#FFB500"/>
<path d="M108.281 228.867C109.98 228.867 111.357 227.49 111.357 225.791C111.357 224.092 109.98 222.715 108.281 222.715C106.582 222.715 105.205 224.092 105.205 225.791C105.205 227.49 106.582 228.867 108.281 228.867Z" fill="#FFB500"/>
<path d="M204.417 115.833C206.078 115.473 207.132 113.836 206.772 112.175C206.412 110.515 204.775 109.461 203.114 109.82C201.454 110.18 200.4 111.818 200.759 113.478C201.119 115.139 202.757 116.193 204.417 115.833Z" fill="#FFB500"/>
<path d="M192.442 121.576C194.103 121.216 195.157 119.578 194.797 117.918C194.437 116.258 192.8 115.203 191.139 115.563C189.479 115.923 188.425 117.561 188.784 119.221C189.144 120.881 190.782 121.936 192.442 121.576Z" fill="#FFB500"/>
<path d="M157.668 122.817C159.328 122.457 160.383 120.819 160.023 119.159C159.663 117.498 158.025 116.444 156.365 116.804C154.705 117.164 153.65 118.801 154.01 120.462C154.37 122.122 156.008 123.176 157.668 122.817Z" fill="#FFB500"/>
<path d="M141.534 132.608C143.194 132.248 144.249 130.611 143.889 128.95C143.529 127.29 141.891 126.235 140.231 126.595C138.571 126.955 137.516 128.593 137.876 130.253C138.236 131.914 139.874 132.968 141.534 132.608Z" fill="#FFB500"/>
<path d="M137.519 143.131C139.179 142.771 140.234 141.133 139.874 139.473C139.514 137.812 137.876 136.758 136.216 137.118C134.556 137.478 133.501 139.115 133.861 140.776C134.221 142.436 135.859 143.49 137.519 143.131Z" fill="#FFB500"/>
<path d="M174.403 112.895C176.064 112.535 177.118 110.897 176.758 109.237C176.398 107.576 174.761 106.522 173.1 106.882C171.44 107.242 170.386 108.879 170.745 110.54C171.105 112.2 172.743 113.255 174.403 112.895Z" fill="#FFB500"/>
<path d="M131.924 157.983C133.585 157.623 134.639 155.985 134.279 154.325C133.919 152.664 132.282 151.61 130.621 151.97C128.961 152.33 127.907 153.967 128.266 155.628C128.626 157.288 130.264 158.342 131.924 157.983Z" fill="#FFB500"/>
<path d="M108.281 180.674C109.98 180.674 111.357 179.297 111.357 177.598C111.357 175.899 109.98 174.522 108.281 174.522C106.582 174.522 105.205 175.899 105.205 177.598C105.205 179.297 106.582 180.674 108.281 180.674Z" fill="#FFB500"/>
<path d="M127.805 141.878C129.465 141.519 130.52 139.881 130.16 138.22C129.8 136.56 128.162 135.506 126.502 135.866C124.842 136.225 123.787 137.863 124.147 139.523C124.507 141.184 126.145 142.238 127.805 141.878Z" fill="#FFB500"/>
<path d="M108.281 210.41C109.98 210.41 111.357 209.033 111.357 207.334C111.357 205.635 109.98 204.258 108.281 204.258C106.582 204.258 105.205 205.635 105.205 207.334C105.205 209.033 106.582 210.41 108.281 210.41Z" fill="#FFB500"/>
<path d="M102.129 234.199C103.828 234.199 105.205 232.822 105.205 231.123C105.205 229.424 103.828 228.047 102.129 228.047C100.43 228.047 99.0527 229.424 99.0527 231.123C99.0527 232.822 100.43 234.199 102.129 234.199Z" fill="#FFB500"/>
<path d="M113.613 237.275C115.312 237.275 116.689 235.898 116.689 234.199C116.689 232.5 115.312 231.123 113.613 231.123C111.914 231.123 110.537 232.5 110.537 234.199C110.537 235.898 111.914 237.275 113.613 237.275Z" fill="#FFB500"/>
<path d="M113.613 248.144C115.312 248.144 116.689 246.767 116.689 245.068C116.689 243.369 115.312 241.992 113.613 241.992C111.914 241.992 110.537 243.369 110.537 245.068C110.537 246.767 111.914 248.144 113.613 248.144Z" fill="#FFB500"/>
<path d="M117.99 246.547C119.388 247.512 121.304 247.162 122.269 245.764C123.235 244.366 122.885 242.45 121.487 241.485C120.089 240.519 118.173 240.869 117.208 242.267C116.242 243.665 116.592 245.581 117.99 246.547Z" fill="#FFB500"/>
<path d="M133.394 281.616C134.791 282.582 136.707 282.232 137.673 280.834C138.639 279.436 138.289 277.52 136.891 276.554C135.493 275.589 133.577 275.939 132.611 277.337C131.646 278.735 131.996 280.65 133.394 281.616Z" fill="#FFB500"/>
<path d="M102.129 199.951C103.828 199.951 105.205 198.574 105.205 196.875C105.205 195.176 103.828 193.799 102.129 193.799C100.43 193.799 99.0527 195.176 99.0527 196.875C99.0527 198.574 100.43 199.951 102.129 199.951Z" fill="#FFB500"/>
<path d="M119.831 259.035C121.229 260.001 123.144 259.651 124.11 258.253C125.076 256.855 124.726 254.939 123.328 253.973C121.93 253.008 120.014 253.358 119.048 254.756C118.083 256.153 118.433 258.069 119.831 259.035Z" fill="#FFB500"/>
<path d="M233.789 269.268C235.488 269.268 236.865 267.89 236.865 266.191C236.865 264.492 235.488 263.115 233.789 263.115C232.09 263.115 230.713 264.492 230.713 266.191C230.713 267.89 232.09 269.268 233.789 269.268Z" fill="#DD2714"/>
<path d="M214.922 269.268C216.621 269.268 217.998 267.89 217.998 266.191C217.998 264.492 216.621 263.115 214.922 263.115C213.223 263.115 211.846 264.492 211.846 266.191C211.846 267.89 213.223 269.268 214.922 269.268Z" fill="#DD2714"/>
<path d="M224.355 273.984C226.054 273.984 227.432 272.607 227.432 270.908C227.432 269.209 226.054 267.832 224.355 267.832C222.657 267.832 221.279 269.209 221.279 270.908C221.279 272.607 222.657 273.984 224.355 273.984Z" fill="#DD2714"/>
<path d="M239.941 260.039C241.64 260.039 243.018 258.662 243.018 256.963C243.018 255.264 241.64 253.887 239.941 253.887C238.242 253.887 236.865 255.264 236.865 256.963C236.865 258.662 238.242 260.039 239.941 260.039Z" fill="#DD2714"/>
<path d="M246.709 266.191C248.408 266.191 249.785 264.814 249.785 263.115C249.785 261.416 248.408 260.039 246.709 260.039C245.01 260.039 243.633 261.416 243.633 263.115C243.633 264.814 245.01 266.191 246.709 266.191Z" fill="#DD2714"/>
<path d="M210.205 277.061C211.904 277.061 213.281 275.683 213.281 273.984C213.281 272.285 211.904 270.908 210.205 270.908C208.506 270.908 207.129 272.285 207.129 273.984C207.129 275.683 208.506 277.061 210.205 277.061Z" fill="#DD2714"/>
<path d="M361.143 318.486C362.842 318.486 364.219 317.109 364.219 315.41C364.219 313.711 362.842 312.334 361.143 312.334C359.444 312.334 358.066 313.711 358.066 315.41C358.066 317.109 359.444 318.486 361.143 318.486Z" fill="#DD2714"/>
<path d="M358.066 334.072C359.765 334.072 361.143 332.695 361.143 330.996C361.143 329.297 359.765 327.92 358.066 327.92C356.367 327.92 354.99 329.297 354.99 330.996C354.99 332.695 356.367 334.072 358.066 334.072Z" fill="#DD2714"/>
<path d="M346.992 333.047C348.691 333.047 350.068 331.67 350.068 329.971C350.068 328.272 348.691 326.895 346.992 326.895C345.293 326.895 343.916 328.272 343.916 329.971C343.916 331.67 345.293 333.047 346.992 333.047Z" fill="#DD2714"/>
<path d="M324.639 355.195C326.338 355.195 327.715 353.818 327.715 352.119C327.715 350.42 326.338 349.043 324.639 349.043C322.94 349.043 321.562 350.42 321.562 352.119C321.562 353.818 322.94 355.195 324.639 355.195Z" fill="#DD2714"/>
<path d="M346.992 352.119C348.691 352.119 350.068 350.742 350.068 349.043C350.068 347.344 348.691 345.967 346.992 345.967C345.293 345.967 343.916 347.344 343.916 349.043C343.916 350.742 345.293 352.119 346.992 352.119Z" fill="#DD2714"/>
<path d="M335.713 345.967C337.412 345.967 338.789 344.59 338.789 342.891C338.789 341.192 337.412 339.814 335.713 339.814C334.014 339.814 332.637 341.192 332.637 342.891C332.637 344.59 334.014 345.967 335.713 345.967Z" fill="#DD2714"/>
<path d="M306.797 377.139C308.496 377.139 309.873 375.761 309.873 374.062C309.873 372.364 308.496 370.986 306.797 370.986C305.098 370.986 303.721 372.364 303.721 374.062C303.721 375.761 305.098 377.139 306.797 377.139Z" fill="#DD2714"/>
<path d="M297.979 377.139C299.677 377.139 301.055 375.761 301.055 374.062C301.055 372.364 299.677 370.986 297.979 370.986C296.28 370.986 294.902 372.364 294.902 374.062C294.902 375.761 296.28 377.139 297.979 377.139Z" fill="#DD2714"/>
<path d="M277.061 380.215C278.759 380.215 280.137 378.838 280.137 377.139C280.137 375.44 278.759 374.062 277.061 374.062C275.362 374.062 273.984 375.44 273.984 377.139C273.984 378.838 275.362 380.215 277.061 380.215Z" fill="#DD2714"/>
<path d="M246.094 393.545C247.793 393.545 249.17 392.168 249.17 390.469C249.17 388.77 247.793 387.393 246.094 387.393C244.395 387.393 243.018 388.77 243.018 390.469C243.018 392.168 244.395 393.545 246.094 393.545Z" fill="#DD2714"/>
<path d="M211.846 393.545C213.545 393.545 214.922 392.168 214.922 390.469C214.922 388.77 213.545 387.393 211.846 387.393C210.147 387.393 208.77 388.77 208.77 390.469C208.77 392.168 210.147 393.545 211.846 393.545Z" fill="#DD2714"/>
<path d="M178.623 393.545C180.322 393.545 181.699 392.168 181.699 390.469C181.699 388.77 180.322 387.393 178.623 387.393C176.924 387.393 175.547 388.77 175.547 390.469C175.547 392.168 176.924 393.545 178.623 393.545Z" fill="#DD2714"/>
<path d="M154.629 393.545C156.328 393.545 157.705 392.168 157.705 390.469C157.705 388.77 156.328 387.393 154.629 387.393C152.93 387.393 151.553 388.77 151.553 390.469C151.553 392.168 152.93 393.545 154.629 393.545Z" fill="#DD2714"/>
<path d="M128.994 374.883C130.693 374.883 132.07 373.506 132.07 371.807C132.07 370.108 130.693 368.73 128.994 368.73C127.295 368.73 125.918 370.108 125.918 371.807C125.918 373.506 127.295 374.883 128.994 374.883Z" fill="#DD2714"/>
<path d="M101.719 361.348C103.418 361.348 104.795 359.97 104.795 358.271C104.795 356.573 103.418 355.195 101.719 355.195C100.02 355.195 98.6426 356.573 98.6426 358.271C98.6426 359.97 100.02 361.348 101.719 361.348Z" fill="#DD2714"/>
<path d="M84.082 349.043C85.781 349.043 87.1582 347.666 87.1582 345.967C87.1582 344.268 85.781 342.891 84.082 342.891C82.3831 342.891 81.0059 344.268 81.0059 345.967C81.0059 347.666 82.3831 349.043 84.082 349.043Z" fill="#DD2714"/>
<path d="M71.5723 340.225C73.2712 340.225 74.6484 338.847 74.6484 337.148C74.6484 335.45 73.2712 334.072 71.5723 334.072C69.8733 334.072 68.4961 335.45 68.4961 337.148C68.4961 338.847 69.8733 340.225 71.5723 340.225Z" fill="#DD2714"/>
<path d="M92.6953 349.043C94.3942 349.043 95.7715 347.666 95.7715 345.967C95.7715 344.268 94.3942 342.891 92.6953 342.891C90.9964 342.891 89.6191 344.268 89.6191 345.967C89.6191 347.666 90.9964 349.043 92.6953 349.043Z" fill="#DD2714"/>
<path d="M116.689 374.062C118.388 374.062 119.766 372.685 119.766 370.986C119.766 369.287 118.388 367.91 116.689 367.91C114.991 367.91 113.613 369.287 113.613 370.986C113.613 372.685 114.991 374.062 116.689 374.062Z" fill="#DD2714"/>
<path d="M113.613 361.348C115.312 361.348 116.689 359.97 116.689 358.271C116.689 356.573 115.312 355.195 113.613 355.195C111.914 355.195 110.537 356.573 110.537 358.271C110.537 359.97 111.914 361.348 113.613 361.348Z" fill="#DD2714"/>
<path d="M137.197 387.393C138.896 387.393 140.273 386.015 140.273 384.316C140.273 382.617 138.896 381.24 137.197 381.24C135.498 381.24 134.121 382.617 134.121 384.316C134.121 386.015 135.498 387.393 137.197 387.393Z" fill="#DD2714"/>
<path d="M137.197 377.139C138.896 377.139 140.273 375.761 140.273 374.062C140.273 372.364 138.896 370.986 137.197 370.986C135.498 370.986 134.121 372.364 134.121 374.062C134.121 375.761 135.498 377.139 137.197 377.139Z" fill="#DD2714"/>
<path d="M149.297 381.035C150.996 381.035 152.373 379.658 152.373 377.959C152.373 376.26 150.996 374.883 149.297 374.883C147.598 374.883 146.221 376.26 146.221 377.959C146.221 379.658 147.598 381.035 149.297 381.035Z" fill="#DD2714"/>
<path d="M166.934 390.469C168.633 390.469 170.01 389.092 170.01 387.393C170.01 385.694 168.633 384.316 166.934 384.316C165.235 384.316 163.857 385.694 163.857 387.393C163.857 389.092 165.235 390.469 166.934 390.469Z" fill="#DD2714"/>
<path d="M166.934 399.697C168.633 399.697 170.01 398.32 170.01 396.621C170.01 394.922 168.633 393.545 166.934 393.545C165.235 393.545 163.857 394.922 163.857 396.621C163.857 398.32 165.235 399.697 166.934 399.697Z" fill="#DD2714"/>
<path d="M194.619 396.621C196.318 396.621 197.695 395.244 197.695 393.545C197.695 391.846 196.318 390.469 194.619 390.469C192.92 390.469 191.543 391.846 191.543 393.545C191.543 395.244 192.92 396.621 194.619 396.621Z" fill="#DD2714"/>
<path d="M211.846 402.773C213.545 402.773 214.922 401.396 214.922 399.697C214.922 397.998 213.545 396.621 211.846 396.621C210.147 396.621 208.77 397.998 208.77 399.697C208.77 401.396 210.147 402.773 211.846 402.773Z" fill="#DD2714"/>
<path d="M227.842 393.545C229.541 393.545 230.918 392.168 230.918 390.469C230.918 388.77 229.541 387.393 227.842 387.393C226.143 387.393 224.766 388.77 224.766 390.469C224.766 392.168 226.143 393.545 227.842 393.545Z" fill="#DD2714"/>
<path d="M184.775 399.697C186.474 399.697 187.852 398.32 187.852 396.621C187.852 394.922 186.474 393.545 184.775 393.545C183.076 393.545 181.699 394.922 181.699 396.621C181.699 398.32 183.076 399.697 184.775 399.697Z" fill="#DD2714"/>
<path d="M236.865 402.773C238.564 402.773 239.941 401.396 239.941 399.697C239.941 397.998 238.564 396.621 236.865 396.621C235.166 396.621 233.789 397.998 233.789 399.697C233.789 401.396 235.166 402.773 236.865 402.773Z" fill="#DD2714"/>
<path d="M261.68 386.367C263.379 386.367 264.756 384.99 264.756 383.291C264.756 381.592 263.379 380.215 261.68 380.215C259.981 380.215 258.604 381.592 258.604 383.291C258.604 384.99 259.981 386.367 261.68 386.367Z" fill="#DD2714"/>
<path d="M254.707 399.697C256.406 399.697 257.783 398.32 257.783 396.621C257.783 394.922 256.406 393.545 254.707 393.545C253.008 393.545 251.631 394.922 251.631 396.621C251.631 398.32 253.008 399.697 254.707 399.697Z" fill="#DD2714"/>
<path d="M270.088 393.545C271.787 393.545 273.164 392.168 273.164 390.469C273.164 388.77 271.787 387.393 270.088 387.393C268.389 387.393 267.012 388.77 267.012 390.469C267.012 392.168 268.389 393.545 270.088 393.545Z" fill="#DD2714"/>
<path d="M288.34 390.469C290.039 390.469 291.416 389.092 291.416 387.393C291.416 385.694 290.039 384.316 288.34 384.316C286.641 384.316 285.264 385.694 285.264 387.393C285.264 389.092 286.641 390.469 288.34 390.469Z" fill="#DD2714"/>
<path d="M289.16 377.959C290.859 377.959 292.236 376.582 292.236 374.883C292.236 373.184 290.859 371.807 289.16 371.807C287.461 371.807 286.084 373.184 286.084 374.883C286.084 376.582 287.461 377.959 289.16 377.959Z" fill="#DD2714"/>
<path d="M309.873 364.424C311.572 364.424 312.949 363.047 312.949 361.348C312.949 359.649 311.572 358.271 309.873 358.271C308.174 358.271 306.797 359.649 306.797 361.348C306.797 363.047 308.174 364.424 309.873 364.424Z" fill="#DD2714"/>
<path d="M327.715 370.576C329.414 370.576 330.791 369.199 330.791 367.5C330.791 365.801 329.414 364.424 327.715 364.424C326.016 364.424 324.639 365.801 324.639 367.5C324.639 369.199 326.016 370.576 327.715 370.576Z" fill="#DD2714"/>
<path d="M318.896 368.73C320.595 368.73 321.973 367.353 321.973 365.654C321.973 363.955 320.595 362.578 318.896 362.578C317.198 362.578 315.82 363.955 315.82 365.654C315.82 367.353 317.198 368.73 318.896 368.73Z" fill="#DD2714"/>
<path d="M335.713 358.271C337.412 358.271 338.789 356.894 338.789 355.195C338.789 353.496 337.412 352.119 335.713 352.119C334.014 352.119 332.637 353.496 332.637 355.195C332.637 356.894 334.014 358.271 335.713 358.271Z" fill="#DD2714"/>
<path d="M350.068 342.686C351.767 342.686 353.145 341.308 353.145 339.609C353.145 337.91 351.767 336.533 350.068 336.533C348.369 336.533 346.992 337.91 346.992 339.609C346.992 341.308 348.369 342.686 350.068 342.686Z" fill="#DD2714"/>
<path d="M351.914 323.613C353.613 323.613 354.99 322.236 354.99 320.537C354.99 318.838 353.613 317.461 351.914 317.461C350.215 317.461 348.838 318.838 348.838 320.537C348.838 322.236 350.215 323.613 351.914 323.613Z" fill="#DD2714"/>
<path d="M328.204 320.127C329.903 320.127 331.28 318.75 331.28 317.051C331.28 315.352 329.903 313.975 328.204 313.975C326.505 313.975 325.128 315.352 325.128 317.051C325.128 318.75 326.505 320.127 328.204 320.127Z" fill="#DD2714"/>
<path d="M305.851 342.275C307.55 342.275 308.927 340.898 308.927 339.199C308.927 337.5 307.55 336.123 305.851 336.123C304.152 336.123 302.774 337.5 302.774 339.199C302.774 340.898 304.152 342.275 305.851 342.275Z" fill="#DD2714"/>
<path d="M319.922 324.229C321.621 324.229 322.998 322.851 322.998 321.152C322.998 319.453 321.621 318.076 319.922 318.076C318.223 318.076 316.846 319.453 316.846 321.152C316.846 322.851 318.223 324.229 319.922 324.229Z" fill="#DD2714"/>
<path d="M316.925 333.047C318.624 333.047 320.001 331.67 320.001 329.971C320.001 328.272 318.624 326.895 316.925 326.895C315.226 326.895 313.849 328.272 313.849 329.971C313.849 331.67 315.226 333.047 316.925 333.047Z" fill="#DD2714"/>
<path d="M270.088 356.016C271.787 356.016 273.164 354.638 273.164 352.939C273.164 351.241 271.787 349.863 270.088 349.863C268.389 349.863 267.012 351.241 267.012 352.939C267.012 354.638 268.389 356.016 270.088 356.016Z" fill="#DD2714"/>
<path d="M279.19 364.219C280.889 364.219 282.267 362.842 282.267 361.143C282.267 359.444 280.889 358.066 279.19 358.066C277.492 358.066 276.114 359.444 276.114 361.143C276.114 362.842 277.492 364.219 279.19 364.219Z" fill="#DD2714"/>
<path d="M258.272 367.295C259.971 367.295 261.349 365.918 261.349 364.219C261.349 362.52 259.971 361.143 258.272 361.143C256.574 361.143 255.196 362.52 255.196 364.219C255.196 365.918 256.574 367.295 258.272 367.295Z" fill="#DD2714"/>
<path d="M179.734 365.987C181.388 365.601 182.417 363.947 182.032 362.293C181.646 360.638 179.992 359.609 178.338 359.995C176.683 360.38 175.654 362.034 176.04 363.689C176.425 365.344 178.079 366.372 179.734 365.987Z" fill="#DD2714"/>
<path d="M231.356 370.895C233.049 370.753 234.306 369.265 234.164 367.572C234.022 365.879 232.534 364.622 230.841 364.764C229.148 364.906 227.891 366.394 228.033 368.087C228.175 369.78 229.663 371.037 231.356 370.895Z" fill="#DD2714"/>
<path d="M198.25 373.674C199.943 373.532 201.2 372.044 201.058 370.351C200.916 368.658 199.428 367.401 197.735 367.543C196.042 367.685 194.785 369.173 194.927 370.866C195.069 372.559 196.557 373.816 198.25 373.674Z" fill="#DD2714"/>
<path d="M142.623 349.689C144.316 349.547 145.573 348.059 145.431 346.366C145.289 344.673 143.801 343.416 142.108 343.558C140.415 343.7 139.158 345.188 139.3 346.881C139.442 348.574 140.93 349.831 142.623 349.689Z" fill="#DD2714"/>
<path d="M147.234 359.229C148.927 359.086 150.184 357.599 150.042 355.906C149.9 354.213 148.412 352.956 146.719 353.098C145.026 353.24 143.769 354.728 143.911 356.42C144.053 358.113 145.541 359.371 147.234 359.229Z" fill="#DD2714"/>
<path d="M118.922 348.022C120.615 347.88 121.872 346.393 121.73 344.7C121.588 343.007 120.1 341.749 118.407 341.892C116.714 342.034 115.457 343.521 115.599 345.214C115.741 346.907 117.229 348.165 118.922 348.022Z" fill="#DD2714"/>
<path d="M109.112 337.019C110.736 336.52 111.648 334.799 111.149 333.175C110.65 331.551 108.929 330.639 107.305 331.138C105.681 331.637 104.769 333.358 105.268 334.982C105.767 336.606 107.488 337.518 109.112 337.019Z" fill="#DD2714"/>
<path d="M134.904 359.44C136.596 359.298 137.854 357.811 137.712 356.118C137.569 354.425 136.082 353.168 134.389 353.31C132.696 353.452 131.439 354.939 131.581 356.632C131.723 358.325 133.211 359.583 134.904 359.44Z" fill="#DD2714"/>
<path d="M130.774 347.027C132.467 346.885 133.725 345.398 133.582 343.705C133.44 342.012 131.953 340.755 130.26 340.897C128.567 341.039 127.31 342.526 127.452 344.219C127.594 345.912 129.081 347.17 130.774 347.027Z" fill="#DD2714"/>
<path d="M168.463 372.042C170.156 371.9 171.413 370.413 171.271 368.72C171.129 367.027 169.641 365.77 167.948 365.912C166.255 366.054 164.998 367.541 165.14 369.234C165.282 370.927 166.77 372.185 168.463 372.042Z" fill="#DD2714"/>
<path d="M155.597 360.79C157.29 360.648 158.547 359.161 158.405 357.468C158.263 355.775 156.775 354.517 155.082 354.66C153.389 354.802 152.132 356.289 152.274 357.982C152.416 359.675 153.904 360.932 155.597 360.79Z" fill="#DD2714"/>
<path d="M167.98 363.661C169.673 363.519 170.93 362.031 170.788 360.338C170.646 358.645 169.158 357.388 167.465 357.53C165.772 357.672 164.515 359.16 164.657 360.853C164.799 362.546 166.287 363.803 167.98 363.661Z" fill="#DD2714"/>
<path d="M186.344 371.586C188.037 371.444 189.294 369.956 189.152 368.264C189.01 366.571 187.522 365.313 185.829 365.455C184.136 365.598 182.879 367.085 183.021 368.778C183.163 370.471 184.651 371.728 186.344 371.586Z" fill="#DD2714"/>
<path d="M222.193 366.915C223.886 366.773 225.143 365.286 225.001 363.593C224.859 361.9 223.372 360.643 221.679 360.785C219.986 360.927 218.728 362.414 218.871 364.107C219.013 365.8 220.5 367.058 222.193 366.915Z" fill="#DD2714"/>
<path d="M214.447 375.401C216.14 375.259 217.397 373.771 217.255 372.078C217.113 370.385 215.625 369.128 213.932 369.27C212.239 369.413 210.982 370.9 211.124 372.593C211.266 374.286 212.754 375.543 214.447 375.401Z" fill="#DD2714"/>
<path d="M224.244 377.58C225.937 377.437 227.194 375.95 227.052 374.257C226.91 372.564 225.422 371.307 223.729 371.449C222.036 371.591 220.779 373.078 220.921 374.771C221.063 376.464 222.551 377.722 224.244 377.58Z" fill="#DD2714"/>
<path d="M247.296 369.557C248.989 369.415 250.246 367.927 250.104 366.234C249.962 364.541 248.474 363.284 246.781 363.426C245.088 363.568 243.831 365.056 243.973 366.749C244.115 368.442 245.603 369.699 247.296 369.557Z" fill="#DD2714"/>
<path d="M204.895 379.29C206.588 379.148 207.845 377.66 207.703 375.967C207.561 374.274 206.073 373.017 204.38 373.159C202.687 373.301 201.43 374.789 201.572 376.482C201.714 378.175 203.202 379.432 204.895 379.29Z" fill="#DD2714"/>
<path d="M238.796 365.987C240.451 365.601 241.48 363.947 241.094 362.293C240.709 360.638 239.055 359.609 237.4 359.995C235.746 360.38 234.717 362.034 235.102 363.689C235.488 365.344 237.142 366.372 238.796 365.987Z" fill="#DD2714"/>
<path d="M193.284 363.325C194.939 362.94 195.968 361.286 195.582 359.631C195.197 357.977 193.543 356.948 191.888 357.333C190.234 357.719 189.205 359.373 189.59 361.027C189.976 362.682 191.63 363.711 193.284 363.325Z" fill="#DD2714"/>
<path d="M248.991 359.433C250.646 359.047 251.675 357.393 251.289 355.739C250.904 354.084 249.25 353.055 247.595 353.441C245.941 353.826 244.912 355.48 245.297 357.135C245.683 358.789 247.337 359.818 248.991 359.433Z" fill="#DD2714"/>
<path d="M203.102 368.408C204.757 368.022 205.785 366.368 205.4 364.714C205.014 363.059 203.36 362.03 201.706 362.416C200.051 362.801 199.022 364.455 199.408 366.11C199.794 367.764 201.447 368.793 203.102 368.408Z" fill="#DD2714"/>
<path d="M282.068 352.862C283.722 352.476 284.751 350.822 284.366 349.168C283.98 347.513 282.326 346.484 280.672 346.87C279.017 347.255 277.988 348.909 278.374 350.564C278.759 352.219 280.413 353.247 282.068 352.862Z" fill="#DD2714"/>
<path d="M270.372 365.039C272.071 365.039 273.448 363.662 273.448 361.963C273.448 360.264 272.071 358.887 270.372 358.887C268.673 358.887 267.296 360.264 267.296 361.963C267.296 363.662 268.673 365.039 270.372 365.039Z" fill="#DD2714"/>
<path d="M291.085 351.504C292.784 351.504 294.161 350.127 294.161 348.428C294.161 346.729 292.784 345.352 291.085 345.352C289.386 345.352 288.009 346.729 288.009 348.428C288.009 350.127 289.386 351.504 291.085 351.504Z" fill="#DD2714"/>
<path d="M293.877 340.635C295.576 340.635 296.953 339.258 296.953 337.559C296.953 335.86 295.576 334.482 293.877 334.482C292.178 334.482 290.801 335.86 290.801 337.559C290.801 339.258 292.178 340.635 293.877 340.635Z" fill="#DD2714"/>
<path d="M300.029 348.018C301.728 348.018 303.105 346.64 303.105 344.941C303.105 343.242 301.728 341.865 300.029 341.865C298.33 341.865 296.953 343.242 296.953 344.941C296.953 346.64 298.33 348.018 300.029 348.018Z" fill="#DD2714"/>
<path d="M331.28 329.766C332.979 329.766 334.356 328.388 334.356 326.689C334.356 324.991 332.979 323.613 331.28 323.613C329.581 323.613 328.204 324.991 328.204 326.689C328.204 328.388 329.581 329.766 331.28 329.766Z" fill="#DD2714"/>
<path d="M165.035 301.482C166.432 302.448 168.348 302.097 169.314 300.699C170.28 299.302 169.929 297.386 168.532 296.42C167.134 295.454 165.218 295.805 164.252 297.202C163.287 298.6 163.637 300.516 165.035 301.482Z" fill="#DD2714"/>
<path d="M247.205 308.856C247.88 310.416 249.691 311.133 251.25 310.458C252.809 309.783 253.526 307.972 252.852 306.413C252.177 304.854 250.366 304.137 248.807 304.812C247.248 305.486 246.531 307.297 247.205 308.856Z" fill="#DD2714"/>
<path d="M237.23 313.173C237.905 314.732 239.716 315.449 241.275 314.775C242.834 314.1 243.551 312.289 242.876 310.73C242.202 309.17 240.391 308.453 238.832 309.128C237.272 309.803 236.555 311.614 237.23 313.173Z" fill="#DD2714"/>
<path d="M154.592 300C155.99 300.966 157.906 300.616 158.871 299.218C159.837 297.82 159.487 295.904 158.089 294.939C156.691 293.973 154.775 294.323 153.81 295.721C152.844 297.119 153.194 299.035 154.592 300Z" fill="#DD2714"/>
<path d="M262.632 315.588C263.307 317.148 265.118 317.865 266.677 317.19C268.236 316.515 268.953 314.704 268.278 313.145C267.604 311.586 265.793 310.869 264.233 311.544C262.674 312.218 261.957 314.029 262.632 315.588Z" fill="#DD2714"/>
<path d="M208.696 315.509C209.465 313.994 208.86 312.143 207.345 311.374C205.83 310.605 203.979 311.21 203.21 312.725C202.441 314.24 203.046 316.091 204.561 316.86C206.076 317.629 207.927 317.024 208.696 315.509Z" fill="#DD2714"/>
<path d="M179.578 307.63C180.347 306.115 179.742 304.264 178.227 303.495C176.712 302.726 174.861 303.331 174.092 304.846C173.323 306.361 173.928 308.212 175.443 308.981C176.958 309.75 178.809 309.145 179.578 307.63Z" fill="#DD2714"/>
<path d="M199.116 307.197C199.885 305.682 199.28 303.831 197.765 303.062C196.25 302.293 194.399 302.898 193.63 304.413C192.861 305.928 193.466 307.779 194.981 308.548C196.496 309.317 198.347 308.712 199.116 307.197Z" fill="#DD2714"/>
<path d="M250.118 317.652C250.792 319.211 252.603 319.928 254.162 319.253C255.722 318.579 256.439 316.768 255.764 315.209C255.089 313.649 253.278 312.932 251.719 313.607C250.16 314.282 249.443 316.093 250.118 317.652Z" fill="#DD2714"/>
<path d="M220.128 296.887C220.802 298.447 222.613 299.164 224.172 298.489C225.732 297.814 226.449 296.003 225.774 294.444C225.099 292.885 223.288 292.168 221.729 292.843C220.17 293.517 219.453 295.328 220.128 296.887Z" fill="#DD2714"/>
<path d="M217.169 305.542C217.844 307.101 219.654 307.818 221.214 307.143C222.773 306.469 223.49 304.658 222.815 303.098C222.14 301.539 220.33 300.822 218.77 301.497C217.211 302.172 216.494 303.983 217.169 305.542Z" fill="#DD2714"/>
<path d="M271.481 305.055C272.156 306.614 273.967 307.331 275.526 306.657C277.085 305.982 277.802 304.171 277.128 302.612C276.453 301.053 274.642 300.336 273.083 301.01C271.524 301.685 270.807 303.496 271.481 305.055Z" fill="#DD2714"/>
<path d="M197.683 316.819C198.452 315.304 197.847 313.452 196.332 312.684C194.817 311.915 192.965 312.519 192.196 314.034C191.428 315.549 192.032 317.401 193.547 318.17C195.062 318.939 196.914 318.334 197.683 316.819Z" fill="#DD2714"/>
<path d="M185.979 310.879C186.748 309.364 186.143 307.512 184.628 306.743C183.113 305.974 181.261 306.579 180.493 308.094C179.724 309.609 180.328 311.461 181.843 312.23C183.358 312.998 185.21 312.394 185.979 310.879Z" fill="#DD2714"/>
<path d="M169.915 313.075C170.684 311.56 170.079 309.709 168.564 308.94C167.049 308.171 165.198 308.776 164.429 310.291C163.66 311.806 164.265 313.657 165.78 314.426C167.295 315.195 169.146 314.59 169.915 313.075Z" fill="#DD2714"/>
<path d="M272.199 292.665C272.771 291.065 271.937 289.305 270.337 288.733C268.737 288.162 266.977 288.996 266.405 290.596C265.834 292.196 266.668 293.956 268.268 294.527C269.868 295.099 271.628 294.265 272.199 292.665Z" fill="#DD2714"/>
<path d="M283.787 287.657C284.358 286.057 283.524 284.296 281.924 283.725C280.324 283.154 278.564 283.988 277.993 285.588C277.422 287.188 278.256 288.948 279.856 289.519C281.455 290.091 283.216 289.257 283.787 287.657Z" fill="#DD2714"/>
<path d="M96.3452 313.49C97.9693 312.991 98.8814 311.27 98.3825 309.646C97.8837 308.022 96.1627 307.11 94.5387 307.609C92.9147 308.108 92.0025 309.829 92.5014 311.453C93.0003 313.077 94.7212 313.989 96.3452 313.49Z" fill="#DD2714"/>
<path d="M180.264 266.191C181.963 266.191 183.34 264.814 183.34 263.115C183.34 261.416 181.963 260.039 180.264 260.039C178.565 260.039 177.188 261.416 177.188 263.115C177.188 264.814 178.565 266.191 180.264 266.191Z" fill="#DD2714"/>
<path d="M186.416 275.42C188.115 275.42 189.492 274.043 189.492 272.344C189.492 270.645 188.115 269.268 186.416 269.268C184.717 269.268 183.34 270.645 183.34 272.344C183.34 274.043 184.717 275.42 186.416 275.42Z" fill="#DD2714"/>
<path d="M188.467 266.191C190.166 266.191 191.543 264.814 191.543 263.115C191.543 261.416 190.166 260.039 188.467 260.039C186.768 260.039 185.391 261.416 185.391 263.115C185.391 264.814 186.768 266.191 188.467 266.191Z" fill="#DD2714"/>
<path d="M199.541 278.496C201.24 278.496 202.617 277.119 202.617 275.42C202.617 273.721 201.24 272.344 199.541 272.344C197.842 272.344 196.465 273.721 196.465 275.42C196.465 277.119 197.842 278.496 199.541 278.496Z" fill="#DD2714"/>
<path d="M196.465 270.908C198.164 270.908 199.541 269.531 199.541 267.832C199.541 266.133 198.164 264.756 196.465 264.756C194.766 264.756 193.389 266.133 193.389 267.832C193.389 269.531 194.766 270.908 196.465 270.908Z" fill="#DD2714"/>
<path d="M206.512 285.206C207.187 286.765 208.997 287.482 210.557 286.807C212.116 286.133 212.833 284.322 212.158 282.762C211.483 281.203 209.673 280.486 208.113 281.161C206.554 281.836 205.837 283.647 206.512 285.206Z" fill="#DD2714"/>
<path d="M251.426 256.963C253.125 256.963 254.502 255.586 254.502 253.887C254.502 252.188 253.125 250.811 251.426 250.811C249.727 250.811 248.35 252.188 248.35 253.887C248.35 255.586 249.727 256.963 251.426 256.963Z" fill="#005CC5"/>
<path d="M261.68 239.941C263.379 239.941 264.756 238.564 264.756 236.865C264.756 235.166 263.379 233.789 261.68 233.789C259.981 233.789 258.604 235.166 258.604 236.865C258.604 238.564 259.981 239.941 261.68 239.941Z" fill="#005CC5"/>
<path d="M261.68 250.811C263.379 250.811 264.756 249.433 264.756 247.734C264.756 246.035 263.379 244.658 261.68 244.658C259.981 244.658 258.604 246.035 258.604 247.734C258.604 249.433 259.981 250.811 261.68 250.811Z" fill="#005CC5"/>
<path d="M273.984 228.457C275.683 228.457 277.061 227.08 277.061 225.381C277.061 223.682 275.683 222.305 273.984 222.305C272.285 222.305 270.908 223.682 270.908 225.381C270.908 227.08 272.285 228.457 273.984 228.457Z" fill="#005CC5"/>
<path d="M270.908 205.693C272.607 205.693 273.984 204.316 273.984 202.617C273.984 200.918 272.607 199.541 270.908 199.541C269.209 199.541 267.832 200.918 267.832 202.617C267.832 204.316 269.209 205.693 270.908 205.693Z" fill="#005CC5"/>
<path d="M208.77 148.271C210.468 148.271 211.846 146.894 211.846 145.195C211.846 143.496 210.468 142.119 208.77 142.119C207.071 142.119 205.693 143.496 205.693 145.195C205.693 146.894 207.071 148.271 208.77 148.271Z" fill="#005CC5"/>
<path d="M224.355 154.424C226.054 154.424 227.432 153.047 227.432 151.348C227.432 149.649 226.054 148.271 224.355 148.271C222.657 148.271 221.279 149.649 221.279 151.348C221.279 153.047 222.657 154.424 224.355 154.424Z" fill="#005CC5"/>
<path d="M264.756 176.162C266.455 176.162 267.832 174.785 267.832 173.086C267.832 171.387 266.455 170.01 264.756 170.01C263.057 170.01 261.68 171.387 261.68 173.086C261.68 174.785 263.057 176.162 264.756 176.162Z" fill="#005CC5"/>
<path d="M273.984 193.389C275.683 193.389 277.061 192.011 277.061 190.312C277.061 188.614 275.683 187.236 273.984 187.236C272.285 187.236 270.908 188.614 270.908 190.312C270.908 192.011 272.285 193.389 273.984 193.389Z" fill="#005CC5"/>
<path d="M270.908 240.762C272.607 240.762 273.984 239.384 273.984 237.686C273.984 235.987 272.607 234.609 270.908 234.609C269.209 234.609 267.832 235.987 267.832 237.686C267.832 239.384 269.209 240.762 270.908 240.762Z" fill="#005CC5"/>
<path d="M267.832 216.152C269.531 216.152 270.908 214.775 270.908 213.076C270.908 211.377 269.531 210 267.832 210C266.133 210 264.756 211.377 264.756 213.076C264.756 214.775 266.133 216.152 267.832 216.152Z" fill="#005CC5"/>
<path d="M264.756 196.465C266.455 196.465 267.832 195.088 267.832 193.389C267.832 191.69 266.455 190.312 264.756 190.312C263.057 190.312 261.68 191.69 261.68 193.389C261.68 195.088 263.057 196.465 264.756 196.465Z" fill="#005CC5"/>
<path d="M264.756 183.34C266.455 183.34 267.832 181.963 267.832 180.264C267.832 178.565 266.455 177.188 264.756 177.188C263.057 177.188 261.68 178.565 261.68 180.264C261.68 181.963 263.057 183.34 264.756 183.34Z" fill="#005CC5"/>
<path d="M255.527 170.01C257.226 170.01 258.604 168.633 258.604 166.934C258.604 165.235 257.226 163.857 255.527 163.857C253.828 163.857 252.451 165.235 252.451 166.934C252.451 168.633 253.828 170.01 255.527 170.01Z" fill="#005CC5"/>
<path d="M246.709 157.5C248.408 157.5 249.785 156.123 249.785 154.424C249.785 152.725 248.408 151.348 246.709 151.348C245.01 151.348 243.633 152.725 243.633 154.424C243.633 156.123 245.01 157.5 246.709 157.5Z" fill="#005CC5"/>
<path d="M233.789 160.576C235.488 160.576 236.865 159.199 236.865 157.5C236.865 155.801 235.488 154.424 233.789 154.424C232.09 154.424 230.713 155.801 230.713 157.5C230.713 159.199 232.09 160.576 233.789 160.576Z" fill="#005CC5"/>
<path d="M217.998 148.271C219.697 148.271 221.074 146.894 221.074 145.195C221.074 143.496 219.697 142.119 217.998 142.119C216.299 142.119 214.922 143.496 214.922 145.195C214.922 146.894 216.299 148.271 217.998 148.271Z" fill="#005CC5"/>
<path d="M208.77 32.8125C210.468 32.8125 211.846 31.4353 211.846 29.7363C211.846 28.0374 210.468 26.6602 208.77 26.6602C207.071 26.6602 205.693 28.0374 205.693 29.7363C205.693 31.4353 207.071 32.8125 208.77 32.8125Z" fill="#005CC5"/>
<path d="M245.273 32.8125C246.972 32.8125 248.35 31.4353 248.35 29.7363C248.35 28.0374 246.972 26.6602 245.273 26.6602C243.575 26.6602 242.197 28.0374 242.197 29.7363C242.197 31.4353 243.575 32.8125 245.273 32.8125Z" fill="#005CC5"/>
<path d="M227.432 26.6602C229.131 26.6602 230.508 25.2829 230.508 23.584C230.508 21.8851 229.131 20.5078 227.432 20.5078C225.733 20.5078 224.355 21.8851 224.355 23.584C224.355 25.2829 225.733 26.6602 227.432 26.6602Z" fill="#005CC5"/>
<path d="M240.557 20.5078C242.256 20.5078 243.633 19.1306 243.633 17.4316C243.633 15.7327 242.256 14.3555 240.557 14.3555C238.858 14.3555 237.48 15.7327 237.48 17.4316C237.48 19.1306 238.858 20.5078 240.557 20.5078Z" fill="#005CC5"/>
<path d="M210 23.584C211.699 23.584 213.076 22.2067 213.076 20.5078C213.076 18.8089 211.699 17.4316 210 17.4316C208.301 17.4316 206.924 18.8089 206.924 20.5078C206.924 22.2067 208.301 23.584 210 23.584Z" fill="#005CC5"/>
<path d="M261.68 42.2461C263.379 42.2461 264.756 40.8688 264.756 39.1699C264.756 37.471 263.379 36.0938 261.68 36.0938C259.981 36.0938 258.604 37.471 258.604 39.1699C258.604 40.8688 259.981 42.2461 261.68 42.2461Z" fill="#005CC5"/>
<path d="M277.061 35.8887C278.759 35.8887 280.137 34.5114 280.137 32.8125C280.137 31.1136 278.759 29.7363 277.061 29.7363C275.362 29.7363 273.984 31.1136 273.984 32.8125C273.984 34.5114 275.362 35.8887 277.061 35.8887Z" fill="#005CC5"/>
<path d="M277.061 48.3984C278.759 48.3984 280.137 47.0212 280.137 45.3223C280.137 43.6233 278.759 42.2461 277.061 42.2461C275.362 42.2461 273.984 43.6233 273.984 45.3223C273.984 47.0212 275.362 48.3984 277.061 48.3984Z" fill="#005CC5"/>
<path d="M261.27 32.8125C262.968 32.8125 264.346 31.4353 264.346 29.7363C264.346 28.0374 262.968 26.6602 261.27 26.6602C259.571 26.6602 258.193 28.0374 258.193 29.7363C258.193 31.4353 259.571 32.8125 261.27 32.8125Z" fill="#005CC5"/>
<path d="M302.08 48.3984C303.779 48.3984 305.156 47.0212 305.156 45.3223C305.156 43.6233 303.779 42.2461 302.08 42.2461C300.381 42.2461 299.004 43.6233 299.004 45.3223C299.004 47.0212 300.381 48.3984 302.08 48.3984Z" fill="#005CC5"/>
<path d="M289.57 45.3223C291.269 45.3223 292.646 43.945 292.646 42.2461C292.646 40.5472 291.269 39.1699 289.57 39.1699C287.871 39.1699 286.494 40.5472 286.494 42.2461C286.494 43.945 287.871 45.3223 289.57 45.3223Z" fill="#005CC5"/>
<path d="M300.439 57.627C302.138 57.627 303.516 56.2497 303.516 54.5508C303.516 52.8519 302.138 51.4746 300.439 51.4746C298.741 51.4746 297.363 52.8519 297.363 54.5508C297.363 56.2497 298.741 57.627 300.439 57.627Z" fill="#005CC5"/>
<path d="M324.023 60.7031C325.722 60.7031 327.1 59.3259 327.1 57.627C327.1 55.928 325.722 54.5508 324.023 54.5508C322.325 54.5508 320.947 55.928 320.947 57.627C320.947 59.3259 322.325 60.7031 324.023 60.7031Z" fill="#005CC5"/>
<path d="M310.078 60.7031C311.777 60.7031 313.154 59.3259 313.154 57.627C313.154 55.928 311.777 54.5508 310.078 54.5508C308.379 54.5508 307.002 55.928 307.002 57.627C307.002 59.3259 308.379 60.7031 310.078 60.7031Z" fill="#005CC5"/>
<path d="M346.172 87.3633C347.871 87.3633 349.248 85.986 349.248 84.2871C349.248 82.5882 347.871 81.2109 346.172 81.2109C344.473 81.2109 343.096 82.5882 343.096 84.2871C343.096 85.986 344.473 87.3633 346.172 87.3633Z" fill="#005CC5"/>
<path d="M330.176 75.0586C331.875 75.0586 333.252 73.6813 333.252 71.9824C333.252 70.2835 331.875 68.9062 330.176 68.9062C328.477 68.9062 327.1 70.2835 327.1 71.9824C327.1 73.6813 328.477 75.0586 330.176 75.0586Z" fill="#005CC5"/>
<path d="M341.455 78.1348C343.154 78.1348 344.531 76.7575 344.531 75.0586C344.531 73.3597 343.154 71.9824 341.455 71.9824C339.756 71.9824 338.379 73.3597 338.379 75.0586C338.379 76.7575 339.756 78.1348 341.455 78.1348Z" fill="#005CC5"/>
<path d="M349.248 100.898C350.947 100.898 352.324 99.5212 352.324 97.8223C352.324 96.1233 350.947 94.7461 349.248 94.7461C347.549 94.7461 346.172 96.1233 346.172 97.8223C346.172 99.5212 347.549 100.898 349.248 100.898Z" fill="#005CC5"/>
<path d="M361.143 103.975C362.842 103.975 364.219 102.597 364.219 100.898C364.219 99.1995 362.842 97.8223 361.143 97.8223C359.444 97.8223 358.066 99.1995 358.066 100.898C358.066 102.597 359.444 103.975 361.143 103.975Z" fill="#005CC5"/>
<path d="M364.219 116.074C365.918 116.074 367.295 114.697 367.295 112.998C367.295 111.299 365.918 109.922 364.219 109.922C362.52 109.922 361.143 111.299 361.143 112.998C361.143 114.697 362.52 116.074 364.219 116.074Z" fill="#005CC5"/>
<path d="M374.678 128.994C376.377 128.994 377.754 127.617 377.754 125.918C377.754 124.219 376.377 122.842 374.678 122.842C372.979 122.842 371.602 124.219 371.602 125.918C371.602 127.617 372.979 128.994 374.678 128.994Z" fill="#005CC5"/>
<path d="M383.906 166.934C385.605 166.934 386.982 165.556 386.982 163.857C386.982 162.158 385.605 160.781 383.906 160.781C382.207 160.781 380.83 162.158 380.83 163.857C380.83 165.556 382.207 166.934 383.906 166.934Z" fill="#005CC5"/>
<path d="M380.83 142.119C382.529 142.119 383.906 140.742 383.906 139.043C383.906 137.344 382.529 135.967 380.83 135.967C379.131 135.967 377.754 137.344 377.754 139.043C377.754 140.742 379.131 142.119 380.83 142.119Z" fill="#005CC5"/>
<path d="M396.621 193.389C398.32 193.389 399.697 192.011 399.697 190.312C399.697 188.614 398.32 187.236 396.621 187.236C394.922 187.236 393.545 188.614 393.545 190.312C393.545 192.011 394.922 193.389 396.621 193.389Z" fill="#005CC5"/>
<path d="M390.469 181.084C392.168 181.084 393.545 179.707 393.545 178.008C393.545 176.309 392.168 174.932 390.469 174.932C388.77 174.932 387.393 176.309 387.393 178.008C387.393 179.707 388.77 181.084 390.469 181.084Z" fill="#005CC5"/>
<path d="M390.469 207.744C392.168 207.744 393.545 206.367 393.545 204.668C393.545 202.969 392.168 201.592 390.469 201.592C388.77 201.592 387.393 202.969 387.393 204.668C387.393 206.367 388.77 207.744 390.469 207.744Z" fill="#005CC5"/>
<path d="M393.545 222.305C395.244 222.305 396.621 220.927 396.621 219.229C396.621 217.53 395.244 216.152 393.545 216.152C391.846 216.152 390.469 217.53 390.469 219.229C390.469 220.927 391.846 222.305 393.545 222.305Z" fill="#005CC5"/>
<path d="M390.469 256.963C392.168 256.963 393.545 255.586 393.545 253.887C393.545 252.188 392.168 250.811 390.469 250.811C388.77 250.811 387.393 252.188 387.393 253.887C387.393 255.586 388.77 256.963 390.469 256.963Z" fill="#005CC5"/>
<path d="M390.469 239.736C392.168 239.736 393.545 238.359 393.545 236.66C393.545 234.961 392.168 233.584 390.469 233.584C388.77 233.584 387.393 234.961 387.393 236.66C387.393 238.359 388.77 239.736 390.469 239.736Z" fill="#005CC5"/>
<path d="M377.754 293.877C379.453 293.877 380.83 292.5 380.83 290.801C380.83 289.102 379.453 287.725 377.754 287.725C376.055 287.725 374.678 289.102 374.678 290.801C374.678 292.5 376.055 293.877 377.754 293.877Z" fill="#005CC5"/>
<path d="M380.83 277.061C382.529 277.061 383.906 275.683 383.906 273.984C383.906 272.285 382.529 270.908 380.83 270.908C379.131 270.908 377.754 272.285 377.754 273.984C377.754 275.683 379.131 277.061 380.83 277.061Z" fill="#005CC5"/>
<path d="M367.295 300.645C368.994 300.645 370.371 299.267 370.371 297.568C370.371 295.869 368.994 294.492 367.295 294.492C365.596 294.492 364.219 295.869 364.219 297.568C364.219 299.267 365.596 300.645 367.295 300.645Z" fill="#005CC5"/>
<path d="M374.678 312.334C376.377 312.334 377.754 310.957 377.754 309.258C377.754 307.559 376.377 306.182 374.678 306.182C372.979 306.182 371.602 307.559 371.602 309.258C371.602 310.957 372.979 312.334 374.678 312.334Z" fill="#005CC5"/>
<path d="M384.316 287.725C386.015 287.725 387.393 286.347 387.393 284.648C387.393 282.95 386.015 281.572 384.316 281.572C382.617 281.572 381.24 282.95 381.24 284.648C381.24 286.347 382.617 287.725 384.316 287.725Z" fill="#005CC5"/>
<path d="M383.906 266.396C385.605 266.396 386.982 265.019 386.982 263.32C386.982 261.621 385.605 260.244 383.906 260.244C382.207 260.244 380.83 261.621 380.83 263.32C380.83 265.019 382.207 266.396 383.906 266.396Z" fill="#005CC5"/>
<path d="M390.469 270.908C392.168 270.908 393.545 269.531 393.545 267.832C393.545 266.133 392.168 264.756 390.469 264.756C388.77 264.756 387.393 266.133 387.393 267.832C387.393 269.531 388.77 270.908 390.469 270.908Z" fill="#005CC5"/>
<path d="M398.057 247.734C399.756 247.734 401.133 246.357 401.133 244.658C401.133 242.959 399.756 241.582 398.057 241.582C396.358 241.582 394.98 242.959 394.98 244.658C394.98 246.357 396.358 247.734 398.057 247.734Z" fill="#005CC5"/>
<path d="M401.133 231.533C402.832 231.533 404.209 230.156 404.209 228.457C404.209 226.758 402.832 225.381 401.133 225.381C399.434 225.381 398.057 226.758 398.057 228.457C398.057 230.156 399.434 231.533 401.133 231.533Z" fill="#005CC5"/>
<path d="M406.055 210.82C407.754 210.82 409.131 209.443 409.131 207.744C409.131 206.045 407.754 204.668 406.055 204.668C404.356 204.668 402.979 206.045 402.979 207.744C402.979 209.443 404.356 210.82 406.055 210.82Z" fill="#005CC5"/>
<path d="M386.982 196.465C388.681 196.465 390.059 195.088 390.059 193.389C390.059 191.69 388.681 190.312 386.982 190.312C385.283 190.312 383.906 191.69 383.906 193.389C383.906 195.088 385.283 196.465 386.982 196.465Z" fill="#005CC5"/>
<path d="M394.98 166.523C396.679 166.523 398.057 165.146 398.057 163.447C398.057 161.748 396.679 160.371 394.98 160.371C393.282 160.371 391.904 161.748 391.904 163.447C391.904 165.146 393.282 166.523 394.98 166.523Z" fill="#005CC5"/>
<path d="M390.469 152.578C392.168 152.578 393.545 151.201 393.545 149.502C393.545 147.803 392.168 146.426 390.469 146.426C388.77 146.426 387.393 147.803 387.393 149.502C387.393 151.201 388.77 152.578 390.469 152.578Z" fill="#005CC5"/>
<path d="M378.164 152.373C379.863 152.373 381.24 150.996 381.24 149.297C381.24 147.598 379.863 146.221 378.164 146.221C376.465 146.221 375.088 147.598 375.088 149.297C375.088 150.996 376.465 152.373 378.164 152.373Z" fill="#005CC5"/>
<path d="M373.447 119.15C375.146 119.15 376.523 117.773 376.523 116.074C376.523 114.375 375.146 112.998 373.447 112.998C371.748 112.998 370.371 114.375 370.371 116.074C370.371 117.773 371.748 119.15 373.447 119.15Z" fill="#005CC5"/>
<path d="M320.947 68.9062C322.646 68.9062 324.023 67.529 324.023 65.8301C324.023 64.1312 322.646 62.7539 320.947 62.7539C319.248 62.7539 317.871 64.1312 317.871 65.8301C317.871 67.529 319.248 68.9062 320.947 68.9062Z" fill="#005CC5"/>
<path d="M333.252 68.9062C334.951 68.9062 336.328 67.529 336.328 65.8301C336.328 64.1312 334.951 62.7539 333.252 62.7539C331.553 62.7539 330.176 64.1312 330.176 65.8301C330.176 67.529 331.553 68.9062 333.252 68.9062Z" fill="#005CC5"/>
<path d="M214.512 56.1914C216.211 56.1914 217.588 54.8142 217.588 53.1152C217.588 51.4163 216.211 50.0391 214.512 50.0391C212.813 50.0391 211.436 51.4163 211.436 53.1152C211.436 54.8142 212.813 56.1914 214.512 56.1914Z" fill="#005CC5"/>
<path d="M246.094 59.4727C247.793 59.4727 249.17 58.0954 249.17 56.3965C249.17 54.6976 247.793 53.3203 246.094 53.3203C244.395 53.3203 243.018 54.6976 243.018 56.3965C243.018 58.0954 244.395 59.4727 246.094 59.4727Z" fill="#005CC5"/>
<path d="M233.174 50.0391C234.873 50.0391 236.25 48.6618 236.25 46.9629C236.25 45.264 234.873 43.8867 233.174 43.8867C231.475 43.8867 230.098 45.264 230.098 46.9629C230.098 48.6618 231.475 50.0391 233.174 50.0391Z" fill="#005CC5"/>
<path d="M243.633 51.4746C245.332 51.4746 246.709 50.0974 246.709 48.3984C246.709 46.6995 245.332 45.3223 243.633 45.3223C241.934 45.3223 240.557 46.6995 240.557 48.3984C240.557 50.0974 241.934 51.4746 243.633 51.4746Z" fill="#005CC5"/>
<path d="M215.742 46.9629C217.441 46.9629 218.818 45.5856 218.818 43.8867C218.818 42.1878 217.441 40.8105 215.742 40.8105C214.043 40.8105 212.666 42.1878 212.666 43.8867C212.666 45.5856 214.043 46.9629 215.742 46.9629Z" fill="#005CC5"/>
<path d="M270.088 68.0859C271.787 68.0859 273.164 66.7087 273.164 65.0098C273.164 63.3108 271.787 61.9336 270.088 61.9336C268.389 61.9336 267.012 63.3108 267.012 65.0098C267.012 66.7087 268.389 68.0859 270.088 68.0859Z" fill="#005CC5"/>
<path d="M277.881 62.5488C279.58 62.5488 280.957 61.1716 280.957 59.4727C280.957 57.7737 279.58 56.3965 277.881 56.3965C276.182 56.3965 274.805 57.7737 274.805 59.4727C274.805 61.1716 276.182 62.5488 277.881 62.5488Z" fill="#005CC5"/>
<path d="M277.881 75.0586C279.58 75.0586 280.957 73.6813 280.957 71.9824C280.957 70.2835 279.58 68.9062 277.881 68.9062C276.182 68.9062 274.805 70.2835 274.805 71.9824C274.805 73.6813 276.182 75.0586 277.881 75.0586Z" fill="#005CC5"/>
<path d="M262.09 59.4727C263.789 59.4727 265.166 58.0954 265.166 56.3965C265.166 54.6976 263.789 53.3203 262.09 53.3203C260.391 53.3203 259.014 54.6976 259.014 56.3965C259.014 58.0954 260.391 59.4727 262.09 59.4727Z" fill="#005CC5"/>
<path d="M302.9 75.0586C304.599 75.0586 305.977 73.6813 305.977 71.9824C305.977 70.2835 304.599 68.9062 302.9 68.9062C301.201 68.9062 299.824 70.2835 299.824 71.9824C299.824 73.6813 301.201 75.0586 302.9 75.0586Z" fill="#005CC5"/>
<path d="M290.391 71.9824C292.09 71.9824 293.467 70.6052 293.467 68.9062C293.467 67.2073 292.09 65.8301 290.391 65.8301C288.692 65.8301 287.314 67.2073 287.314 68.9062C287.314 70.6052 288.692 71.9824 290.391 71.9824Z" fill="#005CC5"/>
<path d="M301.26 84.2871C302.959 84.2871 304.336 82.9099 304.336 81.2109C304.336 79.512 302.959 78.1348 301.26 78.1348C299.561 78.1348 298.184 79.512 298.184 81.2109C298.184 82.9099 299.561 84.2871 301.26 84.2871Z" fill="#005CC5"/>
<path d="M324.844 87.3633C326.543 87.3633 327.92 85.986 327.92 84.2871C327.92 82.5882 326.543 81.2109 324.844 81.2109C323.145 81.2109 321.768 82.5882 321.768 84.2871C321.768 85.986 323.145 87.3633 324.844 87.3633Z" fill="#005CC5"/>
<path d="M310.898 87.3633C312.597 87.3633 313.975 85.986 313.975 84.2871C313.975 82.5882 312.597 81.2109 310.898 81.2109C309.2 81.2109 307.822 82.5882 307.822 84.2871C307.822 85.986 309.2 87.3633 310.898 87.3633Z" fill="#005CC5"/>
<path d="M336.738 120.176C338.437 120.176 339.814 118.799 339.814 117.1C339.814 115.401 338.437 114.023 336.738 114.023C335.039 114.023 333.662 115.401 333.662 117.1C333.662 118.799 335.039 120.176 336.738 120.176Z" fill="#005CC5"/>
<path d="M330.996 101.719C332.695 101.719 334.072 100.342 334.072 98.6426C334.072 96.9437 332.695 95.5664 330.996 95.5664C329.297 95.5664 327.92 96.9437 327.92 98.6426C327.92 100.342 329.297 101.719 330.996 101.719Z" fill="#005CC5"/>
<path d="M332.021 110.947C333.72 110.947 335.098 109.57 335.098 107.871C335.098 106.172 333.72 104.795 332.021 104.795C330.323 104.795 328.945 106.172 328.945 107.871C328.945 109.57 330.323 110.947 332.021 110.947Z" fill="#005CC5"/>
<path d="M338.994 107.051C340.693 107.051 342.07 105.674 342.07 103.975C342.07 102.276 340.693 100.898 338.994 100.898C337.295 100.898 335.918 102.276 335.918 103.975C335.918 105.674 337.295 107.051 338.994 107.051Z" fill="#005CC5"/>
<path d="M344.736 118.33C346.435 118.33 347.812 116.953 347.812 115.254C347.812 113.555 346.435 112.178 344.736 112.178C343.037 112.178 341.66 113.555 341.66 115.254C341.66 116.953 343.037 118.33 344.736 118.33Z" fill="#005CC5"/>
<path d="M347.812 130.43C349.511 130.43 350.889 129.052 350.889 127.354C350.889 125.655 349.511 124.277 347.812 124.277C346.114 124.277 344.736 125.655 344.736 127.354C344.736 129.052 346.114 130.43 347.812 130.43Z" fill="#005CC5"/>
<path d="M358.271 143.35C359.97 143.35 361.348 141.972 361.348 140.273C361.348 138.575 359.97 137.197 358.271 137.197C356.573 137.197 355.195 138.575 355.195 140.273C355.195 141.972 356.573 143.35 358.271 143.35Z" fill="#005CC5"/>
<path d="M353.555 125.098C355.254 125.098 356.631 123.72 356.631 122.021C356.631 120.323 355.254 118.945 353.555 118.945C351.856 118.945 350.479 120.323 350.479 122.021C350.479 123.72 351.856 125.098 353.555 125.098Z" fill="#005CC5"/>
<path d="M365.859 153.809C367.558 153.809 368.936 152.431 368.936 150.732C368.936 149.033 367.558 147.656 365.859 147.656C364.16 147.656 362.783 149.033 362.783 150.732C362.783 152.431 364.16 153.809 365.859 153.809Z" fill="#005CC5"/>
<path d="M375.498 184.57C377.197 184.57 378.574 183.193 378.574 181.494C378.574 179.795 377.197 178.418 375.498 178.418C373.799 178.418 372.422 179.795 372.422 181.494C372.422 183.193 373.799 184.57 375.498 184.57Z" fill="#005CC5"/>
<path d="M369.346 172.266C371.045 172.266 372.422 170.888 372.422 169.189C372.422 167.491 371.045 166.113 369.346 166.113C367.647 166.113 366.27 167.491 366.27 169.189C366.27 170.888 367.647 172.266 369.346 172.266Z" fill="#005CC5"/>
<path d="M369.346 198.926C371.045 198.926 372.422 197.549 372.422 195.85C372.422 194.151 371.045 192.773 369.346 192.773C367.647 192.773 366.27 194.151 366.27 195.85C366.27 197.549 367.647 198.926 369.346 198.926Z" fill="#005CC5"/>
<path d="M372.422 213.486C374.121 213.486 375.498 212.109 375.498 210.41C375.498 208.711 374.121 207.334 372.422 207.334C370.723 207.334 369.346 208.711 369.346 210.41C369.346 212.109 370.723 213.486 372.422 213.486Z" fill="#005CC5"/>
<path d="M369.346 248.145C371.045 248.145 372.422 246.767 372.422 245.068C372.422 243.369 371.045 241.992 369.346 241.992C367.647 241.992 366.27 243.369 366.27 245.068C366.27 246.767 367.647 248.145 369.346 248.145Z" fill="#005CC5"/>
<path d="M369.346 230.918C371.045 230.918 372.422 229.541 372.422 227.842C372.422 226.143 371.045 224.766 369.346 224.766C367.647 224.766 366.27 226.143 366.27 227.842C366.27 229.541 367.647 230.918 369.346 230.918Z" fill="#005CC5"/>
<path d="M356.631 285.059C358.33 285.059 359.707 283.681 359.707 281.982C359.707 280.283 358.33 278.906 356.631 278.906C354.932 278.906 353.555 280.283 353.555 281.982C353.555 283.681 354.932 285.059 356.631 285.059Z" fill="#005CC5"/>
<path d="M359.707 268.242C361.406 268.242 362.783 266.865 362.783 265.166C362.783 263.467 361.406 262.09 359.707 262.09C358.008 262.09 356.631 263.467 356.631 265.166C356.631 266.865 358.008 268.242 359.707 268.242Z" fill="#005CC5"/>
<path d="M342.354 305.566C344.053 305.566 345.431 304.189 345.431 302.49C345.431 300.791 344.053 299.414 342.354 299.414C340.656 299.414 339.278 300.791 339.278 302.49C339.278 304.189 340.656 305.566 342.354 305.566Z" fill="#005CC5"/>
<path d="M346.172 291.826C347.871 291.826 349.248 290.449 349.248 288.75C349.248 287.051 347.871 285.674 346.172 285.674C344.473 285.674 343.096 287.051 343.096 288.75C343.096 290.449 344.473 291.826 346.172 291.826Z" fill="#005CC5"/>
<path d="M352.324 278.906C354.023 278.906 355.4 277.529 355.4 275.83C355.4 274.131 354.023 272.754 352.324 272.754C350.625 272.754 349.248 274.131 349.248 275.83C349.248 277.529 350.625 278.906 352.324 278.906Z" fill="#005CC5"/>
<path d="M353.555 294.902C355.254 294.902 356.631 293.525 356.631 291.826C356.631 290.127 355.254 288.75 353.555 288.75C351.856 288.75 350.479 290.127 350.479 291.826C350.479 293.525 351.856 294.902 353.555 294.902Z" fill="#005CC5"/>
<path d="M333.126 310.693C334.825 310.693 336.202 309.316 336.202 307.617C336.202 305.918 334.825 304.541 333.126 304.541C331.427 304.541 330.05 305.918 330.05 307.617C330.05 309.316 331.427 310.693 333.126 310.693Z" fill="#005CC5"/>
<path d="M348.428 302.49C350.127 302.49 351.504 301.113 351.504 299.414C351.504 297.715 350.127 296.338 348.428 296.338C346.729 296.338 345.352 297.715 345.352 299.414C345.352 301.113 346.729 302.49 348.428 302.49Z" fill="#005CC5"/>
<path d="M363.193 278.906C364.892 278.906 366.27 277.529 366.27 275.83C366.27 274.131 364.892 272.754 363.193 272.754C361.494 272.754 360.117 274.131 360.117 275.83C360.117 277.529 361.494 278.906 363.193 278.906Z" fill="#005CC5"/>
<path d="M362.783 257.578C364.482 257.578 365.859 256.201 365.859 254.502C365.859 252.803 364.482 251.426 362.783 251.426C361.084 251.426 359.707 252.803 359.707 254.502C359.707 256.201 361.084 257.578 362.783 257.578Z" fill="#005CC5"/>
<path d="M369.346 262.09C371.045 262.09 372.422 260.713 372.422 259.014C372.422 257.315 371.045 255.938 369.346 255.938C367.647 255.938 366.27 257.315 366.27 259.014C366.27 260.713 367.647 262.09 369.346 262.09Z" fill="#005CC5"/>
<path d="M376.934 238.916C378.633 238.916 380.01 237.539 380.01 235.84C380.01 234.141 378.633 232.764 376.934 232.764C375.235 232.764 373.857 234.141 373.857 235.84C373.857 237.539 375.235 238.916 376.934 238.916Z" fill="#005CC5"/>
<path d="M380.01 222.715C381.709 222.715 383.086 221.338 383.086 219.639C383.086 217.94 381.709 216.562 380.01 216.562C378.311 216.562 376.934 217.94 376.934 219.639C376.934 221.338 378.311 222.715 380.01 222.715Z" fill="#005CC5"/>
<path d="M376.729 197.9C378.427 197.9 379.805 196.523 379.805 194.824C379.805 193.125 378.427 191.748 376.729 191.748C375.03 191.748 373.652 193.125 373.652 194.824C373.652 196.523 375.03 197.9 376.729 197.9Z" fill="#005CC5"/>
<path d="M365.859 187.646C367.558 187.646 368.936 186.269 368.936 184.57C368.936 182.871 367.558 181.494 365.859 181.494C364.16 181.494 362.783 182.871 362.783 184.57C362.783 186.269 364.16 187.646 365.859 187.646Z" fill="#005CC5"/>
<path d="M363.604 163.857C365.302 163.857 366.68 162.48 366.68 160.781C366.68 159.082 365.302 157.705 363.604 157.705C361.905 157.705 360.527 159.082 360.527 160.781C360.527 162.48 361.905 163.857 363.604 163.857Z" fill="#005CC5"/>
<path d="M359.092 149.912C360.791 149.912 362.168 148.535 362.168 146.836C362.168 145.137 360.791 143.76 359.092 143.76C357.393 143.76 356.016 145.137 356.016 146.836C356.016 148.535 357.393 149.912 359.092 149.912Z" fill="#005CC5"/>
<path d="M350.889 141.504C352.588 141.504 353.965 140.127 353.965 138.428C353.965 136.729 352.588 135.352 350.889 135.352C349.19 135.352 347.812 136.729 347.812 138.428C347.812 140.127 349.19 141.504 350.889 141.504Z" fill="#005CC5"/>
<path d="M357.041 133.506C358.74 133.506 360.117 132.129 360.117 130.43C360.117 128.731 358.74 127.354 357.041 127.354C355.342 127.354 353.965 128.731 353.965 130.43C353.965 132.129 355.342 133.506 357.041 133.506Z" fill="#005CC5"/>
<path d="M321.768 95.5664C323.467 95.5664 324.844 94.1892 324.844 92.4902C324.844 90.7913 323.467 89.4141 321.768 89.4141C320.069 89.4141 318.691 90.7913 318.691 92.4902C318.691 94.1892 320.069 95.5664 321.768 95.5664Z" fill="#005CC5"/>
<path d="M334.072 95.5664C335.771 95.5664 337.148 94.1892 337.148 92.4902C337.148 90.7913 335.771 89.4141 334.072 89.4141C332.373 89.4141 330.996 90.7913 330.996 92.4902C330.996 94.1892 332.373 95.5664 334.072 95.5664Z" fill="#005CC5"/>
<path d="M292.202 282.386C292.773 280.786 291.939 279.026 290.339 278.455C288.739 277.884 286.979 278.717 286.408 280.317C285.836 281.917 286.67 283.678 288.27 284.249C289.87 284.82 291.63 283.986 292.202 282.386Z" fill="#005CC5"/>
<path d="M313.098 233.013C313.67 231.413 312.836 229.652 311.236 229.081C309.636 228.51 307.876 229.344 307.304 230.944C306.733 232.544 307.567 234.304 309.167 234.875C310.767 235.447 312.527 234.613 313.098 233.013Z" fill="#005CC5"/>
<path d="M306.754 250.781C307.325 249.181 306.491 247.421 304.891 246.85C303.291 246.278 301.531 247.112 300.96 248.712C300.388 250.312 301.222 252.072 302.822 252.644C304.422 253.215 306.182 252.381 306.754 250.781Z" fill="#005CC5"/>
<path d="M275.017 118.797C274.328 120.35 275.028 122.168 276.581 122.857C278.134 123.545 279.952 122.845 280.641 121.292C281.329 119.739 280.629 117.922 279.076 117.233C277.523 116.544 275.706 117.244 275.017 118.797Z" fill="#005CC5"/>
<path d="M313.038 163.203C311.48 163.881 310.766 165.693 311.444 167.251C312.122 168.809 313.934 169.522 315.492 168.845C317.05 168.167 317.763 166.355 317.086 164.797C316.408 163.239 314.596 162.525 313.038 163.203Z" fill="#005CC5"/>
<path d="M319.301 211.993C317.675 211.501 315.957 212.419 315.465 214.045C314.972 215.671 315.891 217.389 317.517 217.881C319.143 218.374 320.86 217.455 321.353 215.829C321.845 214.203 320.927 212.486 319.301 211.993Z" fill="#005CC5"/>
<path d="M263.512 109.042C262.823 110.595 263.523 112.413 265.076 113.102C266.629 113.791 268.447 113.09 269.135 111.537C269.824 109.984 269.124 108.167 267.571 107.478C266.018 106.789 264.201 107.489 263.512 109.042Z" fill="#005CC5"/>
<path d="M311.165 148.236C309.607 148.913 308.893 150.726 309.571 152.283C310.249 153.841 312.061 154.555 313.619 153.878C315.177 153.2 315.89 151.388 315.213 149.83C314.535 148.272 312.723 147.558 311.165 148.236Z" fill="#005CC5"/>
<path d="M327.566 199.375C325.94 198.883 324.223 199.801 323.73 201.427C323.238 203.053 324.156 204.771 325.782 205.263C327.408 205.756 329.126 204.837 329.618 203.211C330.111 201.585 329.192 199.868 327.566 199.375Z" fill="#005CC5"/>
<path d="M237.882 108.421C238.556 109.98 240.367 110.697 241.927 110.022C243.486 109.348 244.203 107.537 243.528 105.977C242.853 104.418 241.042 103.701 239.483 104.376C237.924 105.051 237.207 106.862 237.882 108.421Z" fill="#005CC5"/>
<path d="M221.482 105.124C222.156 106.683 223.967 107.401 225.527 106.726C227.086 106.051 227.803 104.24 227.128 102.681C226.453 101.122 224.643 100.405 223.083 101.079C221.524 101.754 220.807 103.565 221.482 105.124Z" fill="#005CC5"/>
<path d="M286.418 135.073C285.729 136.625 286.43 138.443 287.983 139.132C289.536 139.821 291.353 139.12 292.042 137.567C292.731 136.014 292.03 134.197 290.477 133.508C288.924 132.819 287.107 133.52 286.418 135.073Z" fill="#005CC5"/>
<path d="M310.424 182.902C308.866 183.579 308.152 185.392 308.83 186.95C309.507 188.507 311.319 189.221 312.877 188.544C314.435 187.866 315.149 186.054 314.471 184.496C313.794 182.938 311.982 182.224 310.424 182.902Z" fill="#005CC5"/>
<path d="M304.552 225.31C302.926 224.818 301.209 225.737 300.716 227.363C300.223 228.988 301.142 230.706 302.768 231.199C304.394 231.691 306.111 230.772 306.604 229.146C307.097 227.52 306.178 225.803 304.552 225.31Z" fill="#005CC5"/>
<path d="M211.507 109.441C212.181 111 213.992 111.717 215.552 111.042C217.111 110.368 217.828 108.557 217.153 106.998C216.478 105.438 214.667 104.721 213.108 105.396C211.549 106.071 210.832 107.882 211.507 109.441Z" fill="#005CC5"/>
<path d="M276.483 130.665C275.794 132.218 276.494 134.036 278.047 134.724C279.6 135.413 281.417 134.713 282.106 133.16C282.795 131.607 282.095 129.79 280.542 129.101C278.989 128.412 277.171 129.112 276.483 130.665Z" fill="#005CC5"/>
<path d="M306.089 172.934C304.531 173.612 303.817 175.424 304.495 176.982C305.172 178.54 306.984 179.254 308.542 178.576C310.1 177.899 310.814 176.086 310.136 174.528C309.459 172.971 307.647 172.257 306.089 172.934Z" fill="#005CC5"/>
<path d="M307.703 214.908C306.077 214.416 304.36 215.334 303.867 216.96C303.375 218.586 304.294 220.304 305.92 220.796C307.545 221.289 309.263 220.37 309.755 218.744C310.248 217.118 309.329 215.401 307.703 214.908Z" fill="#005CC5"/>
<path d="M314.368 243.483C314.939 241.883 314.105 240.123 312.505 239.552C310.906 238.98 309.145 239.814 308.574 241.414C308.003 243.014 308.837 244.774 310.437 245.346C312.037 245.917 313.797 245.083 314.368 243.483Z" fill="#005CC5"/>
<path d="M250.456 114.418C251.846 115.395 253.765 115.06 254.742 113.67C255.719 112.28 255.384 110.361 253.994 109.384C252.603 108.407 250.685 108.742 249.708 110.133C248.731 111.523 249.066 113.441 250.456 114.418Z" fill="#005CC5"/>
<path d="M297.914 143.362C298.277 145.022 299.917 146.073 301.576 145.71C303.236 145.348 304.287 143.708 303.925 142.048C303.562 140.388 301.922 139.337 300.262 139.7C298.603 140.063 297.551 141.702 297.914 143.362Z" fill="#005CC5"/>
<path d="M320.625 187.081C319.827 188.58 320.395 190.443 321.895 191.241C323.395 192.04 325.257 191.471 326.056 189.972C326.854 188.472 326.285 186.609 324.786 185.811C323.286 185.012 321.423 185.581 320.625 187.081Z" fill="#005CC5"/>
<path d="M224.394 113.92C225.069 115.479 226.88 116.196 228.439 115.521C229.998 114.847 230.715 113.036 230.04 111.476C229.366 109.917 227.555 109.2 225.995 109.875C224.436 110.55 223.719 112.361 224.394 113.92Z" fill="#005CC5"/>
<path d="M302.962 279.696C303.533 278.096 302.699 276.336 301.099 275.764C299.499 275.193 297.739 276.027 297.168 277.627C296.596 279.227 297.43 280.987 299.03 281.558C300.63 282.13 302.39 281.296 302.962 279.696Z" fill="#005CC5"/>
<path d="M294.96 274.661C295.532 273.061 294.698 271.301 293.098 270.729C291.498 270.158 289.738 270.992 289.166 272.592C288.595 274.192 289.429 275.952 291.029 276.524C292.629 277.095 294.389 276.261 294.96 274.661Z" fill="#005CC5"/>
<path d="M310.272 268.37C310.844 266.77 310.01 265.009 308.41 264.438C306.81 263.867 305.05 264.701 304.478 266.301C303.907 267.901 304.741 269.661 306.341 270.232C307.941 270.803 309.701 269.97 310.272 268.37Z" fill="#005CC5"/>
<path d="M266.978 129.787C268.368 130.763 270.286 130.428 271.263 129.038C272.24 127.648 271.905 125.729 270.515 124.753C269.125 123.776 267.206 124.111 266.229 125.501C265.252 126.891 265.588 128.81 266.978 129.787Z" fill="#005CC5"/>
<path d="M299.683 165.857C300.046 167.517 301.686 168.568 303.345 168.205C305.005 167.842 306.057 166.203 305.694 164.543C305.331 162.883 303.691 161.832 302.031 162.195C300.372 162.558 299.32 164.197 299.683 165.857Z" fill="#005CC5"/>
<path d="M307.406 205.367C306.608 206.867 307.176 208.73 308.676 209.528C310.176 210.326 312.038 209.758 312.837 208.258C313.635 206.758 313.066 204.896 311.567 204.097C310.067 203.299 308.204 203.868 307.406 205.367Z" fill="#005CC5"/>
<path d="M254.638 124.876C256.028 125.852 257.947 125.517 258.923 124.127C259.9 122.737 259.565 120.818 258.175 119.842C256.785 118.865 254.866 119.2 253.889 120.59C252.913 121.98 253.248 123.899 254.638 124.876Z" fill="#005CC5"/>
<path d="M293.919 153.892C294.281 155.552 295.921 156.603 297.581 156.24C299.241 155.877 300.292 154.238 299.929 152.578C299.566 150.918 297.927 149.867 296.267 150.23C294.607 150.593 293.556 152.232 293.919 153.892Z" fill="#005CC5"/>
<path d="M310.761 192.517C309.963 194.017 310.532 195.88 312.031 196.678C313.531 197.476 315.394 196.908 316.192 195.408C316.991 193.908 316.422 192.045 314.922 191.247C313.423 190.449 311.56 191.017 310.761 192.517Z" fill="#005CC5"/>
<path d="M302.092 268.715C302.663 267.115 301.829 265.355 300.229 264.783C298.629 264.212 296.869 265.046 296.298 266.646C295.727 268.246 296.56 270.006 298.16 270.577C299.76 271.149 301.521 270.315 302.092 268.715Z" fill="#005CC5"/>
<path d="M313.828 254.966C314.4 253.366 313.566 251.606 311.966 251.034C310.366 250.463 308.606 251.297 308.034 252.897C307.463 254.497 308.297 256.257 309.897 256.829C311.497 257.4 313.257 256.566 313.828 254.966Z" fill="#005CC5"/>
</svg>
